Qahiri.glyphspackage
{
glyphname = "fullstop-ar";
layers = (
{
layerId = "67aa4fb0-543e-4232-8202-ade6a11e0795";
paths = (
{
closed = 1;
nodes = (
"0 0 LINE",
"40 70 LINE",
"150 70 LINE",
"110 0 LINE"
);
}
);
width = 190;
}
);
unicode = 06D4;
}
{
glyphname = braceright;
layers = (
{
layerId = "67aa4fb0-543e-4232-8202-ade6a11e0795";
paths = (
{
closed = 1;
nodes = (
"70 -100 OFFCURVE",
"116 -43 OFFCURVE",
"116 39 CURVE SMOOTH",
"116 153 OFFCURVE",
"125 198 OFFCURVE",
"168 229 CURVE",
"125 260 OFFCURVE",
"116 298 OFFCURVE",
"116 413 CURVE SMOOTH",
"116 502 OFFCURVE",
"77 560 OFFCURVE",
"0 560 CURVE",
"43 543 OFFCURVE",
"64 502 OFFCURVE",
"64 413 CURVE SMOOTH",
"64 320 OFFCURVE",
"67 253 OFFCURVE",
"154 229 CURVE",
"64 205 OFFCURVE",
"64 139 OFFCURVE",
"64 39 CURVE SMOOTH",
"64 -43 OFFCURVE",
"43 -80 OFFCURVE",
"0 -100 CURVE"
);
}
);
width = 208;
}
);
unicode = 007D;
}
{
glyphname = exclam;
layers = (
{
components = (
{
name = period;
transform = "{1, 0, 0, 1, 10, 0}";
}
);
layerId = "67aa4fb0-543e-4232-8202-ade6a11e0795";
paths = (
{
closed = 1;
nodes = (
"135 331 OFFCURVE",
"99 414 OFFCURVE",
"45 560 CURVE",
"0 469 LINE",
"38 385 OFFCURVE",
"77 309 OFFCURVE",
"64 155 CURVE"
);
}
);
width = 144;
},
{
associatedMasterId = "67aa4fb0-543e-4232-8202-ade6a11e0795";
components = (
{
name = period;
transform = "{1, 0, 0, 1, 10, 0}";
}
);
layerId = "AA869208-4485-4269-BA4A-1F8F0627DEA2";
name = "Dec 12 20, 17:13";
paths = (
{
closed = 1;
nodes = (
"143 294 OFFCURVE",
"106 401 OFFCURVE",
"45 560 CURVE",
"0 469 LINE",
"45 372 OFFCURVE",
"85 281 OFFCURVE",
"58 111 CURVE"
);
}
);
visible = 1;
width = 148;
}
);
unicode = 0021;
}
{
glyphname = quotesingle;
layers = (
{
layerId = "67aa4fb0-543e-4232-8202-ade6a11e0795";
paths = (
{
closed = 1;
nodes = (
"40 560 LINE",
"0 560 LINE",
"0 325 LINE",
"40 325 LINE"
);
}
);
width = 80;
}
);
unicode = 0027;
}
{
glyphname = parenright;
layers = (
{
layerId = "67aa4fb0-543e-4232-8202-ade6a11e0795";
paths = (
{
closed = 1;
nodes = (
"154 78 OFFCURVE",
"154 334 OFFCURVE",
"45 560 CURVE",
"0 469 LINE",
"93 295 OFFCURVE",
"96 65 OFFCURVE",
"0 -100 CURVE"
);
}
);
width = 162;
}
);
unicode = 0029;
}
{
glyphname = two;
layers = (
{
layerId = "67aa4fb0-543e-4232-8202-ade6a11e0795";
paths = (
{
closed = 1;
nodes = (
"150 350 LINE",
"0 350 LINE",
"0 280 LINE",
"150 280 LINE"
);
},
{
closed = 1;
nodes = (
"150 210 LINE",
"0 210 LINE",
"0 140 LINE",
"150 140 LINE"
);
},
{
closed = 1;
nodes = (
"210 70 LINE",
"60 70 LINE",
"60 0 LINE",
"210 0 LINE"
);
},
{
closed = 1;
nodes = (
"210 350 LINE",
"140 350 LINE",
"140 140 LINE",
"210 140 LINE"
);
},
{
closed = 1;
nodes = (
"70 210 LINE",
"0 210 LINE",
"0 0 LINE",
"70 0 LINE"
);
}
);
width = 250;
}
);
unicode = 0032;
}
{
glyphname = percent;
layers = (
{
layerId = "67aa4fb0-543e-4232-8202-ade6a11e0795";
shapes = (
{
closed = 1;
nodes = (
(119,422,l),
(119,540,l),
(0,540,l),
(0,422,l)
);
},
{
closed = 1;
nodes = (
(229,20,l),
(229,138,l),
(110,138,l),
(110,20,l)
);
},
{
closed = 1;
nodes = (
(150,98,l),
(189,98,l),
(189,60,l),
(150,60,l)
);
},
{
closed = 1;
nodes = (
(40,500,l),
(79,500,l),
(79,462,l),
(40,462,l)
);
},
{
ref = slash;
}
);
width = 276;
}
);
unicode = 37;
}
{
glyphname = period;
layers = (
{
layerId = "67aa4fb0-543e-4232-8202-ade6a11e0795";
shapes = (
{
closed = 1;
nodes = (
(62,0,o),
(80,18,o),
(80,40,cs),
(80,62,o),
(62,80,o),
(40,80,cs),
(18,80,o),
(0,62,o),
(0,40,cs),
(0,18,o),
(18,0,o),
(40,0,cs)
);
}
);
width = 120;
}
);
unicode = 46;
}
{
glyphname = slash;
layers = (
{
layerId = "67aa4fb0-543e-4232-8202-ade6a11e0795";
shapes = (
{
closed = 1;
nodes = (
(37,0,l),
(236,546,l),
(198,560,l),
(0,14,l)
);
}
);
width = 276;
}
);
unicode = 47;
}
{
glyphname = "behDotless-ar";
layers = (
{
anchors = (
{
name = bottom;
position = "{280, -35}";
},
{
name = top;
position = "{280, 200}";
}
);
components = (
{
alignment = -1;
name = _tail;
},
{
name = "behDotless-ar.init";
transform = "{1, 0, 0, 1, 480, 0}";
}
);
layerId = "67aa4fb0-543e-4232-8202-ade6a11e0795";
paths = (
{
closed = 1;
nodes = (
"470 0 LINE",
"470 70 LINE",
"170 70 LINE",
"170 0 LINE"
);
}
);
width = 600;
}
);
rightKerningGroup = dal;
unicode = 066E;
}
{
glyphname = "qafDotless-ar";
layers = (
{
anchors = (
{
name = top;
position = "{100, 235}";
}
);
layerId = "67aa4fb0-543e-4232-8202-ade6a11e0795";
paths = (
{
closed = 1;
nodes = (
"235 -250 LINE SMOOTH",
"241 -250 OFFCURVE",
"256 -250 OFFCURVE",
"256 -229 CURVE SMOOTH",
"256 -90 OFFCURVE",
"186 -70 OFFCURVE",
"142 -70 CURVE SMOOTH",
"91 -70 LINE",
"179 27 LINE",
"190 61 LINE",
"183 61 LINE",
"0 -140 LINE",
"132 -140 LINE SMOOTH",
"154 -140 OFFCURVE",
"172 -158 OFFCURVE",
"172 -180 CURVE",
"-24 -180 LINE",
"-64 -250 LINE"
);
},
{
closed = 1;
nodes = (
"165 0 OFFCURVE",
"200 30 OFFCURVE",
"200 90 CURVE SMOOTH",
"200 140 OFFCURVE",
"155 180 OFFCURVE",
"100 180 CURVE SMOOTH",
"45 180 OFFCURVE",
"0 140 OFFCURVE",
"0 90 CURVE SMOOTH",
"0 30 OFFCURVE",
"45 0 OFFCURVE",
"100 0 CURVE SMOOTH"
);
},
{
closed = 1;
nodes = (
"89 70 OFFCURVE",
"80 79 OFFCURVE",
"80 90 CURVE SMOOTH",
"80 101 OFFCURVE",
"89 110 OFFCURVE",
"100 110 CURVE SMOOTH",
"111 110 OFFCURVE",
"120 101 OFFCURVE",
"120 90 CURVE SMOOTH",
"120 79 OFFCURVE",
"111 70 OFFCURVE",
"100 70 CURVE SMOOTH"
);
}
);
width = 296;
}
);
rightKerningGroup = qaf;
unicode = 066F;
}
{
glyphname = bracketright;
layers = (
{
layerId = "67aa4fb0-543e-4232-8202-ade6a11e0795";
shapes = (
{
closed = 1;
nodes = (
(110,-100,l),
(110,560,l),
(0,560,l),
(0,520,l),
(70,520,l),
(70,-60,l),
(0,-60,l),
(0,-100,l)
);
}
);
width = 150;
}
);
unicode = 93;
}
{
glyphname = underscore;
layers = (
{
layerId = "67aa4fb0-543e-4232-8202-ade6a11e0795";
shapes = (
{
closed = 1;
nodes = (
(130,-90,l),
(130,-50,l),
(-40,-50,l),
(-40,-90,l)
);
}
);
width = 130;
}
);
unicode = 95;
}
{
glyphname = c;
layers = (
{
layerId = "67aa4fb0-543e-4232-8202-ade6a11e0795";
shapes = (
{
closed = 1;
nodes = (
(140,0,l),
(140,70,l),
(100,70,ls),
(89,70,o),
(80,79,o),
(80,90,cs),
(80,101,o),
(89,110,o),
(100,110,cs),
(140,110,l),
(140,180,l),
(90,180,ls),
(40,180,o),
(0,140,o),
(0,90,cs),
(0,40,o),
(40,0,o),
(90,0,cs)
);
}
);
width = 180;
}
);
unicode = (99,67);
}
{
glyphname = g;
layers = (
{
layerId = "67aa4fb0-543e-4232-8202-ade6a11e0795";
shapes = (
{
closed = 1;
nodes = (
(162,-250,ls),
(185,-250,o),
(200,-235,o),
(200,-210,cs),
(200,220,l),
(180,185,o),
(140,180,o),
(100,180,cs),
(45,180,o),
(0,140,o),
(0,90,cs),
(0,30,o),
(45,0,o),
(100,0,cs),
(120,0,l),
(120,-180,l),
(50,-180,ls),
(30,-180,o),
(13,-175,o),
(2,-160,c),
(-50,-250,l)
);
},
{
closed = 1;
nodes = (
(89,70,o),
(80,79,o),
(80,90,cs),
(80,101,o),
(89,110,o),
(100,110,cs),
(111,110,o),
(120,100,o),
(120,90,cs),
(120,80,o),
(111,70,o),
(100,70,cs)
);
}
);
width = 240;
}
);
unicode = (103,71);
}
{
glyphname = q;
layers = (
{
layerId = "67aa4fb0-543e-4232-8202-ade6a11e0795";
shapes = (
{
closed = 1;
nodes = (
(200,-230,l),
(200,220,l),
(180,185,o),
(140,180,o),
(100,180,cs),
(45,180,o),
(0,149,o),
(0,90,cs),
(0,41,o),
(45,0,o),
(100,0,cs),
(120,0,l),
(120,-250,l)
);
},
{
closed = 1;
nodes = (
(89,70,o),
(80,80,o),
(80,90,cs),
(80,100,o),
(89,110,o),
(100,110,cs),
(111,110,o),
(120,100,o),
(120,90,cs),
(120,80,o),
(111,70,o),
(100,70,cs)
);
}
);
width = 240;
}
);
unicode = (113,81);
}
{
glyphname = r;
layers = (
{
layerId = "67aa4fb0-543e-4232-8202-ade6a11e0795";
shapes = (
{
closed = 1;
nodes = (
(80,0,l),
(80,90,ls),
(80,101,o),
(89,110,o),
(100,110,cs),
(107,110,o),
(114,106,o),
(117,100,c),
(177,148,l),
(158,167,o),
(131,180,o),
(100,180,cs),
(60,180,o),
(20,185,o),
(0,220,c),
(0,-20,l)
);
}
);
width = 217;
}
);
unicode = (114,82);
}
{
glyphname = x;
layers = (
{
layerId = "67aa4fb0-543e-4232-8202-ade6a11e0795";
shapes = (
{
closed = 1;
nodes = (
(214,230,l),
(137,230,l),
(93,135,l),
(121,135,l),
(77,230,l),
(0,230,l),
(64,92,l),
(148,89,l)
);
},
{
closed = 1;
nodes = (
(77,0,l),
(121,95,l),
(93,95,l),
(137,0,l),
(214,0,l),
(148,141,l),
(63,135,l),
(0,0,l)
);
}
);
width = 254;
}
);
unicode = (120,88);
}
{
glyphname = "tahabove-ar";
layers = (
{
anchors = (
{
name = _top;
position = "{74, 0}";
}
);
layerId = "67aa4fb0-543e-4232-8202-ade6a11e0795";
paths = (
{
closed = 1;
nodes = (
"142 0 LINE SMOOTH",
"146 0 OFFCURVE",
"148 0 OFFCURVE",
"148 6 CURVE SMOOTH",
"148 50 OFFCURVE",
"127 59 OFFCURVE",
"113 59 CURVE SMOOTH",
"30 59 LINE",
"30 35 LINE",
"109 35 LINE SMOOTH",
"117 35 OFFCURVE",
"123 29 OFFCURVE",
"123 21 CURVE",
"12 21 LINE",
"0 0 LINE"
);
},
{
closed = 1;
nodes = (
"50 0 LINE",
"50 115 LINE",
"25 109 LINE",
"25 0 LINE"
);
}
);
width = 148;
}
);
unicode = 0615;
}
{
glyphname = "alef-ar";
layers = (
{
anchors = (
{
name = bottom;
position = "{70, -20}";
},
{
name = top;
position = "{173, 474}";
}
);
layerId = "67aa4fb0-543e-4232-8202-ade6a11e0795";
paths = (
{
closed = 1;
nodes = (
"218 0 OFFCURVE",
"281 24 OFFCURVE",
"320 70 CURVE",
"292 58 OFFCURVE",
"248 48 OFFCURVE",
"205 48 CURVE SMOOTH",
"141 48 OFFCURVE",
"80 70 OFFCURVE",
"80 140 CURVE SMOOTH",
"80 560 LINE",
"0 540 LINE",
"0 140 LINE SMOOTH",
"0 45 OFFCURVE",
"76 0 OFFCURVE",
"158 0 CURVE SMOOTH"
);
}
);
width = 360;
}
);
unicode = 0627;
}
{
glyphname = "reh-ar";
layers = (
{
anchors = (
{
name = top;
position = "{117, 215}";
}
);
layerId = "67aa4fb0-543e-4232-8202-ade6a11e0795";
paths = (
{
closed = 1;
nodes = (
"276 -110 LINE SMOOTH",
"282 -110 OFFCURVE",
"297 -110 OFFCURVE",
"297 -89 CURVE",
"297 50 OFFCURVE",
"228.195 92.87 OFFCURVE",
"81.4 140 CURVE",
"0.5 0 LINE",
"173 0 LINE SMOOTH",
"195 0 OFFCURVE",
"213 -18 OFFCURVE",
"213 -40 CURVE",
"-22.6 -40 LINE",
"-63 -110 LINE"
);
}
);
width = 312;
}
);
rightKerningGroup = reh;
unicode = 0631;
}
{
glyphname = "ain-ar";
layers = (
{
associatedMasterId = "67aa4fb0-543e-4232-8202-ade6a11e0795";
components = (
{
alignment = -1;
name = "ain-ar.init";
}
);
layerId = "abf4b10a-26e5-432c-8593-bf37389dfdfd";
name = Regular.1;
paths = (
{
closed = 1;
nodes = (
"90 70 LINE SMOOTH",
"40 70 OFFCURVE",
"0 30 OFFCURVE",
"0 -20 CURVE SMOOTH",
"0 -70 OFFCURVE",
"40 -110 OFFCURVE",
"90 -110 CURVE SMOOTH",
"535 -110 LINE",
"576 -40 LINE",
"100 -40 LINE SMOOTH",
"89 -40 OFFCURVE",
"80 -31 OFFCURVE",
"80 -20 CURVE SMOOTH",
"80 -9 OFFCURVE",
"89 0 OFFCURVE",
"100 0 CURVE SMOOTH",
"240 0 LINE",
"240 70 LINE"
);
},
{
closed = 1;
nodes = (
"640 70 LINE",
"220 70 LINE",
"220 0 LINE",
"599 0 LINE"
);
},
{
closed = 1;
nodes = (
"376 70 LINE",
"366 50 LINE",
"480 50 LINE",
"480 70 LINE",
"340 209.841 LINE",
"296 150 LINE"
);
},
{
closed = 1;
nodes = (
"640 150 LINE",
"220 150 LINE"
);
},
{
closed = 1;
nodes = (
"560 0 LINE",
"560 270 LINE"
);
},
{
closed = 1;
nodes = (
"480 0 LINE",
"480 270 LINE"
);
},
{
closed = 1;
nodes = (
"400 0 LINE",
"400 270 LINE"
);
},
{
closed = 1;
nodes = (
"375.732 69.972 LINE",
"319.376 126.328 LINE"
);
},
{
closed = 1;
nodes = (
"319 126 LINE",
"500 230 LINE"
);
}
);
width = 680;
},
{
anchors = (
{
name = top;
position = "{399, 230}";
}
);
layerId = "67aa4fb0-543e-4232-8202-ade6a11e0795";
paths = (
{
closed = 1;
nodes = (
"535 -110 LINE",
"576 -40 LINE",
"100 -40 LINE SMOOTH",
"89 -40 OFFCURVE",
"80 -31 OFFCURVE",
"80 -20 CURVE SMOOTH",
"80 -9 OFFCURVE",
"89 0 OFFCURVE",
"100 0 CURVE SMOOTH",
"599 0 LINE",
"640 70 LINE",
"501 70 LINE SMOOTH",
"469 70 OFFCURVE",
"416 117 OFFCURVE",
"416 148 CURVE SMOOTH",
"416 177 OFFCURVE",
"481 215 OFFCURVE",
"501 227 CURVE",
"500 230 LINE",
"447 204 OFFCURVE",
"354 157 OFFCURVE",
"354 109 CURVE SMOOTH",
"354 96 OFFCURVE",
"360 83 OFFCURVE",
"376 70 CURVE",
"90 70 LINE SMOOTH",
"40 70 OFFCURVE",
"0 30 OFFCURVE",
"0 -20 CURVE SMOOTH",
"0 -70 OFFCURVE",
"40 -110 OFFCURVE",
"90 -110 CURVE SMOOTH"
);
}
);
width = 680;
}
);
unicode = 0639;
}
{
glyphname = "kashida-ar";
layers = (
{
anchors = (
{
name = entry;
position = "{80, 0}";
},
{
name = exit;
position = "{0, 0}";
}
);
layerId = "67aa4fb0-543e-4232-8202-ade6a11e0795";
paths = (
{
closed = 1;
nodes = (
"80 0 LINE",
"80 70 LINE",
"-19.763 70 LINE",
"-19.763 0 LINE"
);
}
);
width = 80;
}
);
unicode = 0640;
}
{
glyphname = "kaf-ar";
layers = (
{
components = (
{
name = _dal;
transform = "{1, 0, 0, 1, 40, 0}";
},
{
name = _alef;
transform = "{1, 0, 0, 1, 40, 0}";
}
);
layerId = "67aa4fb0-543e-4232-8202-ade6a11e0795";
paths = (
{
closed = 1;
nodes = (
"116 70 LINE",
"40.4 70 LINE",
"0 0 LINE",
"116 0 LINE"
);
},
{
closed = 1;
nodes = (
"175 180 LINE",
"40 180 LINE",
"40 110 LINE",
"176 110 LINE"
);
}
);
width = 640;
}
);
rightKerningGroup = dal;
unicode = 0643;
}
{
glyphname = "meem-ar";
layers = (
{
layerId = "67aa4fb0-543e-4232-8202-ade6a11e0795";
paths = (
{
closed = 1;
nodes = (
"365 0 OFFCURVE",
"399.981 30 OFFCURVE",
"399.981 90 CURVE SMOOTH",
"399.981 139.672 OFFCURVE",
"355.172 180 OFFCURVE",
"299.981 180 CURVE SMOOTH",
"244.789 180 OFFCURVE",
"199.981 140 OFFCURVE",
"199.981 90 CURVE SMOOTH",
"199.981 30 OFFCURVE",
"244.789 0 OFFCURVE",
"299.981 0 CURVE SMOOTH"
);
},
{
closed = 1;
nodes = (
"300 0 LINE",
"300 70 LINE",
"100 70 LINE",
"79.847 70 OFFCURVE",
"63.184 75.474 OFFCURVE",
"52 90 CURVE",
"0 0 LINE"
);
},
{
closed = 1;
nodes = (
"288.942 70 OFFCURVE",
"279.981 78.962 OFFCURVE",
"279.981 90 CURVE SMOOTH",
"279.981 101.038 OFFCURVE",
"288.942 110 OFFCURVE",
"299.981 110 CURVE SMOOTH",
"311.019 110 OFFCURVE",
"319.981 101.038 OFFCURVE",
"319.981 90 CURVE SMOOTH",
"319.981 78.962 OFFCURVE",
"311.019 70 OFFCURVE",
"299.981 70 CURVE SMOOTH"
);
}
);
width = 440;
}
);
rightKerningGroup = dal;
unicode = 0645;
}
{
glyphname = "heh-ar";
layers = (
{
anchors = (
{
name = top;
position = "{100, 235}";
}
);
layerId = "67aa4fb0-543e-4232-8202-ade6a11e0795";
paths = (
{
closed = 1;
nodes = (
"165 0 OFFCURVE",
"199.981 30 OFFCURVE",
"199.981 90 CURVE SMOOTH",
"199.981 139.672 OFFCURVE",
"155.172 180 OFFCURVE",
"99.981 180 CURVE SMOOTH",
"44.789 180 OFFCURVE",
"-0.02 140 OFFCURVE",
"-0.02 90 CURVE SMOOTH",
"-0.02 30 OFFCURVE",
"44.789 0 OFFCURVE",
"99.981 0 CURVE SMOOTH"
);
},
{
closed = 1;
nodes = (
"88.964 70 OFFCURVE",
"80.003 78.962 OFFCURVE",
"80.003 90 CURVE SMOOTH",
"80.003 101.038 OFFCURVE",
"88.964 110 OFFCURVE",
"100.003 110 CURVE SMOOTH",
"111.041 110 OFFCURVE",
"120.003 101.038 OFFCURVE",
"120.003 90 CURVE SMOOTH",
"120.003 78.962 OFFCURVE",
"111.041 70 OFFCURVE",
"100.003 70 CURVE SMOOTH"
);
},
{
closed = 1;
nodes = (
"200.011 220.011 LINE",
"180.011 185.011 OFFCURVE",
"140 180.031 OFFCURVE",
"100 180.031 CURVE",
"200.011 90 LINE"
);
}
);
width = 240;
}
);
unicode = 0647;
}
{
glyphname = "waw-ar";
layers = (
{
anchors = (
{
name = top;
position = "{179, 340}";
}
);
layerId = "67aa4fb0-543e-4232-8202-ade6a11e0795";
paths = (
{
closed = 1;
nodes = (
"256 0 LINE SMOOTH",
"280 0 OFFCURVE",
"293 37 OFFCURVE",
"293 102 CURVE SMOOTH",
"293 179 OFFCURVE",
"274 290 OFFCURVE",
"181 290 CURVE SMOOTH",
"125 290 OFFCURVE",
"80 250 OFFCURVE",
"80 200 CURVE SMOOTH",
"80 150 OFFCURVE",
"125 110 OFFCURVE",
"180 110 CURVE SMOOTH",
"190 110 OFFCURVE",
"200 111 OFFCURVE",
"210 114 CURVE",
"213 100 OFFCURVE",
"213 84 OFFCURVE",
"210 70 CURVE",
"100 70 LINE SMOOTH",
"78 70 OFFCURVE",
"62 77 OFFCURVE",
"52 90 CURVE",
"0 0 LINE"
);
},
{
closed = 1;
nodes = (
"169 180 OFFCURVE",
"160 189 OFFCURVE",
"160 200 CURVE SMOOTH",
"160 211 OFFCURVE",
"169 220 OFFCURVE",
"180 220 CURVE SMOOTH",
"191 220 OFFCURVE",
"200 211 OFFCURVE",
"200 200 CURVE SMOOTH",
"200 189 OFFCURVE",
"191 180 OFFCURVE",
"180 180 CURVE SMOOTH"
);
}
);
width = 333;
}
);
rightKerningGroup = dal;
unicode = 0648;
}
{
glyphname = "comma-ar";
layers = (
{
layerId = "67aa4fb0-543e-4232-8202-ade6a11e0795";
shapes = (
{
closed = 1;
nodes = (
(23,164,o),
(0,132,o),
(0,93,cs),
(0,65,o),
(11,34,o),
(37,0,c),
(80,58,l),
(53,82,o),
(32,144,o),
(61,185,c)
);
}
);
width = 120;
}
);
unicode = 1548;
}
{
glyphname = "question-ar";
layers = (
{
layerId = "67aa4fb0-543e-4232-8202-ade6a11e0795";
shapes = (
{
closed = 1;
nodes = (
(230,453,l),
(187,479,o),
(150,490,o),
(116,490,cs),
(83,490,o),
(32,478,o),
(32,444,cs),
(32,421,o),
(55,395,o),
(95,376,cs),
(158,345,o),
(193,306,o),
(193,252,cs),
(193,224,o),
(183,193,o),
(163,156,c),
(173,239,o),
(145,271,o),
(68,312,cs),
(17,340,o),
(0,384,o),
(0,424,cs),
(0,500,o),
(62,560,o),
(138,560,cs),
(169,560,o),
(201,550,o),
(230,531,c)
);
},
{
pos = (113,0);
ref = period;
}
);
width = 270;
}
);
unicode = 1567;
}
{
glyphname = "hamza-ar";
layers = (
{
layerId = "67aa4fb0-543e-4232-8202-ade6a11e0795";
shapes = (
{
closed = 1;
nodes = (
(165,50,l),
(150,50,o),
(141,62,o),
(141,76,cs),
(141,91,o),
(153,107,o),
(179,107,cs),
(189,107,o),
(200,105,o),
(213,100,c),
(203,132,o),
(178,150,o),
(153,150,cs),
(108,150,o),
(85,113,o),
(85,75,cs),
(85,52,o),
(94,29,o),
(112,14,c)
);
},
{
closed = 1;
nodes = (
(226,0,l),
(256,50,l),
(69,50,l),
(40,0,l)
);
}
);
width = 296;
}
);
unicode = 1569;
}
{
glyphname = "tah-ar";
layers = (
{
anchors = (
{
name = top;
pos = (377,255);
}
);
layerId = "67aa4fb0-543e-4232-8202-ade6a11e0795";
shapes = (
{
closed = 1;
nodes = (
(689,0,ls),
(695,0,o),
(710,0,o),
(710,21,cs),
(710,160,o),
(640,180,o),
(596,180,cs),
(93,180,l),
(93,110,l),
(586,110,ls),
(608,110,o),
(626,92,o),
(626,70,c),
(41,70,l),
(0,0,l)
);
},
{
closed = 1;
nodes = (
(160,51,l),
(160,560,l),
(80,540,l),
(80,51,l)
);
}
);
width = 750;
}
);
unicode = 1591;
}
{
glyphname = "lam-ar";
kernLeft = bowel;
layers = (
{
layerId = "67aa4fb0-543e-4232-8202-ade6a11e0795";
shapes = (
{
closed = 1;
nodes = (
(150,560,l),
(70,540,l),
(70,-180,l),
(-30,-180,ls),
(-50,-180,o),
(-67,-175,o),
(-78,-160,c),
(-130,-250,l),
(112,-250,ls),
(135,-250,o),
(150,-235,o),
(150,-210,cs)
);
}
);
width = 190;
}
);
unicode = 1604;
}
{
glyphname = "alefMaksura-ar";
layers = (
{
anchors = (
{
name = bottom;
pos = (87,-250);
},
{
name = top;
pos = (57,198);
}
);
guides = (
{
pos = (-33,155);
},
{
pos = (-33,-110);
},
{
pos = (-33,70);
}
);
layerId = "67aa4fb0-543e-4232-8202-ade6a11e0795";
shapes = (
{
closed = 1;
nodes = (
(169,-220,ls),
(192,-220,o),
(207,-205,o),
(207,-180,cs),
(207,-84,ls),
(207,-59,o),
(194,-43,o),
(159,-43,cs),
(127,-43,o),
(104,-36,o),
(82,-14,cs),
(51,17,ls),
(34,34,o),
(44,80,o),
(57,67,cs),
(109,15,ls),
(118,6,o),
(128,0,o),
(140,0,cs),
(156,0,o),
(192,10,o),
(202,90,c),
(199,75,o),
(185,70,o),
(176,70,cs),
(167,70,o),
(161,76,o),
(158,79,cs),
(94,143,ls),
(44,193,o),
(0,44,o),
(0,-5,cs),
(0,-88,o),
(54,-108,o),
(127,-110,c),
(127,-150,l),
(67,-150,ls),
(47,-150,o),
(30,-145,o),
(19,-130,c),
(-33,-220,l)
);
}
);
width = 247;
}
);
unicode = 1609;
}
{
glyphname = "fathatan-ar";
layers = (
{
anchors = (
{
name = top;
pos = (100,400);
}
);
layerId = "67aa4fb0-543e-4232-8202-ade6a11e0795";
shapes = (
{
closed = 1;
nodes = (
(165,480,l),
(161,501,l),
(35,463,l),
(38,450,l)
);
},
{
closed = 1;
nodes = (
(165,530,l),
(161,551,l),
(35,504,l),
(38,491,l)
);
}
);
width = 200;
}
);
unicode = 1611;
}
{
glyphname = "kasratan-ar";
layers = (
{
anchors = (
{
name = _bottom;
pos = (99,0);
}
);
layerId = "67aa4fb0-543e-4232-8202-ade6a11e0795";
shapes = (
{
closed = 1;
nodes = (
(165,-121,l),
(161,-100,l),
(35,-138,l),
(38,-151,l)
);
},
{
closed = 1;
nodes = (
(165,-71,l),
(161,-50,l),
(35,-97,l),
(38,-110,l)
);
}
);
width = 200;
}
);
unicode = 1613;
}
{
glyphname = "fatha-ar";
layers = (
{
anchors = (
{
name = _top;
pos = (100,400);
}
);
layerId = "67aa4fb0-543e-4232-8202-ade6a11e0795";
shapes = (
{
closed = 1;
nodes = (
(165,480,l),
(161,501,l),
(35,463,l),
(38,450,l)
);
}
);
width = 200;
}
);
unicode = 1614;
}
{
glyphname = "damma-ar";
layers = (
{
anchors = (
{
name = _top;
pos = (110,400);
}
);
layerId = "67aa4fb0-543e-4232-8202-ade6a11e0795";
shapes = (
{
closed = 1;
nodes = (
(140,484,l),
(150,490,o),
(155,501,o),
(155,511,cs),
(155,530,o),
(140,539,o),
(127,539,cs),
(113,539,o),
(99,530,o),
(99,512,cs),
(99,499,o),
(109,484,o),
(126,489,c)
);
},
{
closed = 1;
nodes = (
(140,484,l),
(154,520,l),
(48,441,l),
(56,430,l)
);
}
);
width = 200;
},
{
anchors = (
{
name = _top;
pos = (110,400);
}
);
associatedMasterId = "67aa4fb0-543e-4232-8202-ade6a11e0795";
layerId = "DE66B4F0-8149-4232-9EE6-D93B875804D3";
name = "17 Jun 25 at 20:38";
shapes = (
{
closed = 1;
nodes = (
(138,477,l),
(159,510,l),
(41,451,l),
(46,439,l)
);
},
{
closed = 1;
nodes = (
(143,474,o),
(159,490,o),
(159,510,cs),
(159,530,o),
(143,546,o),
(123,546,cs),
(103,546,o),
(87,530,o),
(87,510,cs),
(87,490,o),
(103,474,o),
(123,474,cs)
);
},
{
closed = 1;
nodes = (
(114,494,o),
(107,501,o),
(107,510,cs),
(107,519,o),
(114,526,o),
(123,526,cs),
(132,526,o),
(139,519,o),
(139,510,cs),
(139,501,o),
(132,494,o),
(123,494,cs)
);
}
);
width = 200;
},
{
anchors = (
{
name = _top;
pos = (110,400);
}
);
associatedMasterId = "67aa4fb0-543e-4232-8202-ade6a11e0795";
layerId = "5A6DCB7F-9A2D-4175-99B2-7F76928EDC43";
name = "17 Jun 25 at 20:48";
shapes = (
{
closed = 1;
nodes = (
(140,484,l),
(151,491,o),
(156,503,o),
(156,513,cs),
(156,534,o),
(140,544,o),
(125,544,cs),
(110,544,o),
(95,534,o),
(95,515,cs),
(95,500,o),
(106,484,o),
(124,489,c)
);
},
{
closed = 1;
nodes = (
(140,484,l),
(154,520,l),
(48,441,l),
(56,430,l)
);
}
);
width = 200;
}
);
unicode = 1615;
}
{
glyphname = "kasra-ar";
layers = (
{
anchors = (
{
name = _bottom;
pos = (99,0);
}
);
layerId = "67aa4fb0-543e-4232-8202-ade6a11e0795";
shapes = (
{
closed = 1;
nodes = (
(165,-71,l),
(161,-50,l),
(35,-88,l),
(38,-101,l)
);
}
);
width = 200;
}
);
unicode = 1616;
}
{
glyphname = "shadda-ar";
layers = (
{
anchors = (
{
name = _top;
pos = (100,400);
},
{
name = top;
pos = (100,478);
}
);
layerId = "67aa4fb0-543e-4232-8202-ade6a11e0795";
shapes = (
{
closed = 1;
nodes = (
(144,447,ls),
(146,447,o),
(150,447,o),
(150,450,cs),
(150,515,l),
(130,510,l),
(130,465,l),
(119,465,o),
(110,469,o),
(110,480,cs),
(110,507,l),
(90,502,l),
(90,465,l),
(79,465,o),
(70,469,o),
(70,480,cs),
(70,500,l),
(50,495,l),
(50,450,ls),
(50,447,o),
(54,447,o),
(56,447,cs)
);
}
);
width = 200;
},
{
associatedMasterId = "67aa4fb0-543e-4232-8202-ade6a11e0795";
layerId = "163C17FE-334C-4A33-ABFC-FAD1ADE838FA";
name = "17 Jun 25 at 20:10";
shapes = (
{
closed = 1;
nodes = (
(165,477,l),
(161,498,l),
(32,460,l),
(35,447,l)
);
}
);
visible = 1;
width = 200;
}
);
unicode = 1617;
}
{
glyphname = "sukun-ar";
layers = (
{
anchors = (
{
name = _top;
pos = (100,400);
}
);
layerId = "67aa4fb0-543e-4232-8202-ade6a11e0795";
shapes = (
{
closed = 1;
nodes = (
(119,447,o),
(135,463,o),
(135,482,cs),
(135,501,o),
(119,517,o),
(100,517,cs),
(81,517,o),
(65,501,o),
(65,482,cs),
(65,463,o),
(81,447,o),
(100,447,cs)
);
},
{
closed = 1;
nodes = (
(92,467,o),
(85,474,o),
(85,482,cs),
(85,490,o),
(92,497,o),
(100,497,cs),
(108,497,o),
(115,490,o),
(115,482,cs),
(115,474,o),
(108,467,o),
(100,467,cs)
);
}
);
width = 200;
}
);
unicode = 1618;
}
{
glyphname = "madda-ar";
layers = (
{
anchors = (
{
name = _top;
pos = (90,412);
}
);
layerId = "67aa4fb0-543e-4232-8202-ade6a11e0795";
shapes = (
{
closed = 1;
nodes = (
(39,449,l),
(63,439,o),
(88,434,o),
(113,434,cs),
(156,434,o),
(196,449,o),
(219,481,c),
(217,486,l),
(175,459,o),
(99,458,o),
(57,486,c),
(12,439,l),
(19,432,l)
);
}
);
width = 200;
},
{
anchors = (
{
name = _top;
pos = (100,400);
}
);
associatedMasterId = "67aa4fb0-543e-4232-8202-ade6a11e0795";
layerId = "31AD07B2-A006-4265-9B36-494F6446266C";
name = "17 Jun 25 at 21:16";
shapes = (
{
closed = 1;
nodes = (
(165,480,l),
(161,501,l),
(35,463,l),
(38,450,l)
);
}
);
width = 200;
}
);
unicode = 1619;
}
{
glyphname = "alefbelow-ar";
layers = (
{
anchors = (
{
name = _bottom;
pos = (99,0);
}
);
layerId = "67aa4fb0-543e-4232-8202-ade6a11e0795";
shapes = (
{
closed = 1;
nodes = (
(142,-135,o),
(132,-92,o),
(114,-50,c),
(94,-58,l),
(114,-99,o),
(126,-139,o),
(131,-180,c),
(144,-177,l)
);
}
);
width = 200;
}
);
unicode = 1622;
}
{
glyphname = "zero-ar";
layers = (
{
guides = (
{
pos = (0,70);
},
{
pos = (0,140);
},
{
pos = (0,210);
},
{
pos = (0,280);
},
{
pos = (0,350);
}
);
layerId = "67aa4fb0-543e-4232-8202-ade6a11e0795";
shapes = (
{
closed = 1;
nodes = (
(0,140,l),
(70,140,l),
(70,210,l),
(0,210,l)
);
}
);
width = 110;
}
);
unicode = (1632,1776);
}
{
glyphname = "one-ar";
layers = (
{
guides = (
{
pos = (0,70);
},
{
pos = (0,140);
},
{
pos = (0,210);
},
{
pos = (0,280);
},
{
pos = (0,350);
}
);
layerId = "67aa4fb0-543e-4232-8202-ade6a11e0795";
shapes = (
{
closed = 1;
nodes = (
(70,0,l),
(70,350,l),
(0,350,l),
(0,0,l)
);
}
);
width = 110;
}
);
metricWidth = "=zero-ar";
unicode = (1633,1777,49);
}
{
glyphname = "two-ar";
layers = (
{
guides = (
{
pos = (0,70);
},
{
pos = (0,140);
},
{
pos = (0,210);
},
{
pos = (0,280);
},
{
pos = (0,350);
},
{
angle = 90;
pos = (140,450);
},
{
angle = 90;
pos = (70,450);
},
{
angle = 90;
pos = (210,450);
}
);
layerId = "67aa4fb0-543e-4232-8202-ade6a11e0795";
shapes = (
{
closed = 1;
nodes = (
(70,0,l),
(70,189,l),
(210,189,l),
(210,350,l),
(140,350,l),
(140,259,l),
(70,259,l),
(70,350,l),
(0,350,l),
(0,0,l)
);
}
);
width = 250;
}
);
unicode = (1634,1778);
}
{
glyphname = "nine-ar";
layers = (
{
guides = (
{
pos = (0,70);
},
{
pos = (0,140);
},
{
pos = (0,210);
},
{
pos = (0,280);
},
{
pos = (0,350);
},
{
angle = 90;
pos = (140,450);
},
{
angle = 90;
pos = (70,450);
},
{
angle = 90;
pos = (210,450);
}
);
layerId = "67aa4fb0-543e-4232-8202-ade6a11e0795";
shapes = (
{
closed = 1;
nodes = (
(210,0,l),
(210,350,l),
(0,350,l),
(0,140,l),
(140,140,l),
(140,0,l)
);
},
{
closed = 1;
nodes = (
(70,280,l),
(140,280,l),
(140,210,l),
(70,210,l)
);
}
);
width = 250;
}
);
unicode = (1641,1785);
}
{
glyphname = "alefabove-ar";
layers = (
{
anchors = (
{
name = _top;
pos = (120,400);
}
);
layerId = "67aa4fb0-543e-4232-8202-ade6a11e0795";
shapes = (
{
closed = 1;
nodes = (
(123,496,o),
(113,539,o),
(95,581,c),
(75,573,l),
(95,532,o),
(107,492,o),
(112,451,c),
(125,454,l)
);
}
);
width = 200;
}
);
unicode = 1648;
}
{
glyphname = "fehDotless-ar";
layers = (
{
associatedMasterId = "67aa4fb0-543e-4232-8202-ade6a11e0795";
layerId = "abf4b10a-26e5-432c-8593-bf37389dfdfd";
name = Regular.1;
shapes = (
{
closed = 1;
nodes = (
(440.003,211.038,o),
(448.964,220,o),
(460.003,220,cs),
(471.041,220,o),
(480.003,211.038,o),
(480.003,200,cs),
(480.003,188.962,o),
(471.041,180,o),
(460.003,180,cs),
(448.964,180,o),
(440.003,188.962,o),
(440.003,200,cs)
);
},
{
closed = 1;
nodes = (
(359.981,150.328,o),
(404.789,110,o),
(459.981,110,cs),
(515.172,110,o),
(559.981,150.328,o),
(559.981,200,cs),
(559.981,249.672,o),
(515.172,290,o),
(459.981,290,cs),
(404.789,290,o),
(359.981,249.672,o),
(359.981,200,cs)
);
},
{
closed = 1;
nodes = (
(480,210,l),
(480,155.4,o),
(480,124.6,o),
(480,70,c),
(100,70,l),
(79.847,70.357,o),
(63.184,75.474,o),
(52,90,c),
(0,0,l),
(539,0,ls),
(545,0,o),
(560,0,o),
(560,11,cs),
(560,84.71,o),
(560,126.29,o),
(560,200,c)
);
},
{
alignment = -1;
ref = "fehDotless-ar.init";
}
);
width = 600;
},
{
anchors = (
{
name = bottom;
pos = (487,-35);
},
{
name = top;
pos = (460,335);
}
);
layerId = "67aa4fb0-543e-4232-8202-ade6a11e0795";
shapes = (
{
closed = 1;
nodes = (
(536,0,ls),
(560,0,o),
(573,37,o),
(573,102,cs),
(573,179,o),
(554,290,o),
(461,290,cs),
(405,290,o),
(360,250,o),
(360,200,cs),
(360,150,o),
(405,110,o),
(460,110,cs),
(470,110,o),
(480,111,o),
(490,114,c),
(492,107,o),
(492,99,o),
(492,92,cs),
(492,85,o),
(492,77,o),
(490,70,c),
(100,70,ls),
(78,70,o),
(62,77,o),
(52,90,c),
(0,0,l)
);
},
{
closed = 1;
nodes = (
(449,180,o),
(440,189,o),
(440,200,cs),
(440,211,o),
(449,220,o),
(460,220,cs),
(471,220,o),
(480,211,o),
(480,200,cs),
(480,189,o),
(471,180,o),
(460,180,cs)
);
}
);
width = 613;
}
);
unicode = 1697;
}
{
glyphname = endash;
layers = (
{
layerId = "67aa4fb0-543e-4232-8202-ade6a11e0795";
paths = (
{
closed = 1;
nodes = (
"260 140 LINE",
"260 180 LINE",
"0 180 LINE",
"0 140 LINE"
);
}
);
width = 300;
}
);
unicode = 2013;
}
{
glyphname = fraction;
layers = (
{
layerId = "67aa4fb0-543e-4232-8202-ade6a11e0795";
paths = (
{
closed = 1;
nodes = (
"194 540 LINE",
"159 560 LINE",
"-153 20 LINE",
"-118 0 LINE"
);
}
);
width = 80;
}
);
unicode = 2044;
}
{
glyphname = emdash;
layers = (
{
layerId = "67aa4fb0-543e-4232-8202-ade6a11e0795";
shapes = (
{
closed = 1;
nodes = (
(520,140,l),
(520,180,l),
(0,180,l),
(0,140,l)
);
}
);
width = 560;
}
);
unicode = 8212;
}
{
glyphname = guilsinglright;
layers = (
{
layerId = "67aa4fb0-543e-4232-8202-ade6a11e0795";
shapes = (
{
closed = 1;
nodes = (
(97,46,o),
(110,172,o),
(28,259,c),
(0,203,l),
(63,144,o),
(57,54,o),
(0,0,c)
);
}
);
width = 122;
},
{
associatedMasterId = "67aa4fb0-543e-4232-8202-ade6a11e0795";
layerId = "2E3079AD-673B-4FE8-8AB4-C3BD487E2D9C";
name = "Dec 12 20, 13:05";
shapes = (
{
closed = 1;
nodes = (
(154,78,o),
(154,334,o),
(45,560,c),
(0,469,l),
(93,295,o),
(96,65,o),
(0,-100,c)
);
}
);
width = 162;
}
);
unicode = 8250;
}
{
glyphname = _ainHead;
layers = (
{
anchors = (
{
name = top;
position = "{145, 230}";
}
);
layerId = "67aa4fb0-543e-4232-8202-ade6a11e0795";
paths = (
{
closed = 1;
nodes = (
"249 0 LINE",
"290 70 LINE",
"163 70 LINE SMOOTH",
"142 70 OFFCURVE",
"130 87 OFFCURVE",
"130 106 CURVE SMOOTH",
"130 127 OFFCURVE",
"146 150 OFFCURVE",
"183 150 CURVE SMOOTH",
"196 150 OFFCURVE",
"212 147 OFFCURVE",
"230 140 CURVE",
"216 185 OFFCURVE",
"181 210 OFFCURVE",
"146 210 CURVE SMOOTH",
"28 210 OFFCURVE",
"14 26 OFFCURVE",
"130 0 CURVE"
);
}
);
width = 330;
}
);
}
{
export = 0;
glyphname = _alef;
layers = (
{
layerId = "67aa4fb0-543e-4232-8202-ade6a11e0795";
paths = (
{
closed = 1;
nodes = (
"80 560 LINE",
"0 540 LINE",
"0 130 LINE",
"80 130 LINE"
);
}
);
width = 80;
}
);
}
{
glyphname = _alefTail.1;
layers = (
{
layerId = "67aa4fb0-543e-4232-8202-ade6a11e0795";
paths = (
{
closed = 1;
nodes = (
"80 150 LINE",
"0 150 LINE",
"0 140 LINE",
"0 44.849 OFFCURVE",
"75.822 0.245 OFFCURVE",
"157.661 0.245 CURVE SMOOTH",
"217.736 0.245 OFFCURVE",
"281.054 24.281 OFFCURVE",
"320 70 CURVE",
"292.196 58.314 OFFCURVE",
"247.829 48.414 OFFCURVE",
"204.762 48.414 CURVE SMOOTH",
"140.954 48.414 OFFCURVE",
"80 70.146 OFFCURVE",
"80 140 CURVE"
);
}
);
width = 360;
}
);
}
{
glyphname = _alefTail.2;
layers = (
{
layerId = "67aa4fb0-543e-4232-8202-ade6a11e0795";
paths = (
{
closed = 1;
nodes = (
"80 150 LINE",
"0 150 LINE",
"0 80 LINE",
"0 29.996 OFFCURVE",
"36.512 0.277 OFFCURVE",
"77.298 0.277 CURVE SMOOTH",
"106.659 0.277 OFFCURVE",
"138.235 15.678 OFFCURVE",
"160 50 CURVE",
"150.544 45.761 OFFCURVE",
"138.749 43.33 OFFCURVE",
"127.146 43.33 CURVE SMOOTH",
"103.164 43.33 OFFCURVE",
"80 53.717 OFFCURVE",
"80 80 CURVE"
);
}
);
width = 200;
}
);
}
{
glyphname = _alefTail.3;
layers = (
{
layerId = "67aa4fb0-543e-4232-8202-ade6a11e0795";
paths = (
{
closed = 1;
nodes = (
"80 150 LINE",
"0 150 LINE",
"0 100 LINE",
"0 34.354 OFFCURVE",
"51.765 0.186 OFFCURVE",
"113.096 0.186 CURVE SMOOTH",
"155.47 0.186 OFFCURVE",
"202.409 16.495 OFFCURVE",
"240 50 CURVE",
"216.041 42.014 OFFCURVE",
"189.428 37.162 OFFCURVE",
"164.895 37.162 CURVE SMOOTH",
"118.775 37.162 OFFCURVE",
"80 54.307 OFFCURVE",
"80 100 CURVE"
);
}
);
width = 280;
}
);
}
{
glyphname = _alefTail.4;
layers = (
{
layerId = "67aa4fb0-543e-4232-8202-ade6a11e0795";
paths = (
{
closed = 1;
nodes = (
"-30 10 OFFCURVE",
"-10 0 OFFCURVE",
"12 0 CURVE SMOOTH",
"50 0 OFFCURVE",
"80 30 OFFCURVE",
"80 80 CURVE SMOOTH",
"80 150 LINE",
"0 150 LINE",
"0 70 LINE SMOOTH",
"0 40 OFFCURVE",
"-13 20 OFFCURVE",
"-40 20 CURVE"
);
}
);
width = 120;
}
);
}
{
export = 0;
glyphname = _behShort;
layers = (
{
layerId = "67aa4fb0-543e-4232-8202-ade6a11e0795";
paths = (
{
closed = 1;
nodes = (
"59 0 LINE SMOOTH",
"65 0 OFFCURVE",
"80 0 OFFCURVE",
"80 11 CURVE SMOOTH",
"80 210 LINE",
"0 190 LINE",
"0 70 LINE",
"-20 70 LINE",
"-20 0 LINE"
);
}
);
width = 80;
}
);
}
{
glyphname = _bowelShort;
layers = (
{
layerId = "67aa4fb0-543e-4232-8202-ade6a11e0795";
paths = (
{
closed = 1;
nodes = (
"192 -250 LINE SMOOTH",
"215 -250 OFFCURVE",
"230 -235 OFFCURVE",
"230 -210 CURVE SMOOTH",
"230 60 LINE",
"150 60 LINE",
"150 -180 LINE",
"50 -180 LINE",
"29.847 -180 OFFCURVE",
"13.184 -174.526 OFFCURVE",
"2 -160 CURVE",
"-50 -250 LINE"
);
}
);
width = 230;
}
);
}
{
glyphname = _dalZuluf;
layers = (
{
layerId = "67aa4fb0-543e-4232-8202-ade6a11e0795";
paths = (
{
closed = 1;
nodes = (
"146 180 LINE",
"120 180 LINE",
"147 250 LINE",
"144.4 250 LINE",
"63.5 110 LINE",
"146 110 LINE"
);
}
);
width = 147;
}
);
}
{
glyphname = _elbow.2;
layers = (
{
layerId = "67aa4fb0-543e-4232-8202-ade6a11e0795";
paths = (
{
closed = 1;
nodes = (
"80 150 LINE",
"0 150 LINE",
"0 40 LINE",
"0 15 OFFCURVE",
"15 0 OFFCURVE",
"38 0 CURVE",
"120 0 LINE",
"120 70 LINE",
"90 70 LINE",
"83 70 OFFCURVE",
"80 73 OFFCURVE",
"80 80 CURVE"
);
}
);
width = 120;
}
);
}
{
export = 0;
glyphname = _elbow;
layers = (
{
layerId = "67aa4fb0-543e-4232-8202-ade6a11e0795";
paths = (
{
closed = 1;
nodes = (
"80 0 LINE",
"80 70 LINE",
"58 70 OFFCURVE",
"40 88 OFFCURVE",
"40 110 CURVE",
"0 110 LINE",
"0 0 LINE"
);
}
);
width = 80;
}
);
}
{
glyphname = _hahHead.1;
layers = (
{
anchors = (
{
name = bottom;
position = "{56, -35}";
},
{
name = top;
position = "{36, 305}";
}
);
layerId = "67aa4fb0-543e-4232-8202-ade6a11e0795";
paths = (
{
closed = 1;
nodes = (
"251 -103 LINE",
"59 230 LINE",
"0 173 LINE",
"192 -160 LINE"
);
},
{
closed = 1;
nodes = (
"251 0 LINE",
"251 70 LINE",
"30 70 LINE",
"30 0 LINE"
);
}
);
width = 191;
}
);
}
{
glyphname = _hahHead;
layers = (
{
anchors = (
{
name = bottom;
position = "{110, -34}";
},
{
name = top;
position = "{269, 163}";
}
);
layerId = "67aa4fb0-543e-4232-8202-ade6a11e0795";
paths = (
{
closed = 1;
nodes = (
"223 50 LINE",
"223 70 LINE",
"165 70 OFFCURVE",
"104 135 OFFCURVE",
"43 210 CURVE",
"0 140 LINE",
"19 112 OFFCURVE",
"47 83 OFFCURVE",
"62 70 CURVE",
"62 50 LINE"
);
},
{
closed = 1;
nodes = (
"319 0 LINE",
"360 70 LINE",
"62 70 LINE",
"62 0 LINE"
);
}
);
width = 400;
}
);
}
{
glyphname = _hextender;
layers = (
{
layerId = "67aa4fb0-543e-4232-8202-ade6a11e0795";
paths = (
{
closed = 1;
nodes = (
"49 0 LINE",
"90 70 LINE",
"41 70 LINE",
"0 0 LINE"
);
}
);
width = 90;
}
);
}
{
glyphname = _kaf;
layers = (
{
layerId = "67aa4fb0-543e-4232-8202-ade6a11e0795";
paths = (
{
closed = 1;
nodes = (
"91.321 126.053 LINE",
"153.815 209.554 OFFCURVE",
"189.211 315.576 OFFCURVE",
"189.211 443.119 CURVE SMOOTH",
"189.211 480.263 OFFCURVE",
"186.209 519.231 OFFCURVE",
"180 560 CURVE",
"100 480 LINE",
"106.84 439.661 OFFCURVE",
"110.571 397.695 OFFCURVE",
"110.571 355.374 CURVE SMOOTH",
"110.571 271.705 OFFCURVE",
"95.987 186.643 OFFCURVE",
"62 110 CURVE"
);
},
{
closed = 1;
nodes = (
"175 180 LINE",
"103 180 LINE",
"62 110 LINE",
"176 110 LINE"
);
}
);
width = 189;
}
);
}
{
glyphname = .notdef;
layers = (
{
layerId = "67aa4fb0-543e-4232-8202-ade6a11e0795";
paths = (
{
closed = 1;
nodes = (
"290 0 LINE",
"290 450 LINE",
"40 450 LINE",
"40 0 LINE"
);
},
{
closed = 1;
nodes = (
"164 172 LINE",
"221 40 LINE",
"106 40 LINE"
);
},
{
closed = 1;
nodes = (
"80 364 LINE",
"142 222 LINE",
"80 81 LINE"
);
},
{
closed = 1;
nodes = (
"185 222 LINE",
"250 371 LINE",
"250 74 LINE"
);
},
{
closed = 1;
nodes = (
"104 410 LINE",
"223 410 LINE",
"164 273 LINE"
);
}
);
width = 330;
}
);
}
{
glyphname = _p;
layers = (
{
layerId = "67aa4fb0-543e-4232-8202-ade6a11e0795";
paths = (
{
closed = 1;
nodes = (
"0 -110 LINE",
"0 -250 LINE",
"80 -230 LINE",
"80 -110 LINE"
);
}
);
width = 240;
}
);
}
{
export = 0;
glyphname = _sad;
layers = (
{
anchors = (
{
name = top;
position = "{297, 255}";
}
);
components = (
{
name = _dal;
transform = "{1, 0, 0, 1, 57, 0}";
}
);
layerId = "67aa4fb0-543e-4232-8202-ade6a11e0795";
paths = (
{
closed = 1;
nodes = (
"103 70 LINE",
"0 70 LINE",
"0 0 LINE",
"103 0 LINE"
);
},
{
closed = 1;
nodes = (
"193 180 LINE",
"0 180 LINE",
"0 110 LINE",
"193 110 LINE"
);
}
);
width = 617;
}
);
}
{
export = 0;
glyphname = _tail;
layers = (
{
anchors = (
{
name = _top;
position = "{97, 365}";
}
);
layerId = "67aa4fb0-543e-4232-8202-ade6a11e0795";
paths = (
{
closed = 1;
nodes = (
"180 0 LINE",
"180 70 LINE",
"100 70 LINE SMOOTH",
"78 70 OFFCURVE",
"62 77 OFFCURVE",
"52 90 CURVE",
"0 0 LINE"
);
}
);
width = 180;
}
);
}
{
export = 0;
glyphname = _tail1;
layers = (
{
anchors = (
{
name = bottom;
position = "{129, -135}";
}
);
guideLines = (
{
position = "{-33, 155}";
},
{
position = "{-33, -110}";
},
{
position = "{-33, 70}";
},
{
position = "{-33, -110}";
},
{
angle = 90;
position = "{355, 132}";
}
);
layerId = "67aa4fb0-543e-4232-8202-ade6a11e0795";
paths = (
{
closed = 1;
nodes = (
"159 -40 LINE",
"127 -40 OFFCURVE",
"105 -37 OFFCURVE",
"82 -14 CURVE SMOOTH",
"51 17 LINE SMOOTH",
"34 34 OFFCURVE",
"43 81 OFFCURVE",
"57 67 CURVE SMOOTH",
"109 15 LINE SMOOTH",
"119 5 OFFCURVE",
"128 0 OFFCURVE",
"140 0 CURVE SMOOTH",
"207 0 LINE",
"207 70 LINE",
"176 70 LINE",
"167 70 OFFCURVE",
"162 75 OFFCURVE",
"158 79 CURVE SMOOTH",
"94 143 LINE SMOOTH",
"44 193 OFFCURVE",
"0 44 OFFCURVE",
"0 -5 CURVE SMOOTH",
"0 -92 OFFCURVE",
"60 -110 OFFCURVE",
"137 -110 CURVE"
);
},
{
closed = 1;
nodes = (
"176 -110 LINE SMOOTH",
"207 -110 OFFCURVE",
"308 -63 OFFCURVE",
"362 -40 CURVE",
"141 -40 LINE",
"131 -110 LINE"
);
}
);
width = 207;
},
{
anchors = (
{
name = bottom;
position = "{322, -135}";
},
{
name = top;
position = "{90, 198}";
}
);
associatedMasterId = "67aa4fb0-543e-4232-8202-ade6a11e0795";
guideLines = (
{
position = "{0, 155}";
},
{
position = "{0, -110}";
},
{
position = "{0, 70}";
},
{
position = "{0, -110}";
},
{
angle = 90;
position = "{388, 132}";
}
);
layerId = "93EC7BB6-EB3B-4966-8C50-56D3E1F433A2";
name = "Mar 9 20, 20:16";
paths = (
{
closed = 1;
nodes = (
"192 -40 LINE",
"160 -40 OFFCURVE",
"138 -37 OFFCURVE",
"115 -14 CURVE SMOOTH",
"84 17 LINE SMOOTH",
"67 34 OFFCURVE",
"76 81 OFFCURVE",
"90 67 CURVE SMOOTH",
"142 15 LINE SMOOTH",
"152 5 OFFCURVE",
"161 0 OFFCURVE",
"173 0 CURVE SMOOTH",
"240 0 LINE",
"240 70 LINE",
"209 70 LINE",
"200 70 OFFCURVE",
"195 75 OFFCURVE",
"191 79 CURVE SMOOTH",
"127 143 LINE SMOOTH",
"77 193 OFFCURVE",
"33 44 OFFCURVE",
"33 -5 CURVE SMOOTH",
"33 -92 OFFCURVE",
"93 -110 OFFCURVE",
"170 -110 CURVE"
);
},
{
closed = 1;
nodes = (
"232 -110 LINE",
"286 -87 OFFCURVE",
"341 -63 OFFCURVE",
"395 -40 CURVE",
"174 -40 LINE",
"164 -110 LINE"
);
}
);
visible = 1;
width = 240;
}
);
leftKerningGroup = yeh;
}
{
export = 0;
glyphname = _tail2;
layers = (
{
anchors = (
{
name = _bottom;
position = "{170, -70}";
}
);
layerId = "67aa4fb0-543e-4232-8202-ade6a11e0795";
paths = (
{
closed = 1;
nodes = (
"495 -110 LINE",
"536 -40 LINE",
"100 -40 LINE SMOOTH",
"89 -40 OFFCURVE",
"80 -31 OFFCURVE",
"80 -20 CURVE SMOOTH",
"80 -9 OFFCURVE",
"89 0 OFFCURVE",
"100 0 CURVE SMOOTH",
"239.5 0 LINE",
"239.5 70 LINE",
"90 70 LINE SMOOTH",
"40 70 OFFCURVE",
"0 30 OFFCURVE",
"0 -20 CURVE SMOOTH",
"0 -70 OFFCURVE",
"40 -110 OFFCURVE",
"90 -110 CURVE SMOOTH"
);
}
);
width = 640;
}
);
}
{
glyphname = _tail3;
layers = (
{
layerId = "67aa4fb0-543e-4232-8202-ade6a11e0795";
paths = (
{
closed = 1;
nodes = (
"242 -250 OFFCURVE",
"288 -242 OFFCURVE",
"364 -207 CURVE SMOOTH",
"315 -215 OFFCURVE",
"280 -219 OFFCURVE",
"254 -219 CURVE SMOOTH",
"171 -219 OFFCURVE",
"80 -183 OFFCURVE",
"80 -93 CURVE SMOOTH",
"80 -26 OFFCURVE",
"130 0 OFFCURVE",
"170 0 CURVE",
"155 70 LINE",
"150 70 LINE",
"54 70 OFFCURVE",
"0 -8 OFFCURVE",
"0 -90 CURVE SMOOTH",
"0 -194 OFFCURVE",
"86 -250 OFFCURVE",
"199 -250 CURVE SMOOTH"
);
}
);
width = 304;
}
);
}
{
export = 0;
glyphname = _vextender;
layers = (
{
layerId = "67aa4fb0-543e-4232-8202-ade6a11e0795";
paths = (
{
closed = 1;
nodes = (
"80 20 LINE",
"80 70 LINE",
"0 50 LINE",
"0 0 LINE"
);
}
);
width = 80;
}
);
}
{
glyphname = a;
layers = (
{
components = (
{
name = "heh-ar";
}
);
layerId = "67aa4fb0-543e-4232-8202-ade6a11e0795";
paths = (
{
closed = 1;
nodes = (
"200 0 LINE",
"200 150 LINE",
"120 150 LINE",
"120 0 LINE"
);
}
);
width = 240;
}
);
unicode = "0061,0041";
}
{
glyphname = "ain-ar.1";
layers = (
{
associatedMasterId = "67aa4fb0-543e-4232-8202-ade6a11e0795";
layerId = "abf4b10a-26e5-432c-8593-bf37389dfdfd";
name = Regular.1;
shapes = (
{
closed = 1;
nodes = (
(90,70,ls),
(40,70,o),
(0,30,o),
(0,-20,cs),
(0,-70,o),
(40,-110,o),
(90,-110,cs),
(535,-110,l),
(576,-40,l),
(100,-40,ls),
(89,-40,o),
(80,-31,o),
(80,-20,cs),
(80,-9,o),
(89,0,o),
(100,0,cs),
(240,0,l),
(240,70,l)
);
},
{
closed = 1;
nodes = (
(640,70,l),
(220,70,l),
(220,0,l),
(599,0,l)
);
},
{
closed = 1;
nodes = (
(376,70,l),
(366,50,l),
(480,50,l),
(480,70,l),
(340,209.841,l),
(296,150,l)
);
},
{
closed = 1;
nodes = (
(640,150,l),
(220,150,l)
);
},
{
closed = 1;
nodes = (
(560,0,l),
(560,270,l)
);
},
{
closed = 1;
nodes = (
(480,0,l),
(480,270,l)
);
},
{
closed = 1;
nodes = (
(400,0,l),
(400,270,l)
);
},
{
closed = 1;
nodes = (
(375.732,69.972,l),
(319.376,126.328,l)
);
},
{
closed = 1;
nodes = (
(319,126,l),
(500,230,l)
);
},
{
alignment = -1;
ref = "ain-ar.init";
}
);
width = 680;
},
{
anchors = (
{
name = bottom;
pos = (129,-135);
},
{
name = top;
pos = (248,230);
}
);
layerId = "67aa4fb0-543e-4232-8202-ade6a11e0795";
shapes = (
{
closed = 1;
nodes = (
(176,-110,ls),
(207,-110,o),
(308,-63,o),
(362,-40,c),
(159,-40,ls),
(127,-40,o),
(104,-36,o),
(82,-14,cs),
(51,17,ls),
(34,34,o),
(44,80,o),
(57,67,cs),
(109,15,ls),
(118,6,o),
(128,0,o),
(140,0,cs),
(448,0,l),
(489,70,l),
(350,70,ls),
(318,70,o),
(265,117,o),
(265,148,cs),
(265,177,o),
(330,215,o),
(350,227,c),
(349,230,l),
(296,204,o),
(203,157,o),
(203,109,cs),
(203,96,o),
(209,83,o),
(225,70,c),
(176,70,ls),
(167,70,o),
(161,76,o),
(158,79,cs),
(94,143,ls),
(44,193,o),
(0,44,o),
(0,-5,cs),
(0,-90,o),
(56,-109,o),
(131,-110,cs)
);
}
);
width = 529;
}
);
}
{
glyphname = "ain-ar.2";
layers = (
{
associatedMasterId = "67aa4fb0-543e-4232-8202-ade6a11e0795";
layerId = "abf4b10a-26e5-432c-8593-bf37389dfdfd";
name = Regular.1;
shapes = (
{
closed = 1;
nodes = (
(90,70,ls),
(40,70,o),
(0,30,o),
(0,-20,cs),
(0,-70,o),
(40,-110,o),
(90,-110,cs),
(535,-110,l),
(576,-40,l),
(100,-40,ls),
(89,-40,o),
(80,-31,o),
(80,-20,cs),
(80,-9,o),
(89,0,o),
(100,0,cs),
(240,0,l),
(240,70,l)
);
},
{
closed = 1;
nodes = (
(640,70,l),
(220,70,l),
(220,0,l),
(599,0,l)
);
},
{
closed = 1;
nodes = (
(376,70,l),
(366,50,l),
(480,50,l),
(480,70,l),
(340,209.841,l),
(296,150,l)
);
},
{
closed = 1;
nodes = (
(640,150,l),
(220,150,l)
);
},
{
closed = 1;
nodes = (
(560,0,l),
(560,270,l)
);
},
{
closed = 1;
nodes = (
(480,0,l),
(480,270,l)
);
},
{
closed = 1;
nodes = (
(400,0,l),
(400,270,l)
);
},
{
closed = 1;
nodes = (
(375.732,69.972,l),
(319.376,126.328,l)
);
},
{
closed = 1;
nodes = (
(319,126,l),
(500,230,l)
);
},
{
alignment = -1;
ref = "ain-ar.init";
}
);
width = 680;
},
{
anchors = (
{
name = top;
pos = (145,230);
}
);
layerId = "67aa4fb0-543e-4232-8202-ade6a11e0795";
shapes = (
{
closed = 1;
nodes = (
(242,-250,o),
(288,-242,o),
(364,-207,c),
(315,-215,o),
(280,-219,o),
(254,-219,cs),
(171,-219,o),
(80,-183,o),
(80,-93,cs),
(80,-26,o),
(130,0,o),
(170,0,cs),
(249,0,l),
(290,70,l),
(150,70,ls),
(54,70,o),
(0,-8,o),
(0,-90,cs),
(0,-194,o),
(86,-250,o),
(199,-250,cs)
);
},
{
closed = 1;
nodes = (
(163,70,l),
(142,70,o),
(130,87,o),
(130,106,cs),
(130,127,o),
(146,150,o),
(183,150,cs),
(196,150,o),
(212,147,o),
(230,140,c),
(216,185,o),
(181,210,o),
(146,210,cs),
(36,210,o),
(16,49,o),
(109,7,c)
);
}
);
width = 330;
}
);
}
{
glyphname = "ain-ar.3";
layers = (
{
associatedMasterId = "67aa4fb0-543e-4232-8202-ade6a11e0795";
components = (
{
alignment = -1;
name = "ain-ar.init";
}
);
layerId = "abf4b10a-26e5-432c-8593-bf37389dfdfd";
name = Regular.1;
paths = (
{
closed = 1;
nodes = (
"90 70 LINE SMOOTH",
"40 70 OFFCURVE",
"0 30 OFFCURVE",
"0 -20 CURVE SMOOTH",
"0 -70 OFFCURVE",
"40 -110 OFFCURVE",
"90 -110 CURVE SMOOTH",
"535 -110 LINE",
"576 -40 LINE",
"100 -40 LINE SMOOTH",
"89 -40 OFFCURVE",
"80 -31 OFFCURVE",
"80 -20 CURVE SMOOTH",
"80 -9 OFFCURVE",
"89 0 OFFCURVE",
"100 0 CURVE SMOOTH",
"240 0 LINE",
"240 70 LINE"
);
},
{
closed = 1;
nodes = (
"640 70 LINE",
"220 70 LINE",
"220 0 LINE",
"599 0 LINE"
);
},
{
closed = 1;
nodes = (
"376 70 LINE",
"366 50 LINE",
"480 50 LINE",
"480 70 LINE",
"340 209.841 LINE",
"296 150 LINE"
);
},
{
closed = 1;
nodes = (
"640 150 LINE",
"220 150 LINE"
);
},
{
closed = 1;
nodes = (
"560 0 LINE",
"560 270 LINE"
);
},
{
closed = 1;
nodes = (
"480 0 LINE",
"480 270 LINE"
);
},
{
closed = 1;
nodes = (
"400 0 LINE",
"400 270 LINE"
);
},
{
closed = 1;
nodes = (
"375.732 69.972 LINE",
"319.376 126.328 LINE"
);
},
{
closed = 1;
nodes = (
"319 126 LINE",
"500 230 LINE"
);
}
);
width = 680;
},
{
anchors = (
{
name = top;
position = "{145, 230}";
}
);
components = (
{
name = _tail3;
}
);
layerId = "67aa4fb0-543e-4232-8202-ade6a11e0795";
paths = (
{
closed = 1;
nodes = (
"249 0 LINE",
"290 70 LINE",
"163 70 LINE SMOOTH",
"142 70 OFFCURVE",
"130 87 OFFCURVE",
"130 106 CURVE SMOOTH",
"130 127 OFFCURVE",
"146 150 OFFCURVE",
"183 150 CURVE SMOOTH",
"196 150 OFFCURVE",
"212 147 OFFCURVE",
"230 140 CURVE",
"216 185 OFFCURVE",
"181 210 OFFCURVE",
"146 210 CURVE SMOOTH",
"28 210 OFFCURVE",
"14 26 OFFCURVE",
"130 0 CURVE"
);
}
);
width = 330;
}
);
}
{
glyphname = "ain-ar.fina";
layers = (
{
anchors = (
{
name = top;
pos = (143,305);
}
);
layerId = "67aa4fb0-543e-4232-8202-ade6a11e0795";
shapes = (
{
closed = 1;
nodes = (
(242,-250,o),
(288,-242,o),
(364,-207,c),
(315,-215,o),
(280,-219,o),
(254,-219,cs),
(171,-219,o),
(80,-183,o),
(80,-93,cs),
(80,-26,o),
(130,0,o),
(170,0,cs),
(304,0,l),
(304,70,l),
(150,70,ls),
(54,70,o),
(0,-8,o),
(0,-90,cs),
(0,-194,o),
(86,-250,o),
(199,-250,cs)
);
},
{
closed = 1;
nodes = (
(271,30,l),
(287,47,l),
(104,230,l),
(62,159,l),
(191,30,l)
);
},
{
closed = 1;
nodes = (
(264,11,l),
(264,270,l),
(184,250,l),
(184,11,l)
);
}
);
width = 304;
}
);
}
{
glyphname = "ain-ar.init.1";
layers = (
{
anchors = (
{
name = exit;
position = "{0, 0}";
}
);
components = (
{
alignment = -1;
name = "kashida-ar";
},
{
alignment = -1;
name = _ainHead;
transform = "{1, 0, 0, 1, -50, 0}";
}
);
layerId = "67aa4fb0-543e-4232-8202-ade6a11e0795";
width = 280;
},
{
anchors = (
{
name = top;
position = "{49, 230}";
}
);
associatedMasterId = "67aa4fb0-543e-4232-8202-ade6a11e0795";
guideLines = (
{
position = "{366, 210}";
},
{
angle = 90;
position = "{290, 210}";
},
{
position = "{367, 140}";
},
{
angle = 90;
position = "{210, 210}";
},
{
angle = 90;
position = "{130, 210}";
},
{
angle = 90;
position = "{50, 210}";
},
{
angle = 90;
position = "{230, 210}";
}
);
layerId = "F7344B96-69D7-4772-B92B-16315C87848D";
name = "Mar 9 20, 21:39";
paths = (
{
closed = 1;
nodes = (
"249 0 LINE",
"290 70 LINE",
"163 70 LINE SMOOTH",
"108 70 OFFCURVE",
"118 195 OFFCURVE",
"230 140 CURVE",
"90 295 OFFCURVE",
"-37 37 OFFCURVE",
"130 0 CURVE"
);
}
);
width = 330;
}
);
}
{
glyphname = "ain-ar.init";
layers = (
{
anchors = (
{
name = exit;
position = "{0, 0}";
},
{
name = top;
position = "{49, 230}";
}
);
layerId = "67aa4fb0-543e-4232-8202-ade6a11e0795";
paths = (
{
closed = 1;
nodes = (
"249 0 LINE",
"290 70 LINE",
"151 70 LINE SMOOTH",
"119 70 OFFCURVE",
"66 117 OFFCURVE",
"66 148 CURVE SMOOTH",
"66 177 OFFCURVE",
"131 215 OFFCURVE",
"151 227 CURVE",
"150 230 LINE",
"97 204 OFFCURVE",
"4 157 OFFCURVE",
"4 109 CURVE SMOOTH",
"4 96 OFFCURVE",
"10 83 OFFCURVE",
"26 70 CURVE",
"-20 70 LINE",
"-20 0 LINE"
);
}
);
width = 330;
},
{
anchors = (
{
name = top;
position = "{135, 305}";
}
);
associatedMasterId = "67aa4fb0-543e-4232-8202-ade6a11e0795";
layerId = "CF9F8CC6-D0D9-41C9-A8B8-9A53E322F711";
name = "Mar 9 20, 16:04";
paths = (
{
closed = 1;
nodes = (
"249 0 LINE",
"290 70 LINE",
"130 70 LINE SMOOTH",
"83 103 OFFCURVE",
"66 128 OFFCURVE",
"66 148 CURVE SMOOTH",
"66 187 OFFCURVE",
"131 218 OFFCURVE",
"151 227 CURVE",
"150 230 LINE",
"97 204 OFFCURVE",
"4 157 OFFCURVE",
"4 109 CURVE SMOOTH",
"4 96 OFFCURVE",
"10 83 OFFCURVE",
"26 70 CURVE",
"-20 70 LINE",
"-20 0 LINE"
);
}
);
visible = 1;
width = 330;
}
);
}
{
glyphname = "ain-ar.medi";
layers = (
{
anchors = (
{
name = entry;
position = "{242, 0}";
},
{
name = exit;
position = "{0, 0}";
},
{
name = top;
position = "{81, 305}";
}
);
layerId = "67aa4fb0-543e-4232-8202-ade6a11e0795";
paths = (
{
closed = 1;
nodes = (
"209.005 30.007 LINE",
"225.567 46.569 LINE",
"42.426 229.709 LINE",
"0 158.999 LINE",
"128.991 30.007 LINE"
);
},
{
closed = 1;
nodes = (
"242 0 LINE",
"242 70 LINE",
"-20 70 LINE",
"-20 0 LINE"
);
},
{
closed = 1;
nodes = (
"202 11 LINE",
"202 270 LINE",
"122 250 LINE",
"122 11 LINE"
);
}
);
width = 242;
}
);
}
{
glyphname = "alef-ar.1";
layers = (
{
anchors = (
{
name = bottom;
position = "{70, -20}";
},
{
name = top;
position = "{173, 474}";
}
);
layerId = "67aa4fb0-543e-4232-8202-ade6a11e0795";
paths = (
{
closed = 1;
nodes = (
"107 0 OFFCURVE",
"138 15 OFFCURVE",
"160 50 CURVE",
"151 46 OFFCURVE",
"139 43 OFFCURVE",
"127 43 CURVE SMOOTH",
"103 43 OFFCURVE",
"80 54 OFFCURVE",
"80 80 CURVE SMOOTH",
"80 560 LINE",
"0 540 LINE",
"0 80 LINE SMOOTH",
"0 31 OFFCURVE",
"37 0 OFFCURVE",
"77 0 CURVE SMOOTH"
);
}
);
width = 200;
}
);
}
{
glyphname = "alef-ar.2";
layers = (
{
anchors = (
{
name = bottom;
pos = (70,-20);
},
{
name = top;
pos = (173,474);
}
);
layerId = "67aa4fb0-543e-4232-8202-ade6a11e0795";
shapes = (
{
closed = 1;
nodes = (
(155,0,o),
(203,17,o),
(240,50,c),
(216,42,o),
(189,37,o),
(165,37,cs),
(119,37,o),
(80,54,o),
(80,100,cs),
(80,560,l),
(0,540,l),
(0,100,ls),
(0,34,o),
(53,0,o),
(113,0,cs)
);
}
);
width = 280;
}
);
}
{
glyphname = "alef-ar.3";
layers = (
{
anchors = (
{
name = bottom;
position = "{22, -20}";
},
{
name = top;
position = "{42, 574}";
}
);
layerId = "67aa4fb0-543e-4232-8202-ade6a11e0795";
paths = (
{
closed = 1;
nodes = (
"50 0 OFFCURVE",
"80 30 OFFCURVE",
"80 80 CURVE SMOOTH",
"80 560 LINE",
"0 540 LINE",
"0 70 LINE SMOOTH",
"0 40 OFFCURVE",
"-13 20 OFFCURVE",
"-40 20 CURVE",
"-30 10 OFFCURVE",
"-10 0 OFFCURVE",
"12 0 CURVE SMOOTH"
);
}
);
width = 120;
}
);
}
{
glyphname = "alef-ar.fina";
layers = (
{
anchors = (
{
name = bottom;
pos = (44,-20);
},
{
name = top;
pos = (40,569);
}
);
layerId = "67aa4fb0-543e-4232-8202-ade6a11e0795";
shapes = (
{
closed = 1;
nodes = (
(120,0,l),
(120,70,l),
(90,70,ls),
(83,70,o),
(80,73,o),
(80,80,cs),
(80,560,l),
(0,540,l),
(0,40,ls),
(0,15,o),
(15,0,o),
(38,0,cs)
);
}
);
width = 120;
}
);
}
{
glyphname = "alefMaksura-ar.1";
layers = (
{
anchors = (
{
name = bottom;
position = "{87, -280}";
},
{
name = top;
position = "{57, 198}";
}
);
guideLines = (
{
position = "{-33, 155}";
},
{
position = "{-33, -110}";
},
{
position = "{-33, 70}";
}
);
layerId = "67aa4fb0-543e-4232-8202-ade6a11e0795";
paths = (
{
closed = 1;
nodes = (
"169 -250 LINE SMOOTH",
"192 -250 OFFCURVE",
"207 -235 OFFCURVE",
"207 -210 CURVE SMOOTH",
"207 -84 LINE SMOOTH",
"207 -59 OFFCURVE",
"194 -43 OFFCURVE",
"159 -43 CURVE SMOOTH",
"127 -43 OFFCURVE",
"104 -36 OFFCURVE",
"82 -14 CURVE SMOOTH",
"51 17 LINE SMOOTH",
"34 34 OFFCURVE",
"44 80 OFFCURVE",
"57 67 CURVE SMOOTH",
"109 15 LINE SMOOTH",
"118 6 OFFCURVE",
"128 0 OFFCURVE",
"140 0 CURVE SMOOTH",
"156 0 OFFCURVE",
"192 10 OFFCURVE",
"202 90 CURVE",
"199 75 OFFCURVE",
"185 70 OFFCURVE",
"176 70 CURVE SMOOTH",
"167 70 OFFCURVE",
"161 76 OFFCURVE",
"158 79 CURVE SMOOTH",
"94 143 LINE SMOOTH",
"44 193 OFFCURVE",
"0 44 OFFCURVE",
"0 -5 CURVE SMOOTH",
"0 -88 OFFCURVE",
"54 -108 OFFCURVE",
"127 -110 CURVE",
"127 -180 LINE",
"67 -180 LINE SMOOTH",
"47 -180 OFFCURVE",
"30 -175 OFFCURVE",
"19 -160 CURVE",
"-33 -250 LINE"
);
}
);
width = 247;
}
);
}
{
glyphname = "alefMaksura-ar.2";
kernRight = yeh.2;
layers = (
{
anchors = (
{
name = bottom;
pos = (239,-25);
},
{
name = top;
pos = (57,308);
}
);
guides = (
{
pos = (-33,155);
},
{
pos = (-33,-110);
},
{
pos = (-33,70);
}
);
layerId = "67aa4fb0-543e-4232-8202-ade6a11e0795";
shapes = (
{
closed = 1;
nodes = (
(391,0,l),
(432,70,l),
(149,70,ls),
(117,70,o),
(105,73,o),
(82,96,cs),
(51,127,ls),
(35,143,o),
(43,191,o),
(57,177,cs),
(109,125,ls),
(119,115,o),
(128,110,o),
(140,110,cs),
(156,110,o),
(192,120,o),
(202,200,c),
(199,185,o),
(185,180,o),
(176,180,cs),
(167,180,o),
(162,185,o),
(158,189,cs),
(94,253,ls),
(44,303,o),
(0,154,o),
(0,105,cs),
(0,20,o),
(56,1,o),
(131,0,cs)
);
}
);
width = 472;
}
);
}
{
glyphname = "alefMaksura-ar.4";
layers = (
{
anchors = (
{
name = bottom;
position = "{349, -25}";
},
{
name = top;
position = "{57, 308}";
}
);
guideLines = (
{
position = "{-33, 155}";
},
{
position = "{-33, -110}";
},
{
position = "{-33, 70}";
}
);
layerId = "67aa4fb0-543e-4232-8202-ade6a11e0795";
paths = (
{
closed = 1;
nodes = (
"149 70 LINE",
"117 70 OFFCURVE",
"105 73 OFFCURVE",
"82 96 CURVE SMOOTH",
"51 127 LINE SMOOTH",
"34 144 OFFCURVE",
"43 191 OFFCURVE",
"57 177 CURVE SMOOTH",
"109 125 LINE SMOOTH",
"119 115 OFFCURVE",
"128 110 OFFCURVE",
"140 110 CURVE SMOOTH",
"156 110 OFFCURVE",
"192 120 OFFCURVE",
"202 200 CURVE",
"199 185 OFFCURVE",
"185 180 OFFCURVE",
"176 180 CURVE SMOOTH",
"167 180 OFFCURVE",
"162 185 OFFCURVE",
"158 189 CURVE SMOOTH",
"94 253 LINE SMOOTH",
"44 303 OFFCURVE",
"0 154 OFFCURVE",
"0 105 CURVE SMOOTH",
"0 18 OFFCURVE",
"60 0 OFFCURVE",
"137 0 CURVE"
);
},
{
closed = 1;
nodes = (
"691 0 LINE",
"732 70 LINE",
"141 70 LINE",
"131 0 LINE"
);
}
);
width = 772;
}
);
}
{
glyphname = "alefMaksura-ar.5";
layers = (
{
anchors = (
{
name = bottom;
position = "{129, -135}";
},
{
name = top;
position = "{57, 198}";
}
);
guideLines = (
{
position = "{-33, 155}";
},
{
position = "{-33, -110}";
},
{
position = "{-33, 70}";
}
);
layerId = "67aa4fb0-543e-4232-8202-ade6a11e0795";
paths = (
{
closed = 1;
nodes = (
"149 -40 LINE",
"117 -40 OFFCURVE",
"105 -37 OFFCURVE",
"82 -14 CURVE SMOOTH",
"51 17 LINE SMOOTH",
"34 34 OFFCURVE",
"43 81 OFFCURVE",
"57 67 CURVE SMOOTH",
"109 15 LINE SMOOTH",
"119 5 OFFCURVE",
"128 0 OFFCURVE",
"140 0 CURVE SMOOTH",
"156 0 OFFCURVE",
"192 10 OFFCURVE",
"202 90 CURVE",
"199 75 OFFCURVE",
"185 70 OFFCURVE",
"176 70 CURVE SMOOTH",
"167 70 OFFCURVE",
"162 75 OFFCURVE",
"158 79 CURVE SMOOTH",
"94 143 LINE SMOOTH",
"44 193 OFFCURVE",
"0 44 OFFCURVE",
"0 -5 CURVE SMOOTH",
"0 -92 OFFCURVE",
"60 -110 OFFCURVE",
"137 -110 CURVE"
);
},
{
closed = 1;
nodes = (
"176 -110 LINE SMOOTH",
"207 -110 OFFCURVE",
"308 -63 OFFCURVE",
"362 -40 CURVE",
"141 -40 LINE",
"131 -110 LINE"
);
}
);
width = 242;
}
);
}
{
glyphname = "alefMaksura-ar.fina.2";
layers = (
{
anchors = (
{
name = bottom;
position = "{239, -135}";
},
{
name = top;
position = "{57, 198}";
}
);
guideLines = (
{
position = "{-33, 155}";
},
{
position = "{-33, -110}";
},
{
position = "{-33, 70}";
},
{
position = "{-33, -110}";
}
);
layerId = "67aa4fb0-543e-4232-8202-ade6a11e0795";
paths = (
{
closed = 1;
nodes = (
"391 -110 LINE",
"432 -40 LINE",
"159 -40 LINE SMOOTH",
"127 -40 OFFCURVE",
"104 -36 OFFCURVE",
"82 -14 CURVE SMOOTH",
"51 17 LINE SMOOTH",
"34 34 OFFCURVE",
"44 80 OFFCURVE",
"57 67 CURVE SMOOTH",
"109 15 LINE SMOOTH",
"118 6 OFFCURVE",
"128 0 OFFCURVE",
"140 0 CURVE SMOOTH",
"207 0 LINE",
"207 70 LINE",
"176 70 LINE SMOOTH",
"167 70 OFFCURVE",
"161 76 OFFCURVE",
"158 79 CURVE SMOOTH",
"94 143 LINE SMOOTH",
"44 193 OFFCURVE",
"0 44 OFFCURVE",
"0 -5 CURVE SMOOTH",
"0 -90 OFFCURVE",
"56 -109 OFFCURVE",
"131 -110 CURVE SMOOTH"
);
}
);
width = 207;
}
);
leftKerningGroup = yeh;
}
{
glyphname = "alefMaksura-ar.fina.3";
kernRight = yeh;
layers = (
{
anchors = (
{
name = bottom;
pos = (289,-135);
},
{
name = top;
pos = (57,198);
}
);
guides = (
{
pos = (-33,155);
},
{
pos = (-33,-110);
},
{
pos = (-33,70);
},
{
pos = (-33,-110);
}
);
layerId = "67aa4fb0-543e-4232-8202-ade6a11e0795";
shapes = (
{
closed = 1;
nodes = (
(536,-110,l),
(577,-40,l),
(159,-40,ls),
(127,-40,o),
(104,-36,o),
(82,-14,cs),
(51,17,ls),
(34,34,o),
(44,80,o),
(57,67,cs),
(109,15,ls),
(118,6,o),
(128,0,o),
(140,0,cs),
(207,0,l),
(207,70,l),
(176,70,ls),
(167,70,o),
(161,76,o),
(158,79,cs),
(94,143,ls),
(44,193,o),
(0,44,o),
(0,-5,cs),
(0,-90,o),
(56,-109,o),
(131,-110,cs)
);
}
);
width = 207;
}
);
}
{
glyphname = "alefMaksura-ar.fina.4";
kernRight = yeh;
layers = (
{
anchors = (
{
name = bottom;
pos = (349,-135);
},
{
name = top;
pos = (57,198);
}
);
guides = (
{
pos = (-33,155);
},
{
pos = (-33,-110);
},
{
pos = (-33,70);
},
{
pos = (-33,-110);
}
);
layerId = "67aa4fb0-543e-4232-8202-ade6a11e0795";
shapes = (
{
closed = 1;
nodes = (
(691,-110,l),
(732,-40,l),
(159,-40,ls),
(127,-40,o),
(104,-36,o),
(82,-14,cs),
(51,17,ls),
(34,34,o),
(44,80,o),
(57,67,cs),
(109,15,ls),
(118,6,o),
(128,0,o),
(140,0,cs),
(207,0,l),
(207,70,l),
(176,70,ls),
(167,70,o),
(161,76,o),
(158,79,cs),
(94,143,ls),
(44,193,o),
(0,44,o),
(0,-5,cs),
(0,-90,o),
(56,-109,o),
(131,-110,cs)
);
}
);
width = 207;
},
{
anchors = (
{
name = bottom;
pos = (322,-135);
},
{
name = top;
pos = (90,198);
}
);
associatedMasterId = "67aa4fb0-543e-4232-8202-ade6a11e0795";
guides = (
{
pos = (0,155);
},
{
pos = (0,-110);
},
{
pos = (0,70);
},
{
pos = (0,-110);
}
);
layerId = "E43493D8-6AC9-41F0-9706-E72D315EB2F6";
name = "Mar 9 20, 21:08";
shapes = (
{
closed = 1;
nodes = (
(192,-40,l),
(160,-40,o),
(138,-37,o),
(115,-14,cs),
(84,17,ls),
(67,34,o),
(76,81,o),
(90,67,cs),
(142,15,ls),
(152,5,o),
(161,0,o),
(173,0,cs),
(240,0,l),
(240,70,l),
(209,70,l),
(200,70,o),
(195,75,o),
(191,79,cs),
(127,143,ls),
(77,193,o),
(33,44,o),
(33,-5,cs),
(33,-92,o),
(93,-110,o),
(170,-110,c)
);
},
{
closed = 1;
nodes = (
(267,-110,l),
(756,-56,l),
(765,-40,l),
(174,-40,l),
(164,-110,l)
);
}
);
width = 240;
}
);
}
{
glyphname = "alefMaksura-ar.fina";
layers = (
{
anchors = (
{
name = bottom;
position = "{87, -250}";
},
{
name = top;
position = "{57, 198}";
}
);
guideLines = (
{
position = "{-33, 155}";
},
{
position = "{-33, -110}";
},
{
position = "{-33, 70}";
}
);
layerId = "67aa4fb0-543e-4232-8202-ade6a11e0795";
paths = (
{
closed = 1;
nodes = (
"169 -220 LINE SMOOTH",
"192 -220 OFFCURVE",
"207 -205 OFFCURVE",
"207 -180 CURVE SMOOTH",
"207 -84 LINE SMOOTH",
"207 -59 OFFCURVE",
"194 -43 OFFCURVE",
"159 -43 CURVE SMOOTH",
"127 -43 OFFCURVE",
"104 -36 OFFCURVE",
"82 -14 CURVE SMOOTH",
"51 17 LINE SMOOTH",
"34 34 OFFCURVE",
"44 80 OFFCURVE",
"57 67 CURVE SMOOTH",
"109 15 LINE SMOOTH",
"118 6 OFFCURVE",
"128 0 OFFCURVE",
"140 0 CURVE SMOOTH",
"207 0 LINE",
"207 70 LINE",
"176 70 LINE SMOOTH",
"167 70 OFFCURVE",
"161 76 OFFCURVE",
"158 79 CURVE SMOOTH",
"94 143 LINE SMOOTH",
"44 193 OFFCURVE",
"0 44 OFFCURVE",
"0 -5 CURVE SMOOTH",
"0 -88 OFFCURVE",
"54 -108 OFFCURVE",
"127 -110 CURVE",
"127 -150 LINE",
"67 -150 LINE SMOOTH",
"47 -150 OFFCURVE",
"30 -145 OFFCURVE",
"19 -130 CURVE",
"-33 -220 LINE"
);
}
);
width = 207;
}
);
leftKerningGroup = yeh;
}
{
glyphname = "alefMaksura-ar.fina.tooth";
kernRight = yeh;
layers = (
{
anchors = (
{
name = bottom;
pos = (120,-250);
},
{
name = entry;
}
);
layerId = "67aa4fb0-543e-4232-8202-ade6a11e0795";
shapes = (
{
closed = 1;
nodes = (
(259,-220,ls),
(265,-220,o),
(280,-220,o),
(280,-199,cs),
(280,-60,o),
(210,-40,o),
(166,-40,cs),
(90,-40,ls),
(83,-40,o),
(80,-37,o),
(80,-30,cs),
(80,50,l),
(0,50,l),
(0,-70,ls),
(0,-95,o),
(15,-110,o),
(38,-110,cs),
(156,-110,ls),
(178,-110,o),
(196,-128,o),
(196,-150,c),
(0,-150,l),
(-40,-220,l)
);
}
);
width = 280;
}
);
}
{
glyphname = b;
layers = (
{
components = (
{
alignment = -1;
name = "heh-ar.1";
transform = "{-1, 0, 0, 1, 200, 0}";
}
);
layerId = "67aa4fb0-543e-4232-8202-ade6a11e0795";
paths = (
{
closed = 1;
nodes = (
"80 290 LINE",
"80 560 LINE",
"0 540 LINE",
"0 290 LINE"
);
}
);
width = 240;
}
);
unicode = "0062,0042";
}
{
glyphname = "behDotless-ar.fina.1";
kernLeft = dal;
layers = (
{
anchors = (
{
name = bottom;
pos = (280,-35);
},
{
name = top;
pos = (280,200);
}
);
layerId = "67aa4fb0-543e-4232-8202-ade6a11e0795";
shapes = (
{
closed = 1;
nodes = (
(600,0,l),
(600,70,l),
(553,70,l),
(502,210,l),
(434,164,l),
(468,70,l),
(100,70,ls),
(78,70,o),
(62,77,o),
(52,90,c),
(0,0,l)
);
}
);
width = 600;
},
{
anchors = (
{
name = bottom;
pos = (280,-35);
},
{
name = top;
pos = (280,200);
}
);
associatedMasterId = "67aa4fb0-543e-4232-8202-ade6a11e0795";
layerId = "C62AACF5-BEA7-433B-A757-4B70DA25BE4B";
name = "17 Jun 25 at 19:05";
shapes = (
{
closed = 1;
nodes = (
(600,0,l),
(600,70,l),
(100,70,ls),
(78,70,o),
(62,77,o),
(52,90,c),
(0,0,l)
);
},
{
closed = 1;
nodes = (
(502,210,l),
(434,164,l),
(481,34,l),
(577,4,l)
);
}
);
width = 600;
}
);
metricWidth = "=behDotless-ar";
}
{
glyphname = "behDotless-ar.fina";
layers = (
{
anchors = (
{
name = bottom;
position = "{280, -35}";
},
{
name = top;
position = "{280, 200}";
}
);
layerId = "67aa4fb0-543e-4232-8202-ade6a11e0795";
paths = (
{
closed = 1;
nodes = (
"600 0 LINE",
"600 70 LINE",
"578 70 OFFCURVE",
"560 88 OFFCURVE",
"560 110 CURVE SMOOTH",
"560 230 LINE",
"480 210 LINE",
"480 70 LINE",
"100 70 LINE SMOOTH",
"78 70 OFFCURVE",
"62 77 OFFCURVE",
"52 90 CURVE",
"0 0 LINE"
);
}
);
width = 600;
}
);
widthMetricsKey = "=behDotless-ar";
rightKerningGroup = dal;
}
{
glyphname = "behDotless-ar.init";
layers = (
{
anchors = (
{
name = bottom;
position = "{46, -35}";
},
{
name = exit;
position = "{0, 0}";
},
{
name = top;
position = "{44, 300}";
}
);
layerId = "67aa4fb0-543e-4232-8202-ade6a11e0795";
paths = (
{
closed = 1;
nodes = (
"59 0 LINE",
"65 0 OFFCURVE",
"80 0 OFFCURVE",
"80 11 CURVE",
"80 230 LINE",
"0 210 LINE",
"0 70 LINE",
"-20 70 LINE",
"-20 0 LINE"
);
}
);
width = 120;
}
);
}
{
glyphname = "behDotless-ar.init.hah";
layers = (
{
anchors = (
{
name = bottom;
position = "{100, -145}";
},
{
name = exit;
position = "{-19, -2}";
},
{
name = top;
position = "{30, 235}";
}
);
layerId = "67aa4fb0-543e-4232-8202-ade6a11e0795";
paths = (
{
closed = 1;
nodes = (
"36.774 0 OFFCURVE",
"80 30.109 OFFCURVE",
"80 70 CURVE SMOOTH",
"80 160 LINE",
"0 140 LINE",
"0 70 LINE SMOOTH",
"0 51.331 OFFCURVE",
"-0.2 25.365 OFFCURVE",
"-20 24.696 CURVE",
"-20 0 LINE"
);
}
);
width = 80;
}
);
}
{
glyphname = "behDotless-ar.medi.1";
kernLeft = pyramid;
kernRight = pyramid;
layers = (
{
anchors = (
{
name = bottom;
pos = (73,-35);
},
{
name = entry;
pos = (150,0);
},
{
name = exit;
},
{
name = top;
pos = (36,215);
}
);
layerId = "67aa4fb0-543e-4232-8202-ade6a11e0795";
shapes = (
{
closed = 1;
nodes = (
(150,0,l),
(150,70,l),
(110,70,l),
(40,140,l),
(0,70,l),
(-20,70,l),
(-20,0,l)
);
}
);
width = 150;
},
{
anchors = (
{
name = bottom;
pos = (73,-35);
},
{
name = entry;
pos = (150,0);
},
{
name = exit;
},
{
name = top;
pos = (36,215);
}
);
associatedMasterId = "67aa4fb0-543e-4232-8202-ade6a11e0795";
layerId = "B20B3DAD-42B1-4644-A974-CC99FF8115F6";
name = "17 Jun 25 at 19:05";
shapes = (
{
closed = 1;
nodes = (
(140,40,l),
(40,140,l),
(-17,40,l)
);
},
{
closed = 1;
nodes = (
(150,0,l),
(150,70,l),
(-20,70,l),
(-20,0,l)
);
}
);
width = 150;
}
);
}
{
glyphname = "behDotless-ar.medi.high";
layers = (
{
anchors = (
{
name = bottom;
position = "{46, -35}";
},
{
name = entry;
position = "{120, 0}";
},
{
name = exit;
position = "{0, 0}";
},
{
name = top;
position = "{44, 300}";
}
);
layerId = "67aa4fb0-543e-4232-8202-ade6a11e0795";
paths = (
{
closed = 1;
nodes = (
"120 0 LINE",
"120 70 LINE",
"98 70 OFFCURVE",
"80 88 OFFCURVE",
"80 110 CURVE SMOOTH",
"80 270 LINE",
"0 250 LINE",
"0 70 LINE",
"-20 70 LINE",
"-20 0 LINE"
);
}
);
width = 120;
}
);
widthMetricsKey = "=behDotless-ar.init";
}
{
glyphname = "behDotless-ar.medi.yeh";
layers = (
{
anchors = (
{
name = bottom;
position = "{46, -35}";
},
{
name = exit;
position = "{0, 0}";
},
{
name = top;
position = "{44, 300}";
}
);
layerId = "67aa4fb0-543e-4232-8202-ade6a11e0795";
paths = (
{
closed = 1;
nodes = (
"80 230 LINE",
"0 210 LINE",
"0 0 LINE",
"120 0 LINE",
"120 70 LINE",
"90 70 LINE",
"83 70 OFFCURVE",
"80 73 OFFCURVE",
"80 80 CURVE"
);
}
);
width = 120;
}
);
widthMetricsKey = "=behDotless-ar.init";
}
{
glyphname = "dal-ar.fina";
layers = (
{
anchors = (
{
name = top;
position = "{280, 255}";
}
);
layerId = "67aa4fb0-543e-4232-8202-ade6a11e0795";
paths = (
{
closed = 1;
nodes = (
"600 0 LINE",
"600 70 LINE",
"557 70 LINE",
"542 166 OFFCURVE",
"484 180 OFFCURVE",
"446 180 CURVE SMOOTH",
"120 180 LINE",
"147 250 LINE",
"144 250 LINE",
"64 110 LINE",
"436 110 LINE SMOOTH",
"458 110 OFFCURVE",
"476 92 OFFCURVE",
"476 70 CURVE",
"41 70 LINE",
"0 0 LINE"
);
}
);
width = 600;
}
);
leftKerningGroup = waw;
widthMetricsKey = "=dal-ar";
rightKerningGroup = dal;
}
{
glyphname = "dotabove-ar.alt1";
layers = (
{
anchors = (
{
name = _top;
position = "{29, 0}";
}
);
layerId = "67aa4fb0-543e-4232-8202-ade6a11e0795";
paths = (
{
closed = 1;
nodes = (
"45 0 OFFCURVE",
"58 13 OFFCURVE",
"58 29 CURVE SMOOTH",
"58 45 OFFCURVE",
"45 58 OFFCURVE",
"29 58 CURVE SMOOTH",
"13 58 OFFCURVE",
"0 45 OFFCURVE",
"0 29 CURVE SMOOTH",
"0 13 OFFCURVE",
"13 0 OFFCURVE",
"29 0 CURVE SMOOTH"
);
}
);
width = 58;
},
{
anchors = (
{
name = _top;
position = "{40, -40}";
}
);
associatedMasterId = "67aa4fb0-543e-4232-8202-ade6a11e0795";
layerId = "EE17D735-ABCF-480D-8CC3-543DD761DBD5";
name = "Mar 9 20, 00:16";
paths = (
{
closed = 1;
nodes = (
"0 -25.213 LINE",
"65.612 40.399 LINE",
"79.754 26.257 LINE",
"14.142 -39.355 LINE"
);
}
);
width = 80;
}
);
}
{
glyphname = "dotabove-ar";
layers = (
{
anchors = (
{
name = _top;
position = "{17, 0}";
}
);
layerId = "67aa4fb0-543e-4232-8202-ade6a11e0795";
paths = (
{
closed = 1;
nodes = (
"0 10 LINE",
"47 89 LINE",
"64 79 LINE",
"17 0 LINE"
);
}
);
width = 64;
},
{
anchors = (
{
name = _top;
position = "{40, -40}";
}
);
associatedMasterId = "67aa4fb0-543e-4232-8202-ade6a11e0795";
layerId = "EE17D735-ABCF-480D-8CC3-543DD761DBD5";
name = "Mar 9 20, 00:16";
paths = (
{
closed = 1;
nodes = (
"0 -25.213 LINE",
"65.612 40.399 LINE",
"79.754 26.257 LINE",
"14.142 -39.355 LINE"
);
}
);
visible = 1;
width = 80;
}
);
}
{
glyphname = e;
layers = (
{
layerId = "67aa4fb0-543e-4232-8202-ade6a11e0795";
paths = (
{
closed = 1;
nodes = (
"127 100 LINE",
"120 90 LINE",
"120 101 OFFCURVE",
"111 110 OFFCURVE",
"100 110 CURVE SMOOTH",
"91 110 OFFCURVE",
"83 104 OFFCURVE",
"81 95 CURVE",
"74 100 LINE"
);
},
{
closed = 1;
nodes = (
"80 79 OFFCURVE",
"89 70 OFFCURVE",
"100 70 CURVE",
"100 0 LINE",
"45 0 OFFCURVE",
"0 30 OFFCURVE",
"0 90 CURVE SMOOTH",
"0 140 OFFCURVE",
"45 180 OFFCURVE",
"100 180 CURVE SMOOTH",
"155 180 OFFCURVE",
"200 140 OFFCURVE",
"200 90 CURVE",
"80 90 LINE"
);
}
);
width = 240;
}
);
unicode = "0065,0045";
}
{
glyphname = f;
layers = (
{
layerId = "67aa4fb0-543e-4232-8202-ade6a11e0795";
paths = (
{
closed = 1;
nodes = (
"-30 10 OFFCURVE",
"-10 0 OFFCURVE",
"12 0 CURVE SMOOTH",
"50 0 OFFCURVE",
"80 30 OFFCURVE",
"80 80 CURVE SMOOTH",
"80 150 LINE",
"0 150 LINE",
"0 70 LINE SMOOTH",
"0 40 OFFCURVE",
"-13 20 OFFCURVE",
"-40 20 CURVE"
);
},
{
closed = 1;
nodes = (
"80 410 LINE",
"0 390 LINE",
"0 130 LINE",
"80 130 LINE"
);
},
{
closed = 1;
nodes = (
"115 350 LINE",
"156 420 LINE",
"88 420 LINE SMOOTH",
"67 420 OFFCURVE",
"55 437 OFFCURVE",
"55 456 CURVE SMOOTH",
"55 477 OFFCURVE",
"71 500 OFFCURVE",
"108 500 CURVE SMOOTH",
"121 500 OFFCURVE",
"137 497 OFFCURVE",
"155 490 CURVE",
"141 535 OFFCURVE",
"106 560 OFFCURVE",
"71 560 CURVE SMOOTH",
"-47 560 OFFCURVE",
"-61 376 OFFCURVE",
"55 350 CURVE"
);
},
{
closed = 1;
nodes = (
"109 350 LINE",
"109 420 LINE",
"-45 420 LINE",
"-45 350 LINE"
);
}
);
width = 120;
}
);
unicode = "0066,0046";
}
{
glyphname = "fehDotless-ar.1";
layers = (
{
components = (
{
alignment = -1;
name = "fehDotless-ar.init.1";
transform = "{1, 0, 0, 1, 360, 0}";
},
{
alignment = -1;
name = _tail;
}
);
layerId = "67aa4fb0-543e-4232-8202-ade6a11e0795";
paths = (
{
closed = 1;
nodes = (
"350 0 LINE",
"350 70 LINE",
"170 70 LINE",
"170 0 LINE"
);
}
);
width = 600;
}
);
}
{
glyphname = "fehDotless-ar.2";
layers = (
{
anchors = (
{
name = bottom;
pos = (527,-35);
},
{
name = top;
pos = (500,335);
}
);
layerId = "67aa4fb0-543e-4232-8202-ade6a11e0795";
shapes = (
{
closed = 1;
nodes = (
(576,0,ls),
(600,0,o),
(613,37,o),
(613,102,cs),
(613,179,o),
(594,290,o),
(501,290,cs),
(445,290,o),
(400,250,o),
(400,200,cs),
(400,150,o),
(445,110,o),
(500,110,cs),
(510,110,o),
(520,111,o),
(530,114,c),
(533,104,o),
(533,80,o),
(530,70,c),
(100,70,ls),
(78,70,o),
(62,77,o),
(52,90,c),
(0,0,l)
);
},
{
closed = 1;
nodes = (
(489,180,o),
(480,189,o),
(480,200,cs),
(480,211,o),
(489,220,o),
(500,220,cs),
(511,220,o),
(520,211,o),
(520,200,cs),
(520,189,o),
(511,180,o),
(500,180,cs)
);
}
);
width = 653;
}
);
}
{
glyphname = "fehDotless-ar.3";
layers = (
{
anchors = (
{
name = bottom;
position = "{527, -35}";
},
{
name = top;
position = "{500, 335}";
}
);
layerId = "67aa4fb0-543e-4232-8202-ade6a11e0795";
paths = (
{
closed = 1;
nodes = (
"579 0 LINE SMOOTH",
"585 0 OFFCURVE",
"600 0 OFFCURVE",
"600 11 CURVE SMOOTH",
"600 200 LINE",
"520 140 LINE",
"520 70 LINE",
"100 70 LINE SMOOTH",
"78 70 OFFCURVE",
"62 77 OFFCURVE",
"52 90 CURVE",
"0 0 LINE"
);
},
{
closed = 1;
nodes = (
"555 110 OFFCURVE",
"600 150 OFFCURVE",
"600 200 CURVE SMOOTH",
"600 250 OFFCURVE",
"555 290 OFFCURVE",
"500 290 CURVE SMOOTH",
"445 290 OFFCURVE",
"400 250 OFFCURVE",
"400 200 CURVE SMOOTH",
"400 150 OFFCURVE",
"445 110 OFFCURVE",
"500 110 CURVE SMOOTH"
);
},
{
closed = 1;
nodes = (
"489 180 OFFCURVE",
"480 189 OFFCURVE",
"480 200 CURVE SMOOTH",
"480 211 OFFCURVE",
"489 220 OFFCURVE",
"500 220 CURVE SMOOTH",
"511 220 OFFCURVE",
"520 211 OFFCURVE",
"520 200 CURVE SMOOTH",
"520 189 OFFCURVE",
"511 180 OFFCURVE",
"500 180 CURVE SMOOTH"
);
}
);
width = 640;
}
);
}
{
glyphname = "fehDotless-ar.init.1";
layers = (
{
anchors = (
{
name = bottom;
position = "{127, -35}";
},
{
name = exit;
position = "{0, 0}";
},
{
name = top;
position = "{100, 335}";
}
);
layerId = "67aa4fb0-543e-4232-8202-ade6a11e0795";
paths = (
{
closed = 1;
nodes = (
"179 0 LINE",
"185 0 OFFCURVE",
"200 0 OFFCURVE",
"200 11 CURVE",
"200 200 LINE",
"120 210 LINE",
"120 70 LINE",
"-20 70 LINE",
"-20 0 LINE"
);
},
{
closed = 1;
nodes = (
"155.172 110 OFFCURVE",
"199.981 150.328 OFFCURVE",
"199.981 200 CURVE SMOOTH",
"199.981 249.672 OFFCURVE",
"155.172 290 OFFCURVE",
"99.981 290 CURVE SMOOTH",
"44.789 290 OFFCURVE",
"-0.02 249.672 OFFCURVE",
"-0.02 200 CURVE SMOOTH",
"-0.02 150.328 OFFCURVE",
"44.789 110 OFFCURVE",
"99.981 110 CURVE SMOOTH"
);
},
{
closed = 1;
nodes = (
"88.964 180 OFFCURVE",
"80.003 188.962 OFFCURVE",
"80.003 200 CURVE SMOOTH",
"80.003 211.038 OFFCURVE",
"88.964 220 OFFCURVE",
"100.003 220 CURVE SMOOTH",
"111.041 220 OFFCURVE",
"120.003 211.038 OFFCURVE",
"120.003 200 CURVE SMOOTH",
"120.003 188.962 OFFCURVE",
"111.041 180 OFFCURVE",
"100.003 180 CURVE SMOOTH"
);
}
);
width = 240;
}
);
}
{
glyphname = "fehDotless-ar.init";
layers = (
{
anchors = (
{
name = bottom;
pos = (127,-35);
},
{
name = exit;
},
{
name = top;
pos = (100,335);
}
);
layerId = "67aa4fb0-543e-4232-8202-ade6a11e0795";
shapes = (
{
closed = 1;
nodes = (
(176,0,ls),
(199.799,0,o),
(213.289,37.131,o),
(213.289,101.673,cs),
(213.289,178.852,o),
(194,290,o),
(100.88,290,cs),
(44.789,290,o),
(-0.02,249.672,o),
(-0.02,200,cs),
(-0.02,150.328,o),
(44.789,110,o),
(99.976,110,cs),
(110.259,110,o),
(120.391,111.4,o),
(130.105,114.162,c),
(133,100,o),
(133,84,o),
(130,70,c),
(-20,70,l),
(-20,0,l)
);
},
{
closed = 1;
nodes = (
(88.964,180,o),
(80.003,188.962,o),
(80.003,200,cs),
(80.003,211.038,o),
(88.964,220,o),
(100.003,220,cs),
(111.041,220,o),
(120.003,211.038,o),
(120.003,200,cs),
(120.003,188.962,o),
(111.041,180,o),
(100.003,180,cs)
);
}
);
width = 253;
}
);
}
{
glyphname = "fehDotless-ar.medi.1";
layers = (
{
associatedMasterId = "67aa4fb0-543e-4232-8202-ade6a11e0795";
layerId = "abf4b10a-26e5-432c-8593-bf37389dfdfd";
name = Regular.1;
paths = (
{
closed = 1;
nodes = (
"242 70 LINE",
"-20 70 LINE",
"-20 0 LINE",
"242 0 LINE"
);
},
{
closed = 1;
nodes = (
"0 158.999 LINE",
"128.991 30.007 LINE",
"209.005 30.007 LINE",
"225.567 46.569 LINE",
"42.426 229.709 LINE"
);
},
{
closed = 1;
nodes = (
"122 250 LINE",
"122 11 LINE",
"202 11 LINE",
"202 270 LINE"
);
}
);
width = 242;
},
{
anchors = (
{
name = entry;
position = "{240, 0}";
},
{
name = exit;
position = "{0, 0}";
}
);
components = (
{
alignment = -1;
name = "kashida-ar";
transform = "{1, 0, 0, 1, 160, 0}";
},
{
alignment = -1;
name = "fehDotless-ar.init.1";
}
);
layerId = "67aa4fb0-543e-4232-8202-ade6a11e0795";
width = 240;
}
);
widthMetricsKey = "=fehDotless-ar.init.1";
}
{
glyphname = "fehDotless-ar.medi";
layers = (
{
anchors = (
{
name = bottom;
position = "{127, -35}";
},
{
name = entry;
position = "{248, 0}";
},
{
name = exit;
position = "{0, 0}";
},
{
name = top;
position = "{81, 355}";
}
);
layerId = "67aa4fb0-543e-4232-8202-ade6a11e0795";
paths = (
{
closed = 1;
nodes = (
"206 61 LINE",
"206 207 LINE SMOOTH",
"206 264 OFFCURVE",
"160 310 OFFCURVE",
"103 310 CURVE SMOOTH",
"46 310 OFFCURVE",
"-1 264 OFFCURVE",
"-1 207 CURVE SMOOTH",
"-1 179 OFFCURVE",
"14 153 OFFCURVE",
"33 134 CURVE SMOOTH",
"133 30 LINE",
"213 30 LINE",
"228 47 LINE",
"86 194 LINE SMOOTH",
"81 199 OFFCURVE",
"77 206 OFFCURVE",
"77 214 CURVE SMOOTH",
"77 228 OFFCURVE",
"85 240 OFFCURVE",
"100 240 CURVE SMOOTH",
"114 240 OFFCURVE",
"126 228 OFFCURVE",
"126 214 CURVE SMOOTH",
"126 61 LINE"
);
},
{
closed = 1;
nodes = (
"248 0 LINE",
"248 70 LINE",
"-20 70 LINE",
"-20 0 LINE"
);
}
);
width = 248;
},
{
anchors = (
{
name = top;
position = "{101, 375}";
}
);
associatedMasterId = "67aa4fb0-543e-4232-8202-ade6a11e0795";
layerId = "388FE02E-045B-46C0-BFA3-7E7C5E94DC12";
name = "Mar 9 20, 18:01";
paths = (
{
closed = 1;
nodes = (
"206 1 LINE",
"206 197 LINE SMOOTH",
"206 254 OFFCURVE",
"160 300 OFFCURVE",
"103 300 CURVE SMOOTH",
"46 300 OFFCURVE",
"-1 254 OFFCURVE",
"-1 197 CURVE SMOOTH",
"-1 169 OFFCURVE",
"10 143 OFFCURVE",
"29 124 CURVE SMOOTH",
"133 20 LINE",
"213 20 LINE",
"230 37 LINE",
"82 184 LINE SMOOTH",
"77 189 OFFCURVE",
"73 196 OFFCURVE",
"73 204 CURVE SMOOTH",
"73 218 OFFCURVE",
"85 230 OFFCURVE",
"100 230 CURVE SMOOTH",
"114 230 OFFCURVE",
"126 218 OFFCURVE",
"126 204 CURVE SMOOTH",
"126 1 LINE"
);
},
{
closed = 1;
nodes = (
"248 0 LINE",
"248 70 LINE",
"-20 70 LINE",
"-20 0 LINE"
);
}
);
width = 248;
}
);
}
{
glyphname = "four-ar.1";
layers = (
{
guides = (
{
pos = (0,70);
},
{
pos = (0,140);
},
{
pos = (0,210);
},
{
pos = (0,280);
},
{
pos = (0,350);
}
);
layerId = "67aa4fb0-543e-4232-8202-ade6a11e0795";
shapes = (
{
closed = 1;
nodes = (
(70,0,l),
(70,140,l),
(310,140,l),
(310,210,l),
(190,210,l),
(190,280,l),
(310,280,l),
(310,350,l),
(120,350,l),
(120,210,l),
(70,210,l),
(70,350,l),
(0,350,l),
(0,0,l)
);
}
);
width = 350;
}
);
metricWidth = "=three-ar";
}
{
glyphname = "four-ar.2";
layers = (
{
guides = (
{
pos = (0,70);
},
{
pos = (0,140);
},
{
pos = (0,210);
},
{
pos = (0,280);
},
{
pos = (0,350);
},
{
angle = 90;
pos = (140,450);
},
{
angle = 90;
pos = (70,450);
},
{
angle = 90;
pos = (210,450);
}
);
layerId = "67aa4fb0-543e-4232-8202-ade6a11e0795";
shapes = (
{
closed = 1;
nodes = (
(210,0,l),
(210,70,l),
(70,70,l),
(70,140,l),
(210,140,l),
(210,210,l),
(70,210,l),
(70,280,l),
(210,280,l),
(210,350,l),
(0,350,l),
(0,0,l)
);
}
);
width = 250;
}
);
metricWidth = "=two-ar";
}
{
glyphname = "four-ar.osf";
layers = (
{
components = (
{
name = "four-ar.1";
}
);
guideLines = (
{
position = "{0, 70}";
},
{
position = "{0, 140}";
},
{
position = "{0, 210}";
},
{
position = "{0, 280}";
},
{
position = "{0, 350}";
}
);
layerId = "67aa4fb0-543e-4232-8202-ade6a11e0795";
paths = (
{
closed = 1;
nodes = (
"60 0 LINE",
"310 0 LINE",
"310 70 LINE",
"60 70 LINE"
);
}
);
width = 350;
}
);
widthMetricsKey = "=three-ar";
}
{
glyphname = "four-persian.urdu";
layers = (
{
components = (
{
name = "one-ar";
}
);
layerId = "67aa4fb0-543e-4232-8202-ade6a11e0795";
paths = (
{
closed = 1;
nodes = (
"280 280 LINE",
"280 350 LINE",
"60 350 LINE",
"60 280 LINE"
);
},
{
closed = 1;
nodes = (
"190 189 LINE",
"190 320 LINE",
"120 320 LINE",
"120 189 LINE"
);
}
);
width = 320;
}
);
}
{
glyphname = "fourFarsi-ar.urdu";
layers = (
{
layerId = "67aa4fb0-543e-4232-8202-ade6a11e0795";
shapes = (
{
closed = 1;
nodes = (
(70,0,l),
(70,280,l),
(120,280,l),
(120,189,l),
(190,189,l),
(190,280,l),
(280,280,l),
(280,350,l),
(0,350,l),
(0,0,l)
);
}
);
width = 320;
}
);
sortName = ar3178;
sortNameKeep = ar3168.urdu;
}
{
glyphname = g.1;
layers = (
{
layerId = "67aa4fb0-543e-4232-8202-ade6a11e0795";
shapes = (
{
closed = 1;
nodes = (
(162,-250,ls),
(185,-250,o),
(200,-235,o),
(200,-210,cs),
(200,90,ls),
(200,140,o),
(155,180,o),
(100,180,cs),
(45,180,o),
(0,140,o),
(0,90,cs),
(0,30,o),
(35,0,o),
(100,0,cs),
(120,0,l),
(120,-180,l),
(50,-180,ls),
(30,-180,o),
(13,-175,o),
(2,-160,c),
(-50,-250,l)
);
},
{
closed = 1;
nodes = (
(89,70,o),
(80,79,o),
(80,90,cs),
(80,101,o),
(89,110,o),
(100,110,cs),
(111,110,o),
(120,101,o),
(120,90,cs),
(120,79,o),
(111,70,o),
(100,70,cs)
);
}
);
width = 240;
}
);
}
{
glyphname = h;
layers = (
{
layerId = "67aa4fb0-543e-4232-8202-ade6a11e0795";
paths = (
{
closed = 1;
nodes = (
"80 0 LINE",
"80 90 LINE SMOOTH",
"80 101 OFFCURVE",
"89 110 OFFCURVE",
"100 110 CURVE SMOOTH",
"111 110 OFFCURVE",
"120 101 OFFCURVE",
"120 90 CURVE SMOOTH",
"120 -20 LINE",
"200 0 LINE",
"200 90 LINE SMOOTH",
"200 140 OFFCURVE",
"155 180 OFFCURVE",
"100 180 CURVE SMOOTH",
"80 180 LINE",
"80 560 LINE",
"0 540 LINE",
"0 -20 LINE"
);
}
);
width = 240;
}
);
unicode = "0068,0048";
}
{
glyphname = "hah-ar.1";
layers = (
{
components = (
{
name = "hah-ar";
}
);
layerId = "67aa4fb0-543e-4232-8202-ade6a11e0795";
paths = (
{
closed = 1;
nodes = (
"515 -110 LINE",
"556 -40 LINE",
"486 -40 LINE",
"486 -110 LINE"
);
},
{
closed = 1;
nodes = (
"579 0 LINE",
"620 70 LINE",
"550 70 LINE",
"550 0 LINE"
);
}
);
width = 660;
}
);
}
{
glyphname = "hah-ar.2";
layers = (
{
anchors = (
{
name = bottom;
position = "{300, -145}";
},
{
name = top;
position = "{509, 163}";
}
);
layerId = "67aa4fb0-543e-4232-8202-ade6a11e0795";
paths = (
{
closed = 1;
nodes = (
"535 -110 LINE",
"576 -40 LINE",
"100 -40 LINE SMOOTH",
"89 -40 OFFCURVE",
"80 -31 OFFCURVE",
"80 -20 CURVE SMOOTH",
"80 -9 OFFCURVE",
"89 0 OFFCURVE",
"100 0 CURVE SMOOTH",
"599 0 LINE",
"640 70 LINE",
"90 70 LINE SMOOTH",
"40 70 OFFCURVE",
"0 30 OFFCURVE",
"0 -20 CURVE SMOOTH",
"0 -70 OFFCURVE",
"40 -110 OFFCURVE",
"90 -110 CURVE SMOOTH"
);
},
{
closed = 1;
nodes = (
"463 50 LINE",
"463 70 LINE",
"405 70 OFFCURVE",
"344 135 OFFCURVE",
"283 210 CURVE",
"240 140 LINE",
"259 112 OFFCURVE",
"287 83 OFFCURVE",
"302 70 CURVE",
"302 50 LINE"
);
}
);
width = 680;
}
);
}
{
glyphname = "hah-ar.3";
layers = (
{
anchors = (
{
name = bottom;
position = "{200, -34}";
},
{
name = top;
position = "{359, 163}";
}
);
components = (
{
name = _tail3;
}
);
layerId = "67aa4fb0-543e-4232-8202-ade6a11e0795";
paths = (
{
closed = 1;
nodes = (
"313 50 LINE",
"313 70 LINE",
"255.248 70 OFFCURVE",
"193.552 135.117 OFFCURVE",
"132.749 209.841 CURVE",
"90 140 LINE",
"108.911 111.75 OFFCURVE",
"137 83 OFFCURVE",
"152 70 CURVE",
"152 50 LINE"
);
},
{
closed = 1;
nodes = (
"409 0 LINE",
"450 70 LINE",
"152 70 LINE",
"152 0 LINE"
);
}
);
width = 490;
}
);
}
{
glyphname = "hah-ar.4";
layers = (
{
anchors = (
{
name = bottom;
position = "{320, -145}";
}
);
components = (
{
name = "hah-ar.init";
transform = "{1, 0, 0, 1, 207, 0}";
},
{
name = "alefMaksura-ar.fina.2";
}
);
layerId = "67aa4fb0-543e-4232-8202-ade6a11e0795";
paths = (
{
closed = 1;
nodes = (
"462 -110 LINE",
"503 -40 LINE",
"373 -40 LINE",
"373 -110 LINE"
);
}
);
width = 607;
}
);
}
{
glyphname = "hah-ar.5";
layers = (
{
anchors = (
{
name = bottom;
position = "{320, -145}";
}
);
components = (
{
name = "hah-ar.init";
transform = "{1, 0, 0, 1, 207, 0}";
},
{
name = "alefMaksura-ar.fina.2";
}
);
layerId = "67aa4fb0-543e-4232-8202-ade6a11e0795";
paths = (
{
closed = 1;
nodes = (
"482 -110 LINE",
"523 -40 LINE",
"373 -40 LINE",
"373 -110 LINE"
);
},
{
closed = 1;
nodes = (
"546 0 LINE",
"587 70 LINE",
"517 70 LINE",
"517 0 LINE"
);
}
);
width = 627;
}
);
}
{
glyphname = "hah-ar.init.2";
layers = (
{
anchors = (
{
name = bottom;
pos = (170,-35);
},
{
name = exit;
},
{
name = top;
pos = (43,246);
},
{
name = top.alt;
pos = (1,194);
}
);
layerId = "67aa4fb0-543e-4232-8202-ade6a11e0795";
shapes = (
{
closed = 1;
nodes = (
(359,0,l),
(400,70,l),
(223,70,ls),
(165,70,o),
(104,135,o),
(43,210,c),
(0,140,l),
(19,112,o),
(47,83,o),
(62,70,c),
(-20,70,l),
(-20,0,l)
);
}
);
width = 440;
},
{
anchors = (
{
name = bottom;
pos = (170,-35);
},
{
name = exit;
},
{
name = top;
pos = (269,163);
}
);
associatedMasterId = "67aa4fb0-543e-4232-8202-ade6a11e0795";
layerId = "C40A52AF-4F3A-494B-ABA5-16947AA35BB7";
name = "17 Jun 25 at 19:08";
shapes = (
{
closed = 1;
nodes = (
(223,50,l),
(223,70,l),
(165,70,o),
(104,135,o),
(43,210,c),
(0,140,l),
(19,112,o),
(47,83,o),
(62,70,c),
(62,50,l)
);
},
{
closed = 1;
nodes = (
(359,0,l),
(400,70,l),
(-20,70,l),
(-20,0,l)
);
}
);
width = 440;
}
);
}
{
glyphname = "hah-ar.init";
layers = (
{
associatedMasterId = "67aa4fb0-543e-4232-8202-ade6a11e0795";
layerId = "6b2944f6-386a-4df7-bde1-fdc02766a452";
name = Background;
paths = (
{
closed = 1;
nodes = (
"70 70 LINE",
"0 140 LINE",
"42.749 209.841 LINE",
"182.958 70 LINE"
);
}
);
width = 400;
},
{
anchors = (
{
name = bottom;
position = "{170, -35}";
},
{
name = exit;
position = "{0, 0}";
},
{
name = top;
position = "{269, 163}";
}
);
layerId = "67aa4fb0-543e-4232-8202-ade6a11e0795";
paths = (
{
closed = 1;
nodes = (
"223 50 LINE",
"223 70 LINE",
"165 70 OFFCURVE",
"104 135 OFFCURVE",
"43 210 CURVE",
"0 140 LINE",
"19 112 OFFCURVE",
"47 83 OFFCURVE",
"62 70 CURVE",
"62 50 LINE"
);
},
{
closed = 1;
nodes = (
"319 0 LINE",
"360 70 LINE",
"-20 70 LINE",
"-20 0 LINE"
);
}
);
width = 400;
}
);
leftKerningGroup = "hah-ar.init";
rightKerningGroup = "meem-ar.medi";
}
{
glyphname = "hah-ar.medi.2";
layers = (
{
associatedMasterId = "67aa4fb0-543e-4232-8202-ade6a11e0795";
layerId = "6b2944f6-386a-4df7-bde1-fdc02766a452";
name = Background;
paths = (
{
closed = 1;
nodes = (
"70 70 LINE",
"0 140 LINE",
"42.749 209.841 LINE",
"182.958 70 LINE"
);
}
);
width = 400;
},
{
anchors = (
{
name = bottom;
position = "{110, -35}";
},
{
name = entry;
position = "{88, 110}";
},
{
name = exit;
position = "{0, 0}";
},
{
name = top;
position = "{9, 233}";
}
);
components = (
{
name = "hah-ar.init.2";
}
);
layerId = "67aa4fb0-543e-4232-8202-ade6a11e0795";
width = 440;
}
);
rightKerningGroup = "meem-ar.medi";
}
{
glyphname = "hah-ar.medi";
kernLeft = "meem-ar.medi";
layers = (
{
associatedMasterId = "67aa4fb0-543e-4232-8202-ade6a11e0795";
layerId = "6b2944f6-386a-4df7-bde1-fdc02766a452";
name = Background;
shapes = (
{
closed = 1;
nodes = (
(70,70,l),
(0,140,l),
(42.749,209.841,l),
(182.958,70,l)
);
}
);
width = 400;
},
{
anchors = (
{
name = bottom;
pos = (110,-35);
},
{
name = entry;
pos = (88,110);
},
{
name = exit;
},
{
name = top;
pos = (43,246);
},
{
name = top.alt;
pos = (1,194);
}
);
layerId = "67aa4fb0-543e-4232-8202-ade6a11e0795";
shapes = (
{
ref = "hah-ar.init";
}
);
width = 400;
}
);
}
{
glyphname = "heh-ar.1";
layers = (
{
anchors = (
{
name = top;
position = "{100, 405}";
}
);
components = (
{
name = "heh-ar";
}
);
layerId = "67aa4fb0-543e-4232-8202-ade6a11e0795";
paths = (
{
closed = 1;
nodes = (
"200 110 LINE",
"200 330 LINE",
"120 310 LINE",
"120 110 LINE"
);
}
);
width = 240;
}
);
}
{
glyphname = "heh-ar.fina.2";
layers = (
{
anchors = (
{
name = top;
position = "{50, 318}";
}
);
layerId = "67aa4fb0-543e-4232-8202-ade6a11e0795";
paths = (
{
closed = 1;
nodes = (
"240 0 LINE",
"240 70 LINE",
"200 70 LINE",
"200 560 LINE",
"120 540 LINE",
"120 180 LINE",
"100 180 LINE SMOOTH",
"45 180 OFFCURVE",
"0 140 OFFCURVE",
"0 90 CURVE SMOOTH",
"0 30 OFFCURVE",
"45 0 OFFCURVE",
"100 0 CURVE SMOOTH"
);
},
{
closed = 1;
nodes = (
"89 70 OFFCURVE",
"80 79 OFFCURVE",
"80 90 CURVE SMOOTH",
"80 101 OFFCURVE",
"89 110 OFFCURVE",
"100 110 CURVE SMOOTH",
"111 110 OFFCURVE",
"120 101 OFFCURVE",
"120 90 CURVE SMOOTH",
"120 79 OFFCURVE",
"111 70 OFFCURVE",
"100 70 CURVE SMOOTH"
);
}
);
width = 240;
}
);
}
{
glyphname = "heh-ar.init.2";
layers = (
{
anchors = (
{
name = exit;
position = "{0, 0}";
}
);
layerId = "67aa4fb0-543e-4232-8202-ade6a11e0795";
paths = (
{
closed = 1;
nodes = (
"189.761 93.904 OFFCURVE",
"199.981 117.57 OFFCURVE",
"199.981 150 CURVE SMOOTH",
"199.981 199.672 OFFCURVE",
"155.172 240 OFFCURVE",
"99.981 240 CURVE SMOOTH",
"44.789 240 OFFCURVE",
"-0.02 199.672 OFFCURVE",
"-0.02 150 CURVE SMOOTH",
"-0.02 124.829 OFFCURVE",
"11.487 102.057 OFFCURVE",
"30.02 85.717 CURVE SMOOTH",
"48.06 69.812 OFFCURVE",
"72.776 114.626 OFFCURVE",
"100 114.626 CURVE SMOOTH",
"129.876 114.626 OFFCURVE",
"153.391 66.334 OFFCURVE",
"170.103 79.002 CURVE SMOOTH"
);
},
{
closed = 1;
nodes = (
"130 0 LINE",
"130 70 LINE",
"-20 70 LINE",
"-20 0 LINE"
);
},
{
closed = 1;
nodes = (
"165 0 OFFCURVE",
"199.981 30 OFFCURVE",
"199.981 90 CURVE SMOOTH",
"199.981 115.098 OFFCURVE",
"188.541 137.81 OFFCURVE",
"170.103 154.14 CURVE SMOOTH",
"152.049 170.129 OFFCURVE",
"127.305 125 OFFCURVE",
"100 125 CURVE SMOOTH",
"72.695 125 OFFCURVE",
"47.911 170.129 OFFCURVE",
"29.858 154.14 CURVE SMOOTH",
"11.42 137.81 OFFCURVE",
"-0.019 115.098 OFFCURVE",
"-0.02 90 CURVE SMOOTH",
"-0.02 40.328 OFFCURVE",
"44.789 0 OFFCURVE",
"99.981 0 CURVE SMOOTH"
);
},
{
closed = 1;
nodes = (
"88.964 70 OFFCURVE",
"80.003 78.962 OFFCURVE",
"80.003 90 CURVE SMOOTH",
"80.003 101.038 OFFCURVE",
"88.964 110 OFFCURVE",
"100.003 110 CURVE SMOOTH",
"111.041 110 OFFCURVE",
"120.003 101.038 OFFCURVE",
"120.003 90 CURVE SMOOTH",
"120.003 78.962 OFFCURVE",
"111.041 70 OFFCURVE",
"100.003 70 CURVE SMOOTH"
);
},
{
closed = 1;
nodes = (
"88.964 130 OFFCURVE",
"80.003 138.962 OFFCURVE",
"80.003 150 CURVE SMOOTH",
"80.003 161.038 OFFCURVE",
"88.964 170 OFFCURVE",
"100.003 170 CURVE SMOOTH",
"111.041 170 OFFCURVE",
"120.003 161.038 OFFCURVE",
"120.003 150 CURVE SMOOTH",
"120.003 138.962 OFFCURVE",
"111.041 130 OFFCURVE",
"100.003 130 CURVE SMOOTH"
);
},
{
closed = 1;
nodes = (
"179 0 LINE",
"185 0 OFFCURVE",
"200 0 OFFCURVE",
"200 11 CURVE",
"200 230 LINE",
"120 210 LINE",
"120 70 LINE",
"100 70 LINE",
"100 0 LINE"
);
},
{
closed = 1;
nodes = (
"200.011 275 LINE",
"180.011 240 OFFCURVE",
"140 240.031 OFFCURVE",
"100 240.031 CURVE",
"200.011 40 LINE"
);
}
);
width = 240;
}
);
}
{
glyphname = "heh-ar.init.4";
layers = (
{
anchors = (
{
name = exit;
position = "{0, 0}";
}
);
layerId = "67aa4fb0-543e-4232-8202-ade6a11e0795";
paths = (
{
closed = 1;
nodes = (
"167 50 LINE",
"186.166 64.529 OFFCURVE",
"199.981 96.871 OFFCURVE",
"199.981 125.215 CURVE SMOOTH",
"199.981 172.974 OFFCURVE",
"160.759 220 OFFCURVE",
"120 220 CURVE SMOOTH",
"54.928 220 OFFCURVE",
"-2.055 187.575 OFFCURVE",
"-2.055 116.161 CURVE SMOOTH",
"-2.055 83.147 OFFCURVE",
"10.288 59.268 OFFCURVE",
"24 50 CURVE"
);
},
{
closed = 1;
nodes = (
"130 0 LINE",
"130 70 LINE",
"-20 70 LINE",
"-20 0 LINE"
);
},
{
closed = 1;
nodes = (
"98.967 70 OFFCURVE",
"82.003 85.862 OFFCURVE",
"80 106 CURVE",
"100.637 106 OFFCURVE",
"117.601 90.138 OFFCURVE",
"119.604 70 CURVE"
);
},
{
closed = 1;
nodes = (
"82.003 134.138 OFFCURVE",
"98.967 150 OFFCURVE",
"119.604 150 CURVE",
"117.601 129.862 OFFCURVE",
"100.637 114 OFFCURVE",
"80 114 CURVE"
);
},
{
closed = 1;
nodes = (
"179 0 LINE",
"185 0 OFFCURVE",
"200 0 OFFCURVE",
"200 11 CURVE",
"200 220 LINE",
"120 200 LINE",
"120 70 LINE",
"100 70 LINE",
"100 0 LINE"
);
},
{
closed = 1;
nodes = (
"200.011 255 LINE",
"180.011 220 OFFCURVE",
"160 220.031 OFFCURVE",
"120 220.031 CURVE",
"200.011 20 LINE"
);
}
);
width = 240;
}
);
}
{
glyphname = "heh-ar.init.5";
layers = (
{
anchors = (
{
name = exit;
position = "{0, 0}";
}
);
components = (
{
alignment = -1;
name = "heh-ar.init.4";
}
);
layerId = "67aa4fb0-543e-4232-8202-ade6a11e0795";
paths = (
{
closed = 1;
nodes = (
"200 231 LINE",
"200 290 LINE",
"120 270 LINE",
"120 200 LINE"
);
}
);
width = 240;
}
);
}
{
glyphname = "heh-ar.init.6";
layers = (
{
anchors = (
{
name = exit;
position = "{0, 0}";
}
);
layerId = "67aa4fb0-543e-4232-8202-ade6a11e0795";
paths = (
{
closed = 1;
nodes = (
"167 50 LINE",
"186.166 64.529 OFFCURVE",
"199.981 96.871 OFFCURVE",
"199.981 125.215 CURVE SMOOTH",
"199.981 172.974 OFFCURVE",
"161 230 OFFCURVE",
"120 230 CURVE SMOOTH",
"46 230 OFFCURVE",
"0 190 OFFCURVE",
"0 127 CURVE SMOOTH",
"0 89 OFFCURVE",
"17 60 OFFCURVE",
"22 50 CURVE"
);
},
{
closed = 1;
nodes = (
"130 0 LINE",
"130 70 LINE",
"-20 70 LINE",
"-20 0 LINE"
);
},
{
closed = 1;
nodes = (
"56 123 LINE",
"45 91 LINE",
"155 119 LINE",
"129 149 LINE",
"111 70 LINE"
);
},
{
closed = 1;
nodes = (
"179 0 LINE",
"185 0 OFFCURVE",
"200 0 OFFCURVE",
"200 11 CURVE",
"200 200 LINE",
"120 180 LINE",
"120 70 LINE",
"100 70 LINE",
"100 0 LINE"
);
},
{
closed = 1;
nodes = (
"200 265 LINE",
"184 237 OFFCURVE",
"160 230 OFFCURVE",
"120 230 CURVE",
"200.011 20 LINE"
);
},
{
closed = 1;
nodes = (
"144 107 LINE",
"155 139 LINE",
"45 111 LINE",
"71 81 LINE",
"89 160 LINE"
);
}
);
width = 240;
}
);
}
{
glyphname = "heh-ar.init";
layers = (
{
anchors = (
{
name = exit;
position = "{0, 0}";
}
);
layerId = "67aa4fb0-543e-4232-8202-ade6a11e0795";
paths = (
{
closed = 1;
nodes = (
"165 0 OFFCURVE",
"199.981 30 OFFCURVE",
"199.981 90 CURVE SMOOTH",
"199.981 139.672 OFFCURVE",
"155.172 180 OFFCURVE",
"99.981 180 CURVE SMOOTH",
"44.789 180 OFFCURVE",
"-0.02 140 OFFCURVE",
"-0.02 90 CURVE SMOOTH",
"-0.02 30 OFFCURVE",
"44.789 0 OFFCURVE",
"99.981 0 CURVE SMOOTH"
);
},
{
closed = 1;
nodes = (
"165 -110 OFFCURVE",
"199.981 -80 OFFCURVE",
"199.981 -20 CURVE SMOOTH",
"199.981 29.672 OFFCURVE",
"155.172 70 OFFCURVE",
"99.981 70 CURVE SMOOTH",
"44.789 70 OFFCURVE",
"-0.02 30 OFFCURVE",
"-0.02 -20 CURVE SMOOTH",
"-0.02 -80 OFFCURVE",
"44.789 -110 OFFCURVE",
"99.981 -110 CURVE SMOOTH"
);
},
{
closed = 1;
nodes = (
"88.964 -40 OFFCURVE",
"80.003 -31.038 OFFCURVE",
"80.003 -20 CURVE SMOOTH",
"80.003 -8.962 OFFCURVE",
"88.964 0 OFFCURVE",
"100.003 0 CURVE SMOOTH",
"111.041 0 OFFCURVE",
"120.003 -8.962 OFFCURVE",
"120.003 -20 CURVE SMOOTH",
"120.003 -31.038 OFFCURVE",
"111.041 -40 OFFCURVE",
"100.003 -40 CURVE SMOOTH"
);
},
{
closed = 1;
nodes = (
"140 0 LINE",
"140 70 LINE",
"-50 70 LINE",
"-50 0 LINE"
);
},
{
closed = 1;
nodes = (
"88.964 70 OFFCURVE",
"80.003 78.962 OFFCURVE",
"80.003 90 CURVE SMOOTH",
"80.003 101.038 OFFCURVE",
"88.964 110 OFFCURVE",
"100.003 110 CURVE SMOOTH",
"111.041 110 OFFCURVE",
"120.003 101.038 OFFCURVE",
"120.003 90 CURVE SMOOTH",
"120.003 78.962 OFFCURVE",
"111.041 70 OFFCURVE",
"100.003 70 CURVE SMOOTH"
);
},
{
closed = 1;
nodes = (
"200.011 215 LINE",
"180.011 180 OFFCURVE",
"140 180.031 OFFCURVE",
"100 180.031 CURVE",
"200.011 -20 LINE"
);
}
);
width = 240;
}
);
rightKerningGroup = heh.init;
}
{
glyphname = "heh-ar.isol";
layers = (
{
layerId = "67aa4fb0-543e-4232-8202-ade6a11e0795";
shapes = (
{
closed = 1;
nodes = (
(269,0,ls),
(275,0,o),
(290,0,o),
(290,11,cs),
(290,291,l),
(210,271,l),
(210,70,l),
(100,70,ls),
(78,70,o),
(62,77,o),
(52,90,c),
(0,0,l)
);
},
{
closed = 1;
nodes = (
(257,50,l),
(210,220,l),
(145,220,o),
(88,188,o),
(88,116,cs),
(88,83,o),
(100,59,o),
(114,50,c)
);
},
{
closed = 1;
nodes = (
(189,70,o),
(172,86,o),
(170,106,c),
(191,106,o),
(208,90,o),
(210,70,c)
);
},
{
closed = 1;
nodes = (
(172,134,o),
(189,150,o),
(210,150,c),
(208,130,o),
(191,114,o),
(170,114,c)
);
}
);
width = 330;
}
);
metricRight = "=heh-ar.init.5";
}
{
glyphname = "heh-ar.medi.1";
kernLeft = heh.medi;
layers = (
{
anchors = (
{
name = bottom;
pos = (100,-145);
},
{
name = entry;
pos = (240,0);
},
{
name = exit;
},
{
name = top;
pos = (100,275);
}
);
layerId = "67aa4fb0-543e-4232-8202-ade6a11e0795";
shapes = (
{
closed = 1;
nodes = (
(165,-110,o),
(200,-80,o),
(200,-20,cs),
(200,0,l),
(240,0,l),
(240,70,l),
(200,70,l),
(200,251,l),
(120,231,l),
(120,180,l),
(100,180,ls),
(45,180,o),
(0,140,o),
(0,90,cs),
(0,83,o),
(1,75,o),
(2,70,c),
(-50,70,l),
(-50,0,l),
(2,0,l),
(1,-6,o),
(0,-13,o),
(0,-20,cs),
(0,-80,o),
(45,-110,o),
(100,-110,cs)
);
},
{
closed = 1;
nodes = (
(89,-40,o),
(80,-31,o),
(80,-20,cs),
(80,-8,o),
(89,0,o),
(100,0,cs),
(110,0,o),
(120,-8,o),
(120,-20,cs),
(120,-31,o),
(111,-40,o),
(100,-40,cs)
);
},
{
closed = 1;
nodes = (
(89,70,o),
(80,79,o),
(80,90,cs),
(80,101,o),
(89,110,o),
(100,110,cs),
(111,110,o),
(120,101,o),
(120,90,cs),
(120,79,o),
(111,70,o),
(100,70,cs)
);
}
);
width = 240;
}
);
}
{
glyphname = "heh-ar.medi.4";
layers = (
{
anchors = (
{
name = bottom;
pos = (100,-35);
},
{
name = entry;
pos = (240,0);
},
{
name = exit;
},
{
name = top;
pos = (100,275);
}
);
layerId = "67aa4fb0-543e-4232-8202-ade6a11e0795";
shapes = (
{
closed = 1;
nodes = (
(240,0,l),
(240,70,l),
(200,70,l),
(200,255,l),
(180,220,o),
(160,220,o),
(120,220,cs),
(55,220,o),
(-2,188,o),
(-2,116,cs),
(-2,97,o),
(2,82,o),
(8,70,c),
(-20,70,l),
(-20,0,l)
);
},
{
closed = 1;
nodes = (
(99,70,o),
(82,86,o),
(80,106,c),
(101,106,o),
(118,90,o),
(120,70,c)
);
},
{
closed = 1;
nodes = (
(82,134,o),
(99,150,o),
(120,150,c),
(118,130,o),
(101,114,o),
(80,114,c)
);
}
);
width = 240;
},
{
anchors = (
{
name = entry;
pos = (240,0);
},
{
name = exit;
}
);
associatedMasterId = "67aa4fb0-543e-4232-8202-ade6a11e0795";
layerId = "B58EBAD8-E2B7-44B7-8036-0293E7A6FE09";
name = "17 Jun 25 at 19:15";
shapes = (
{
closed = 1;
nodes = (
(240,0,l),
(240,70,l),
(200,70,l),
(200,255,l),
(180,220,o),
(160,220,o),
(120,220,c),
(120,70,l),
(-20,70,l),
(-20,0,l)
);
},
{
closed = 1;
nodes = (
(167,50,l),
(186,65,o),
(190,97,o),
(190,125,cs),
(190,173,o),
(161,220,o),
(120,220,cs),
(55,220,o),
(-2,188,o),
(-2,116,cs),
(-2,83,o),
(10,59,o),
(24,50,c)
);
},
{
closed = 1;
nodes = (
(99,70,o),
(82,86,o),
(80,106,c),
(101,106,o),
(118,90,o),
(120,70,c)
);
},
{
closed = 1;
nodes = (
(82,134,o),
(99,150,o),
(120,150,c),
(118,130,o),
(101,114,o),
(80,114,c)
);
}
);
width = 240;
}
);
}
{
glyphname = "heh-ar.medi.6";
layers = (
{
anchors = (
{
name = bottom;
pos = (100,-35);
},
{
name = entry;
pos = (240,0);
},
{
name = exit;
},
{
name = top;
pos = (100,285);
}
);
layerId = "67aa4fb0-543e-4232-8202-ade6a11e0795";
shapes = (
{
closed = 1;
nodes = (
(240,0,l),
(240,70,l),
(200,70,l),
(200,265,l),
(184,237,o),
(160,230,o),
(120,230,cs),
(46,230,o),
(0,190,o),
(0,127,cs),
(0,104,o),
(6,84,o),
(12,70,c),
(-20,70,l),
(-20,0,l)
);
},
{
closed = 1;
nodes = (
(80,100,l),
(120,110,l),
(111,70,l)
);
},
{
closed = 1;
nodes = (
(89,160,l),
(120,130,l),
(80,120,l)
);
}
);
width = 240;
},
{
anchors = (
{
name = entry;
pos = (240,0);
},
{
name = exit;
}
);
associatedMasterId = "67aa4fb0-543e-4232-8202-ade6a11e0795";
layerId = "352A398A-1550-46B4-9CF8-CB95260C1F60";
name = "17 Jun 25 at 19:15";
shapes = (
{
closed = 1;
nodes = (
(167,50,l),
(186,65,o),
(190,97,o),
(190,125,cs),
(190,173,o),
(161,230,o),
(120,230,cs),
(46,230,o),
(0,190,o),
(0,127,cs),
(0,89,o),
(17,60,o),
(22,50,c)
);
},
{
closed = 1;
nodes = (
(240,0,l),
(240,70,l),
(200,70,l),
(200,265,l),
(184,237,o),
(160,230,o),
(120,230,c),
(120,70,l),
(-20,70,l),
(-20,0,l)
);
},
{
closed = 1;
nodes = (
(56,123,l),
(45,91,l),
(155,119,l),
(129,149,l),
(111,70,l)
);
},
{
closed = 1;
nodes = (
(144,107,l),
(155,139,l),
(45,111,l),
(71,81,l),
(89,160,l)
);
}
);
width = 240;
}
);
}
{
glyphname = "heh-ar.medi.7";
layers = (
{
anchors = (
{
name = entry;
pos = (240,0);
},
{
name = exit;
}
);
layerId = "67aa4fb0-543e-4232-8202-ade6a11e0795";
shapes = (
{
closed = 1;
nodes = (
(167,50,l),
(186,65,o),
(190,97,o),
(190,125,cs),
(190,173,o),
(161,230,o),
(120,230,cs),
(46,230,o),
(0,190,o),
(0,127,cs),
(0,89,o),
(17,60,o),
(22,50,c)
);
},
{
closed = 1;
nodes = (
(240,0,l),
(240,70,l),
(200,70,l),
(200,301,l),
(120,281,l),
(120,70,l),
(-20,70,l),
(-20,0,l)
);
},
{
closed = 1;
nodes = (
(56,123,l),
(45,91,l),
(155,119,l),
(129,149,l),
(111,70,l)
);
},
{
closed = 1;
nodes = (
(144,107,l),
(155,139,l),
(45,111,l),
(71,81,l),
(89,160,l)
);
}
);
width = 240;
}
);
}
{
glyphname = "heh-ar.medi";
layers = (
{
anchors = (
{
name = entry;
position = "{240, 0}";
},
{
name = exit;
position = "{0, 0}";
}
);
layerId = "67aa4fb0-543e-4232-8202-ade6a11e0795";
paths = (
{
closed = 1;
nodes = (
"165 -110 OFFCURVE",
"200 -80 OFFCURVE",
"200 -20 CURVE SMOOTH",
"200 0 LINE",
"240 0 LINE",
"240 70 LINE",
"200 70 LINE",
"200 215 LINE",
"180 180 OFFCURVE",
"140 180 OFFCURVE",
"100 180 CURVE SMOOTH",
"45 180 OFFCURVE",
"0 140 OFFCURVE",
"0 90 CURVE SMOOTH",
"0 83 OFFCURVE",
"1 75 OFFCURVE",
"2 70 CURVE",
"-50 70 LINE",
"-50 0 LINE",
"2 0 LINE",
"1 -6 OFFCURVE",
"0 -13 OFFCURVE",
"0 -20 CURVE SMOOTH",
"0 -80 OFFCURVE",
"45 -110 OFFCURVE",
"100 -110 CURVE SMOOTH"
);
},
{
closed = 1;
nodes = (
"89 -40 OFFCURVE",
"80 -31 OFFCURVE",
"80 -20 CURVE SMOOTH",
"80 -8 OFFCURVE",
"89 0 OFFCURVE",
"100 0 CURVE SMOOTH",
"110 0 OFFCURVE",
"120 -8 OFFCURVE",
"120 -20 CURVE SMOOTH",
"120 -31 OFFCURVE",
"111 -40 OFFCURVE",
"100 -40 CURVE SMOOTH"
);
},
{
closed = 1;
nodes = (
"89 70 OFFCURVE",
"80 79 OFFCURVE",
"80 90 CURVE SMOOTH",
"80 101 OFFCURVE",
"89 110 OFFCURVE",
"100 110 CURVE SMOOTH",
"111 110 OFFCURVE",
"120 101 OFFCURVE",
"120 90 CURVE SMOOTH",
"120 79 OFFCURVE",
"111 70 OFFCURVE",
"100 70 CURVE SMOOTH"
);
}
);
width = 240;
}
);
rightKerningGroup = heh.medi;
}
{
glyphname = hyphen;
layers = (
{
layerId = "67aa4fb0-543e-4232-8202-ade6a11e0795";
paths = (
{
closed = 1;
nodes = (
"130 140 LINE",
"130 180 LINE",
"0 180 LINE",
"0 140 LINE"
);
}
);
width = 170;
}
);
unicode = "002D,2010,2011,00AD";
}
{
glyphname = i;
layers = (
{
layerId = "67aa4fb0-543e-4232-8202-ade6a11e0795";
paths = (
{
closed = 1;
nodes = (
"107 0 OFFCURVE",
"138 16 OFFCURVE",
"160 50 CURVE",
"151 46 OFFCURVE",
"139 43 OFFCURVE",
"127 43 CURVE SMOOTH",
"103 43 OFFCURVE",
"80 54 OFFCURVE",
"80 80 CURVE SMOOTH",
"80 200 LINE",
"0 180 LINE",
"0 80 LINE SMOOTH",
"0 30 OFFCURVE",
"37 0 OFFCURVE",
"77 0 CURVE SMOOTH"
);
},
{
closed = 1;
nodes = (
"80 239 LINE",
"80 259 LINE",
"0 238 LINE",
"0 218 LINE"
);
}
);
width = 200;
}
);
unicode = "0069,0049";
}
{
glyphname = j;
layers = (
{
layerId = "67aa4fb0-543e-4232-8202-ade6a11e0795";
paths = (
{
closed = 1;
nodes = (
"0 218 LINE",
"0 238 LINE",
"80 259 LINE",
"80 239 LINE"
);
},
{
closed = 1;
nodes = (
"-30 -240 OFFCURVE",
"-10 -250 OFFCURVE",
"12 -250 CURVE SMOOTH",
"50 -250 OFFCURVE",
"80 -220 OFFCURVE",
"80 -170 CURVE SMOOTH",
"80 -100 LINE",
"0 -100 LINE",
"0 -180 LINE SMOOTH",
"0 -210 OFFCURVE",
"-13 -230 OFFCURVE",
"-40 -230 CURVE"
);
},
{
closed = 1;
nodes = (
"80 200 LINE",
"0 180 LINE",
"0 -110 LINE",
"80 -110 LINE"
);
}
);
width = 120;
}
);
unicode = "006A,004A";
}
{
glyphname = k.1;
layers = (
{
layerId = "67aa4fb0-543e-4232-8202-ade6a11e0795";
paths = (
{
closed = 1;
nodes = (
"80 0 LINE",
"80 90 LINE SMOOTH",
"80 101 OFFCURVE",
"89 110 OFFCURVE",
"100 110 CURVE SMOOTH",
"111 110 OFFCURVE",
"120 101 OFFCURVE",
"120 90 CURVE SMOOTH",
"120 0 LINE",
"200 0 LINE",
"200 90 LINE SMOOTH",
"200 140 OFFCURVE",
"155 180 OFFCURVE",
"100 180 CURVE SMOOTH",
"80 180 LINE",
"80 560 LINE",
"0 540 LINE",
"0 0 LINE"
);
},
{
closed = 1;
nodes = (
"256 136 OFFCURVE",
"242 320 OFFCURVE",
"124 320 CURVE SMOOTH",
"89 320 OFFCURVE",
"54 295 OFFCURVE",
"40 250 CURVE",
"58 257 OFFCURVE",
"74 260 OFFCURVE",
"87 260 CURVE SMOOTH",
"124 260 OFFCURVE",
"140 237 OFFCURVE",
"140 216 CURVE SMOOTH",
"140 197 OFFCURVE",
"128 180 OFFCURVE",
"107 180 CURVE SMOOTH",
"71 180 LINE",
"140 110 LINE"
);
}
);
width = 260;
}
);
}
{
glyphname = k;
layers = (
{
components = (
{
alignment = -1;
name = h;
}
);
layerId = "67aa4fb0-543e-4232-8202-ade6a11e0795";
paths = (
{
closed = 1;
nodes = (
"256 136 OFFCURVE",
"242 320 OFFCURVE",
"124 320 CURVE SMOOTH",
"89 320 OFFCURVE",
"54 295 OFFCURVE",
"40 250 CURVE",
"58 257 OFFCURVE",
"74 260 OFFCURVE",
"87 260 CURVE SMOOTH",
"124 260 OFFCURVE",
"140 237 OFFCURVE",
"140 216 CURVE SMOOTH",
"140 197 OFFCURVE",
"128 180 OFFCURVE",
"107 180 CURVE SMOOTH",
"21 180 LINE",
"21 110 LINE",
"140 110 LINE"
);
}
);
width = 260;
}
);
unicode = "006B,004B";
}
{
glyphname = "kaf-ar.2";
layers = (
{
components = (
{
name = _dal;
transform = "{1, 0, 0, 1, 40, 0}";
}
);
layerId = "67aa4fb0-543e-4232-8202-ade6a11e0795";
paths = (
{
closed = 1;
nodes = (
"116 70 LINE",
"40.4 70 LINE",
"0 0 LINE",
"116 0 LINE"
);
},
{
closed = 1;
nodes = (
"186 180 LINE",
"120 180 LINE",
"147 250 LINE",
"144.4 250 LINE",
"63.5 110 LINE",
"186 110 LINE"
);
}
);
width = 640;
}
);
rightKerningGroup = dal;
}
{
glyphname = "kaf-ar.fina.1";
kernLeft = dal;
kernRight = waw;
layers = (
{
anchors = (
{
name = bottom;
pos = (320,-35);
},
{
name = top;
pos = (320,255);
}
);
layerId = "67aa4fb0-543e-4232-8202-ade6a11e0795";
shapes = (
{
closed = 1;
nodes = (
(640,0,l),
(640,70,l),
(597,70,l),
(582,166,o),
(524,180,o),
(486,180,cs),
(126,180,l),
(167,254,o),
(189,342,o),
(189,443,cs),
(189,480,o),
(186,520,o),
(180,560,c),
(100,480,l),
(107,439,o),
(111,398,o),
(111,355,cs),
(111,272,o),
(96,187,o),
(62,110,c),
(476,110,ls),
(498,110,o),
(516,92,o),
(516,70,c),
(41,70,l),
(0,0,l)
);
}
);
width = 640;
}
);
}
{
glyphname = "kaf-ar.fina";
layers = (
{
anchors = (
{
name = top;
position = "{320, 255}";
}
);
layerId = "67aa4fb0-543e-4232-8202-ade6a11e0795";
paths = (
{
closed = 1;
nodes = (
"640 0 LINE",
"640 70 LINE",
"597 70 LINE",
"582 166 OFFCURVE",
"524 180 OFFCURVE",
"486 180 CURVE SMOOTH",
"120 180 LINE",
"120 560 LINE",
"40 540 LINE",
"40 110 LINE",
"476 110 LINE SMOOTH",
"498 110 OFFCURVE",
"516 92 OFFCURVE",
"516 70 CURVE",
"41 70 LINE",
"0 0 LINE"
);
}
);
width = 640;
}
);
leftKerningGroup = waw;
rightKerningGroup = dal;
}
{
glyphname = "kaf-ar.init.2";
layers = (
{
anchors = (
{
name = exit;
position = "{0, 0}";
}
);
components = (
{
name = _dal;
},
{
name = _alef;
}
);
layerId = "67aa4fb0-543e-4232-8202-ade6a11e0795";
paths = (
{
closed = 1;
nodes = (
"54 0 LINE",
"54 70 LINE",
"-20 70 LINE",
"-20 0 LINE"
);
},
{
closed = 1;
nodes = (
"135 180 LINE",
"0 180 LINE",
"0 110 LINE",
"136 110 LINE"
);
}
);
width = 600;
}
);
}
{
glyphname = "kaf-ar.medi.1";
layers = (
{
anchors = (
{
name = entry;
position = "{600, 0}";
},
{
name = exit;
position = "{0, 0}";
},
{
name = top;
position = "{280, 255}";
}
);
layerId = "67aa4fb0-543e-4232-8202-ade6a11e0795";
paths = (
{
closed = 1;
nodes = (
"600 0 LINE",
"600 70 LINE",
"557 70 LINE",
"542 166 OFFCURVE",
"484 180 OFFCURVE",
"446 180 CURVE SMOOTH",
"80 180 LINE",
"80 560 LINE",
"0 540 LINE",
"0 110 LINE",
"436 110 LINE SMOOTH",
"458 110 OFFCURVE",
"476 92 OFFCURVE",
"476 70 CURVE",
"-20 70 LINE",
"-20 0 LINE"
);
}
);
width = 600;
}
);
leftKerningGroup = waw;
leftMetricsKey = "=kaf-ar.init.1";
widthMetricsKey = "kaf-ar.init.2";
}
{
glyphname = "kaf-ar.medi.2";
kernRight = waw;
layers = (
{
anchors = (
{
name = entry;
pos = (600,0);
},
{
name = exit;
},
{
name = top;
pos = (280,255);
}
);
layerId = "67aa4fb0-543e-4232-8202-ade6a11e0795";
shapes = (
{
closed = 1;
nodes = (
(600,0,l),
(600,70,l),
(557,70,l),
(542,166,o),
(484,180,o),
(446,180,cs),
(86,180,l),
(127,254,o),
(149,342,o),
(149,443,cs),
(149,480,o),
(146,519,o),
(140,560,c),
(60,480,l),
(67,440,o),
(71,398,o),
(71,355,cs),
(71,272,o),
(56,187,o),
(22,110,c),
(436,110,ls),
(458,110,o),
(476,92,o),
(476,70,c),
(-20,70,l),
(-20,0,l)
);
}
);
width = 600;
}
);
metricLeft = "=kaf-ar.init.2";
metricWidth = "=kaf-ar.init.1";
}
{
glyphname = "kashida-ar.half";
layers = (
{
anchors = (
{
name = entry;
pos = (40,0);
},
{
name = exit;
}
);
layerId = "67aa4fb0-543e-4232-8202-ade6a11e0795";
shapes = (
{
closed = 1;
nodes = (
(40,0,l),
(40,70,l),
(-20,70,l),
(-20,0,l)
);
}
);
width = 40;
}
);
}
{
glyphname = "lam-ar.fina";
kernLeft = bowel;
layers = (
{
anchors = (
{
name = bottom;
pos = (18,-285);
},
{
name = top;
pos = (110,569);
}
);
layerId = "67aa4fb0-543e-4232-8202-ade6a11e0795";
shapes = (
{
closed = 1;
nodes = (
(112,-250,ls),
(135,-250,o),
(150,-235,o),
(150,-210,cs),
(150,0,l),
(190,0,l),
(190,70,l),
(168,70,o),
(150,88,o),
(150,110,cs),
(150,560,l),
(70,540,l),
(70,-180,l),
(-30,-180,ls),
(-50,-180,o),
(-67,-175,o),
(-78,-160,c),
(-130,-250,l)
);
}
);
width = 190;
},
{
associatedMasterId = "67aa4fb0-543e-4232-8202-ade6a11e0795";
layerId = "6CE1B3AD-BBBE-4E2D-A3B7-6C30810E66F9";
name = "17 Jun 25 at 19:12";
shapes = (
{
closed = 1;
nodes = (
(150,560,l),
(70,540,l),
(70,-180,l),
(-30,-180,ls),
(-50,-180,o),
(-67,-175,o),
(-78,-160,c),
(-130,-250,l),
(112,-250,ls),
(135,-250,o),
(150,-235,o),
(150,-210,cs)
);
},
{
closed = 1;
nodes = (
(190,0,l),
(190,70,l),
(168,70,o),
(150,88,o),
(150,110,c),
(110,110,l),
(110,0,l)
);
}
);
width = 190;
}
);
metricWidth = "=lam-ar";
}
{
glyphname = "lam-ar.init.hah";
layers = (
{
anchors = (
{
name = exit;
pos = (-20,-2);
}
);
layerId = "67aa4fb0-543e-4232-8202-ade6a11e0795";
shapes = (
{
closed = 1;
nodes = (
(37,0,o),
(80,30,o),
(80,70,cs),
(80,450,l),
(0,430,l),
(0,70,ls),
(0,51,o),
(0,25,o),
(-20,25,c),
(-20,0,l)
);
}
);
width = 80;
}
);
}
{
glyphname = "lam-ar.init.hah2";
layers = (
{
anchors = (
{
name = exit;
position = "{-20, -2}";
}
);
layerId = "67aa4fb0-543e-4232-8202-ade6a11e0795";
paths = (
{
closed = 1;
nodes = (
"36.774 0 OFFCURVE",
"80 30.11 OFFCURVE",
"80 70 CURVE",
"80 340 LINE",
"0 320 LINE",
"0 70 LINE",
"0 51.332 OFFCURVE",
"-0.2 25.365 OFFCURVE",
"-20 24.696 CURVE",
"-20 0 LINE"
);
}
);
width = 80;
}
);
}
{
glyphname = "lam-ar.init.short2";
layers = (
{
anchors = (
{
name = exit;
position = "{0, 0}";
}
);
layerId = "67aa4fb0-543e-4232-8202-ade6a11e0795";
paths = (
{
closed = 1;
nodes = (
"42 0 LINE",
"65 0 OFFCURVE",
"80 15 OFFCURVE",
"80 40 CURVE SMOOTH",
"80 340 LINE",
"0 320 LINE",
"0 70 LINE",
"-20 70 LINE",
"-20 0 LINE"
);
}
);
width = 120;
}
);
widthMetricsKey = "=lam-ar.init";
rightMetricsKey = "=lam-ar.init";
}
{
glyphname = "lam-ar.medi";
layers = (
{
anchors = (
{
name = entry;
pos = (120,0);
},
{
name = exit;
}
);
layerId = "67aa4fb0-543e-4232-8202-ade6a11e0795";
shapes = (
{
closed = 1;
nodes = (
(80,560,l),
(0,540,l),
(0,70,l),
(-20,70,l),
(-20,0,l),
(120,0,l),
(120,70,l),
(98,70,o),
(80,88,o),
(80,110,cs)
);
}
);
width = 120;
}
);
metricWidth = "=lam-ar.init";
}
{
glyphname = "lam-ar.medi.short";
layers = (
{
anchors = (
{
name = entry;
position = "{120, 0}";
},
{
name = exit;
position = "{0, 0}";
}
);
layerId = "67aa4fb0-543e-4232-8202-ade6a11e0795";
paths = (
{
closed = 1;
nodes = (
"120 0 LINE",
"120 70 LINE",
"98 70 OFFCURVE",
"80 88 OFFCURVE",
"80 110 CURVE SMOOTH",
"80 450 LINE",
"0 430 LINE",
"0 70 LINE",
"-20 70 LINE",
"-20 0 LINE"
);
}
);
width = 120;
}
);
widthMetricsKey = "=lam-ar.init";
rightMetricsKey = "=lam-ar.medi";
}
{
glyphname = "lam-ar.medi.yeh";
layers = (
{
anchors = (
{
name = bottom;
position = "{44, -20}";
},
{
name = exit;
position = "{0, 0}";
},
{
name = top;
position = "{40, 569}";
}
);
layerId = "67aa4fb0-543e-4232-8202-ade6a11e0795";
paths = (
{
closed = 1;
nodes = (
"120 0 LINE",
"120 70 LINE",
"90 70 LINE SMOOTH",
"83 70 OFFCURVE",
"80 73 OFFCURVE",
"80 80 CURVE SMOOTH",
"80 560 LINE",
"0 540 LINE",
"0 0 LINE"
);
}
);
width = 120;
}
);
widthMetricsKey = "behDotless-ar.medi.yeh";
rightMetricsKey = "behDotless-ar.medi.yeh";
}
{
glyphname = "lam_alef-ar.1";
layers = (
{
associatedMasterId = "67aa4fb0-543e-4232-8202-ade6a11e0795";
layerId = "abf4b10a-26e5-432c-8593-bf37389dfdfd";
widthMetricsKey = "=4*80+40";
name = Regular.1;
paths = (
{
closed = 1;
nodes = (
"100 0 LINE",
"215 0 LINE",
"215 70 LINE",
"70 70 LINE"
);
},
{
closed = 1;
nodes = (
"80 560 LINE",
"0 540 LINE",
"0 0 LINE",
"135 0 LINE",
"135 70 LINE",
"80 70 LINE"
);
},
{
closed = 1;
nodes = (
"-212.842 460.029 LINE",
"-242.414 382.699 LINE",
"224.161 45.577 LINE",
"271.014 110.422 LINE"
);
}
);
width = 360;
},
{
anchors = (
{
name = bottom_1;
position = "{171, -20}";
},
{
name = bottom_2;
position = "{44, -20}";
},
{
name = caret_1;
position = "{0, 0}";
},
{
name = top_1;
position = "{40, 570}";
},
{
name = top_2;
position = "{-197, 500}";
}
);
guideLines = (
{
position = "{0, 150}";
showMeasurement = 1;
},
{
position = "{0, 110}";
},
{
angle = 90;
position = "{215, 0}";
},
{
angle = 90;
position = "{135, 0}";
},
{
position = "{0, 460}";
}
);
layerId = "67aa4fb0-543e-4232-8202-ade6a11e0795";
paths = (
{
closed = 1;
nodes = (
"215 0 LINE",
"215 100 LINE SMOOTH",
"215 129 OFFCURVE",
"202 160 OFFCURVE",
"172 182 CURVE SMOOTH",
"-213 460 LINE",
"-242 383 LINE",
"126 117 LINE",
"130 113 OFFCURVE",
"135 108 OFFCURVE",
"135 100 CURVE SMOOTH",
"135 30 LINE",
"175 70 LINE",
"80 70 LINE",
"80 560 LINE",
"0 540 LINE",
"0 0 LINE"
);
}
);
width = 255;
}
);
rightKerningGroup = lam_alef.1;
}
{
glyphname = "lam_alef-ar.3";
layers = (
{
anchors = (
{
name = bottom_1;
pos = (220,-20);
},
{
name = bottom_2;
pos = (64,-20);
},
{
name = caret_1;
pos = (140,0);
},
{
name = top_1;
pos = (201,570);
},
{
name = top_2;
pos = (80,540);
}
);
guides = (
{
pos = (-142,210);
},
{
pos = (-142,60);
}
);
layerId = "67aa4fb0-543e-4232-8202-ade6a11e0795";
shapes = (
{
closed = 1;
nodes = (
(280,0,l),
(120,210,l),
(120,530,l),
(40,510,l),
(40,210,l),
(180,70,l),
(163,57,o),
(117,57,o),
(100,70,c),
(240,210,l),
(240,560,l),
(160,540,l),
(160,210,l),
(0,0,l)
);
}
);
width = 320;
}
);
}
{
glyphname = "lam_alef-ar.4";
layers = (
{
anchors = (
{
name = bottom_1;
position = "{260, -20}";
},
{
name = bottom_2;
position = "{104, -20}";
},
{
name = caret_1;
position = "{180, 0}";
},
{
name = top_1;
position = "{241, 570}";
},
{
name = top_2;
position = "{120, 570}";
}
);
guideLines = (
{
position = "{-102, 210}";
},
{
position = "{-102, 60}";
}
);
layerId = "67aa4fb0-543e-4232-8202-ade6a11e0795";
paths = (
{
closed = 1;
nodes = (
"360 0 LINE",
"282 57 OFFCURVE",
"160 172 OFFCURVE",
"160 235 CURVE SMOOTH",
"160 560 LINE",
"80 540 LINE",
"80 235 LINE SMOOTH",
"80 217 OFFCURVE",
"96 194 OFFCURVE",
"109 181 CURVE SMOOTH",
"220 70 LINE",
"140 70 LINE",
"251 181 LINE SMOOTH",
"264 194 OFFCURVE",
"280 212 OFFCURVE",
"280 235 CURVE SMOOTH",
"280 560 LINE",
"200 540 LINE",
"200 235 LINE SMOOTH",
"200 172 OFFCURVE",
"78 57 OFFCURVE",
"0 0 CURVE"
);
}
);
width = 400;
},
{
anchors = (
{
name = bottom_1;
position = "{260, 0}";
},
{
name = bottom_2;
position = "{104, 0}";
},
{
name = caret;
position = "{180, 0}";
},
{
name = top_1;
position = "{241, 570}";
},
{
name = top_2;
position = "{120, 570}";
}
);
associatedMasterId = "67aa4fb0-543e-4232-8202-ade6a11e0795";
guideLines = (
{
position = "{-102, 210}";
},
{
position = "{-102, 60}";
}
);
layerId = "C46413DF-93AE-4F9A-9C2C-42A8FE2320D2";
name = "Mar 10 20, 07:19";
paths = (
{
closed = 1;
nodes = (
"320 0 LINE",
"160 210 LINE",
"160 530 LINE",
"80 510 LINE",
"80 210 LINE",
"220 70 LINE",
"203 57 OFFCURVE",
"157 57 OFFCURVE",
"140 70 CURVE",
"280 210 LINE",
"280 560 LINE",
"200 540 LINE",
"200 210 LINE",
"40 0 LINE"
);
}
);
visible = 1;
width = 400;
}
);
}
{
glyphname = "lam_alef-ar.5";
layers = (
{
anchors = (
{
name = bottom_1;
position = "{260, -20}";
},
{
name = bottom_2;
position = "{104, -20}";
},
{
name = caret_1;
position = "{180, 0}";
},
{
name = top_1;
position = "{241, 570}";
},
{
name = top_2;
position = "{120, 540}";
}
);
guideLines = (
{
position = "{-102, 210}";
},
{
position = "{-102, 60}";
}
);
layerId = "67aa4fb0-543e-4232-8202-ade6a11e0795";
paths = (
{
closed = 1;
nodes = (
"360 0 LINE",
"282 57 OFFCURVE",
"160 172 OFFCURVE",
"160 235 CURVE SMOOTH",
"160 530 LINE",
"80 510 LINE",
"80 235 LINE SMOOTH",
"80 217 OFFCURVE",
"96 194 OFFCURVE",
"109 181 CURVE SMOOTH",
"220 70 LINE",
"193 70 OFFCURVE",
"167 70 OFFCURVE",
"140 70 CURVE",
"251 181 LINE SMOOTH",
"264 194 OFFCURVE",
"280 212 OFFCURVE",
"280 235 CURVE SMOOTH",
"280 560 LINE",
"200 540 LINE",
"200 235 LINE SMOOTH",
"200 172 OFFCURVE",
"78 57 OFFCURVE",
"0 0 CURVE"
);
}
);
width = 400;
}
);
}
{
glyphname = "lam_alef-ar.fina.1";
layers = (
{
anchors = (
{
name = bottom_1;
position = "{171, -20}";
},
{
name = bottom_2;
position = "{44, -20}";
},
{
name = caret_1;
position = "{0, 0}";
},
{
name = top_1;
position = "{40, 570}";
},
{
name = top_2;
position = "{-197, 500}";
}
);
layerId = "67aa4fb0-543e-4232-8202-ade6a11e0795";
paths = (
{
closed = 1;
nodes = (
"255 0 LINE",
"255 70 LINE",
"215 70 LINE",
"215 100 LINE SMOOTH",
"215 129 OFFCURVE",
"202 160 OFFCURVE",
"172 182 CURVE SMOOTH",
"-213 460 LINE",
"-242 383 LINE",
"126 117 LINE",
"130 113 OFFCURVE",
"135 108 OFFCURVE",
"135 100 CURVE SMOOTH",
"135 30 LINE",
"175 70 LINE",
"80 70 LINE",
"80 560 LINE",
"0 540 LINE",
"0 0 LINE"
);
}
);
width = 255;
}
);
rightKerningGroup = lam_alef.1;
}
{
glyphname = "lam_alef-ar.fina.2";
layers = (
{
anchors = (
{
name = bottom_1;
pos = (220,-20);
},
{
name = bottom_2;
pos = (64,-20);
},
{
name = caret_1;
pos = (140,0);
},
{
name = exit;
pos = (240,0);
},
{
name = top_1;
pos = (201,570);
},
{
name = top_2;
pos = (80,570);
}
);
layerId = "67aa4fb0-543e-4232-8202-ade6a11e0795";
shapes = (
{
closed = 1;
nodes = (
(320,0,l),
(320,70,l),
(227,70,l),
(172,142,l),
(240,210,l),
(240,560,l),
(160,540,l),
(160,210,l),
(140,184,l),
(120,210,l),
(120,560,l),
(40,540,l),
(40,210,l),
(108,142,l),
(0,0,l)
);
},
{
closed = 1;
nodes = (
(140,110,l),
(180,70,l),
(163,57,o),
(117,57,o),
(100,70,c)
);
}
);
width = 320;
},
{
anchors = (
{
name = bottom_1;
pos = (220,-20);
},
{
name = bottom_2;
pos = (64,-20);
},
{
name = caret_1;
pos = (140,0);
},
{
name = exit;
pos = (240,0);
},
{
name = top_1;
pos = (201,570);
},
{
name = top_2;
pos = (80,570);
}
);
associatedMasterId = "67aa4fb0-543e-4232-8202-ade6a11e0795";
layerId = "4005E9DD-9891-41C8-800C-2E07E3EEDA8A";
name = "17 Jun 25 at 19:16";
shapes = (
{
closed = 1;
nodes = (
(320,0,l),
(320,70,l),
(191,70,l),
(249,41,l),
(120,210,l),
(120,560,l),
(40,540,l),
(40,210,l),
(180,70,l),
(163,57,o),
(117,57,o),
(100,70,c),
(240,210,l),
(240,560,l),
(160,540,l),
(160,210,l),
(0,0,l)
);
}
);
width = 320;
}
);
metricWidth = "=lam_alef-ar.2";
}
{
glyphname = "lam_alef-ar.fina.4";
layers = (
{
anchors = (
{
name = bottom_1;
pos = (260,-20);
},
{
name = bottom_2;
pos = (104,-20);
},
{
name = caret_1;
pos = (180,0);
},
{
name = top_1;
pos = (241,570);
},
{
name = top_2;
pos = (120,570);
}
);
layerId = "67aa4fb0-543e-4232-8202-ade6a11e0795";
shapes = (
{
closed = 1;
nodes = (
(400,0,l),
(400,70,l),
(276,70,l),
(252,92,o),
(229,116,o),
(210,140,c),
(251,181,ls),
(264,194,o),
(280,212,o),
(280,235,cs),
(280,560,l),
(200,540,l),
(200,235,ls),
(200,219,o),
(193,201,o),
(180,180,c),
(167,201,o),
(160,219,o),
(160,235,cs),
(160,560,l),
(80,540,l),
(80,235,ls),
(80,217,o),
(96,194,o),
(109,181,cs),
(150,140,l),
(108,88,o),
(47,34,o),
(0,0,c)
);
},
{
closed = 1;
nodes = (
(180,110,l),
(220,70,l),
(140,70,l)
);
}
);
width = 400;
},
{
anchors = (
{
name = bottom_1;
pos = (260,-20);
},
{
name = bottom_2;
pos = (104,-20);
},
{
name = caret_1;
pos = (180,0);
},
{
name = top_1;
pos = (241,570);
},
{
name = top_2;
pos = (120,570);
}
);
associatedMasterId = "67aa4fb0-543e-4232-8202-ade6a11e0795";
layerId = "A4CC1713-2F39-4AB6-A215-0F82A46A440B";
name = "17 Jun 25 at 19:17";
shapes = (
{
closed = 1;
nodes = (
(400,0,l),
(400,70,l),
(240,70,l),
(297,51,l),
(230,110,o),
(160,187,o),
(160,235,cs),
(160,560,l),
(80,540,l),
(80,235,ls),
(80,217,o),
(96,194,o),
(109,181,cs),
(220,70,l),
(193,70,o),
(167,70,o),
(140,70,c),
(251,181,ls),
(264,194,o),
(280,212,o),
(280,235,cs),
(280,560,l),
(200,540,l),
(200,235,ls),
(200,172,o),
(78,57,o),
(0,0,c)
);
}
);
width = 400;
}
);
metricWidth = "=lam_alef-ar.4";
}
{
glyphname = "lam_alef-ar.fina";
layers = (
{
anchors = (
{
name = bottom_1;
position = "{270, -20}";
},
{
name = bottom_2;
position = "{60, -20}";
},
{
name = caret_1;
position = "{174, 0}";
},
{
name = top_1;
position = "{270, 560}";
},
{
name = top_2;
position = "{-10, 540}";
}
);
layerId = "67aa4fb0-543e-4232-8202-ade6a11e0795";
paths = (
{
closed = 1;
nodes = (
"360 0 LINE",
"360 70 LINE",
"280 70 LINE",
"20 520 LINE",
"-40 463 LINE",
"187 70 LINE",
"70 70 LINE",
"0 0 LINE"
);
},
{
closed = 1;
nodes = (
"189.398 79.542 OFFCURVE",
"299.918 342.295 OFFCURVE",
"322 560 CURVE",
"230 520 LINE",
"222.518 315.326 OFFCURVE",
"161.473 181.973 OFFCURVE",
"0 0 CURVE"
);
}
);
width = 360;
}
);
}
{
glyphname = "lam_alef-ar";
layers = (
{
associatedMasterId = "67aa4fb0-543e-4232-8202-ade6a11e0795";
layerId = "abf4b10a-26e5-432c-8593-bf37389dfdfd";
name = Regular.1;
paths = (
{
closed = 1;
nodes = (
"0 0 LINE",
"320 0 LINE",
"260 70 LINE",
"0 70 LINE"
);
},
{
closed = 1;
nodes = (
"2 0 LINE",
"230 520 LINE",
"302 560 LINE",
"56 0 LINE"
);
},
{
closed = 1;
nodes = (
"320 0 LINE",
"20.071 520 LINE",
"-50 480 LINE",
"227 0 LINE"
);
},
{
closed = 1;
nodes = (
"2 0 LINE",
"230 520 LINE",
"322 560 LINE",
"76 0 LINE"
);
},
{
closed = 1;
nodes = (
"76 0 LINE",
"304 520 LINE",
"371 560 LINE",
"125 0 LINE"
);
}
);
width = 360;
},
{
anchors = (
{
name = bottom_1;
position = "{270, -20}";
},
{
name = bottom_2;
position = "{60, -20}";
},
{
name = caret_1;
position = "{174, 0}";
},
{
name = top_1;
position = "{270, 560}";
},
{
name = top_2;
position = "{-10, 540}";
}
);
layerId = "67aa4fb0-543e-4232-8202-ade6a11e0795";
paths = (
{
closed = 1;
nodes = (
"320 0 LINE",
"20.071 520 LINE",
"-40.017 462.701 LINE",
"227 0 LINE"
);
},
{
closed = 1;
nodes = (
"320 0 LINE",
"260 70 LINE",
"70 70 LINE",
"0 0 LINE"
);
},
{
closed = 1;
nodes = (
"189.398 79.542 OFFCURVE",
"299.918 342.295 OFFCURVE",
"322 560 CURVE",
"230 520 LINE",
"222.518 315.326 OFFCURVE",
"161.473 181.973 OFFCURVE",
"0 0 CURVE"
);
}
);
width = 360;
}
);
}
{
glyphname = "meem-ar.1";
layers = (
{
layerId = "67aa4fb0-543e-4232-8202-ade6a11e0795";
paths = (
{
closed = 1;
nodes = (
"140 0 LINE SMOOTH",
"204 0 OFFCURVE",
"240 30 OFFCURVE",
"240 90 CURVE SMOOTH",
"240 140 OFFCURVE",
"195 180 OFFCURVE",
"140 180 CURVE SMOOTH",
"85 180 OFFCURVE",
"40 140 OFFCURVE",
"40 90 CURVE SMOOTH",
"40 50 OFFCURVE",
"35 20 OFFCURVE",
"0 0 CURVE"
);
},
{
closed = 1;
nodes = (
"129 70 OFFCURVE",
"120 79 OFFCURVE",
"120 90 CURVE SMOOTH",
"120 101 OFFCURVE",
"129 110 OFFCURVE",
"140 110 CURVE SMOOTH",
"151 110 OFFCURVE",
"160 101 OFFCURVE",
"160 90 CURVE SMOOTH",
"160 79 OFFCURVE",
"151 70 OFFCURVE",
"140 70 CURVE SMOOTH"
);
}
);
width = 280;
}
);
rightKerningGroup = dal;
}
{
glyphname = "meem-ar.2";
layers = (
{
layerId = "67aa4fb0-543e-4232-8202-ade6a11e0795";
paths = (
{
closed = 1;
nodes = (
"203 -40 OFFCURVE",
"238 -10 OFFCURVE",
"238 50 CURVE SMOOTH",
"238 100 OFFCURVE",
"193 140 OFFCURVE",
"138 140 CURVE SMOOTH",
"86 140 OFFCURVE",
"43 105 OFFCURVE",
"38 58 CURVE SMOOTH",
"35 35 OFFCURVE",
"26 15 OFFCURVE",
"0 0 CURVE",
"52 0 LINE",
"69 -26 OFFCURVE",
"101 -40 OFFCURVE",
"138 -40 CURVE SMOOTH"
);
},
{
closed = 1;
nodes = (
"127 30 OFFCURVE",
"118 39 OFFCURVE",
"118 50 CURVE SMOOTH",
"118 61 OFFCURVE",
"127 70 OFFCURVE",
"138 70 CURVE SMOOTH",
"149 70 OFFCURVE",
"158 61 OFFCURVE",
"158 50 CURVE SMOOTH",
"158 39 OFFCURVE",
"149 30 OFFCURVE",
"138 30 CURVE SMOOTH"
);
}
);
width = 278;
}
);
rightKerningGroup = dal;
}
{
glyphname = "meem-ar.fina.1";
layers = (
{
components = (
{
alignment = -1;
name = "meem-ar.1";
}
);
layerId = "67aa4fb0-543e-4232-8202-ade6a11e0795";
paths = (
{
closed = 1;
nodes = (
"280 0 LINE",
"280 70 LINE",
"140 70 LINE",
"140 0 LINE"
);
}
);
width = 280;
}
);
leftKerningGroup = waw;
rightKerningGroup = dal;
}
{
glyphname = "meem-ar.fina.2";
kernLeft = dal;
kernRight = waw;
layers = (
{
layerId = "67aa4fb0-543e-4232-8202-ade6a11e0795";
shapes = (
{
closed = 1;
nodes = (
(181,-40,o),
(212,-26,o),
(227,0,c),
(278,0,l),
(278,70,l),
(236,70,l),
(225,111,o),
(185,140,o),
(138,140,cs),
(86,140,o),
(43,105,o),
(38,58,cs),
(35,35,o),
(26,15,o),
(0,0,c),
(52,0,l),
(69,-26,o),
(101,-40,o),
(138,-40,cs)
);
},
{
closed = 1;
nodes = (
(127,30,o),
(118,39,o),
(118,50,cs),
(118,61,o),
(127,70,o),
(138,70,cs),
(149,70,o),
(158,61,o),
(158,50,cs),
(158,39,o),
(149,30,o),
(138,30,cs)
);
}
);
width = 278;
},
{
associatedMasterId = "67aa4fb0-543e-4232-8202-ade6a11e0795";
layerId = "1F064F72-5807-4837-8162-BAFEE16B4C14";
name = "17 Jun 25 at 19:13";
shapes = (
{
closed = 1;
nodes = (
(203,-40,o),
(238,-10,o),
(238,50,cs),
(238,100,o),
(193,140,o),
(138,140,cs),
(86,140,o),
(43,105,o),
(38,58,cs),
(35,35,o),
(26,15,o),
(0,0,c),
(52,0,l),
(69,-26,o),
(101,-40,o),
(138,-40,cs)
);
},
{
closed = 1;
nodes = (
(127,30,o),
(118,39,o),
(118,50,cs),
(118,61,o),
(127,70,o),
(138,70,cs),
(149,70,o),
(158,61,o),
(158,50,cs),
(158,39,o),
(149,30,o),
(138,30,cs)
);
},
{
closed = 1;
nodes = (
(278,0,l),
(278,70,l),
(178,70,l),
(178,0,l)
);
}
);
width = 278;
}
);
}
{
glyphname = "meem-ar.fina";
layers = (
{
components = (
{
alignment = -1;
name = "meem-ar";
}
);
layerId = "67aa4fb0-543e-4232-8202-ade6a11e0795";
paths = (
{
closed = 1;
nodes = (
"440 0 LINE",
"440 70 LINE",
"300 70 LINE",
"300 0 LINE"
);
}
);
width = 440;
}
);
leftKerningGroup = waw;
rightKerningGroup = dal;
}
{
glyphname = "meem-ar.init";
layers = (
{
anchors = (
{
name = exit;
position = "{0, 0}";
}
);
layerId = "67aa4fb0-543e-4232-8202-ade6a11e0795";
paths = (
{
closed = 1;
nodes = (
"165 0 OFFCURVE",
"199.981 30 OFFCURVE",
"199.981 90 CURVE SMOOTH",
"199.981 139.672 OFFCURVE",
"155.172 180 OFFCURVE",
"99.981 180 CURVE SMOOTH",
"44.789 180 OFFCURVE",
"-0.02 140 OFFCURVE",
"-0.02 90 CURVE SMOOTH",
"-0.02 30 OFFCURVE",
"44.789 0 OFFCURVE",
"99.981 0 CURVE SMOOTH"
);
},
{
closed = 1;
nodes = (
"100 0 LINE",
"100 70 LINE",
"-20 70 LINE",
"-20 0 LINE"
);
},
{
closed = 1;
nodes = (
"88.942 70 OFFCURVE",
"79.981 78.962 OFFCURVE",
"79.981 90 CURVE SMOOTH",
"79.981 101.038 OFFCURVE",
"88.942 110 OFFCURVE",
"99.981 110 CURVE SMOOTH",
"111.019 110 OFFCURVE",
"119.981 101.038 OFFCURVE",
"119.981 90 CURVE SMOOTH",
"119.981 78.962 OFFCURVE",
"111.019 70 OFFCURVE",
"99.981 70 CURVE SMOOTH"
);
}
);
width = 240;
}
);
}
{
glyphname = "meem-ar.medi.1";
kernRight = waw;
layers = (
{
anchors = (
{
name = entry;
pos = (240,0);
},
{
name = exit;
}
);
layerId = "67aa4fb0-543e-4232-8202-ade6a11e0795";
shapes = (
{
closed = 1;
nodes = (
(165,-40,o),
(200,-10,o),
(200,50,cs),
(200,100,o),
(155,140,o),
(100,140,cs),
(45,140,o),
(0,100,o),
(0,50,cs),
(0,-10,o),
(35,-40,o),
(100,-40,cs)
);
},
{
closed = 1;
nodes = (
(50,0,l),
(50,70,l),
(-20,70,l),
(-20,0,l)
);
},
{
closed = 1;
nodes = (
(89,30,o),
(80,39,o),
(80,50,cs),
(80,61,o),
(89,70,o),
(100,70,cs),
(111,70,o),
(120,61,o),
(120,50,cs),
(120,39,o),
(111,30,o),
(100,30,cs)
);
},
{
closed = 1;
nodes = (
(240,0,l),
(240,70,l),
(140,70,l),
(140,0,l)
);
}
);
width = 240;
}
);
}
{
glyphname = n.1;
layers = (
{
components = (
{
name = _n;
}
);
layerId = "67aa4fb0-543e-4232-8202-ade6a11e0795";
paths = (
{
closed = 1;
nodes = (
"100 180 LINE",
"60 180 OFFCURVE",
"20 185 OFFCURVE",
"0 220 CURVE",
"0 90 LINE"
);
}
);
width = 240;
}
);
}
{
glyphname = n;
layers = (
{
components = (
{
name = n.1;
}
);
layerId = "67aa4fb0-543e-4232-8202-ade6a11e0795";
paths = (
{
closed = 1;
nodes = (
"120 39 LINE",
"120 -20 LINE",
"200 0 LINE",
"200 39 LINE"
);
},
{
closed = 1;
nodes = (
"0 39 LINE",
"0 -20 LINE",
"80 0 LINE",
"80 39 LINE"
);
}
);
width = 240;
}
);
unicode = "006E,004E";
}
{
glyphname = "nine-ar.osf";
layers = (
{
guides = (
{
pos = (0,70);
},
{
pos = (0,140);
},
{
pos = (0,210);
},
{
pos = (0,280);
},
{
pos = (0,350);
},
{
angle = 90;
pos = (140,450);
},
{
angle = 90;
pos = (70,450);
},
{
angle = 90;
pos = (210,450);
}
);
layerId = "67aa4fb0-543e-4232-8202-ade6a11e0795";
shapes = (
{
closed = 1;
nodes = (
(210,-110,l),
(210,350,l),
(0,350,l),
(0,140,l),
(140,140,l),
(140,-110,l)
);
},
{
closed = 1;
nodes = (
(70,280,l),
(140,280,l),
(140,210,l),
(70,210,l)
);
}
);
width = 250;
}
);
}
{
glyphname = o;
layers = (
{
layerId = "67aa4fb0-543e-4232-8202-ade6a11e0795";
paths = (
{
closed = 1;
nodes = (
"165 0 OFFCURVE",
"200 30 OFFCURVE",
"200 90 CURVE SMOOTH",
"200 140 OFFCURVE",
"155 180 OFFCURVE",
"100 180 CURVE SMOOTH",
"45 180 OFFCURVE",
"0 140 OFFCURVE",
"0 90 CURVE SMOOTH",
"0 30 OFFCURVE",
"35 0 OFFCURVE",
"100 0 CURVE SMOOTH"
);
},
{
closed = 1;
nodes = (
"89 70 OFFCURVE",
"80 79 OFFCURVE",
"80 90 CURVE SMOOTH",
"80 101 OFFCURVE",
"89 110 OFFCURVE",
"100 110 CURVE SMOOTH",
"111 110 OFFCURVE",
"120 101 OFFCURVE",
"120 90 CURVE SMOOTH",
"120 79 OFFCURVE",
"111 70 OFFCURVE",
"100 70 CURVE SMOOTH"
);
}
);
width = 240;
}
);
unicode = "006F,004F";
}
{
glyphname = "one-ar.osf";
layers = (
{
guides = (
{
pos = (0,70);
},
{
pos = (0,140);
},
{
pos = (0,210);
},
{
pos = (0,280);
},
{
pos = (0,350);
}
);
layerId = "67aa4fb0-543e-4232-8202-ade6a11e0795";
shapes = (
{
closed = 1;
nodes = (
(70,-110,l),
(70,350,l),
(0,350,l),
(0,-110,l)
);
}
);
width = 110;
}
);
metricWidth = "=zero-ar";
}
{
glyphname = p;
layers = (
{
anchors = (
{
name = bottom;
position = "{150, -138}";
}
);
components = (
{
alignment = -1;
name = "heh-ar.1";
transform = "{-1, 0, 0, -1, 200, 180}";
}
);
layerId = "67aa4fb0-543e-4232-8202-ade6a11e0795";
paths = (
{
closed = 1;
nodes = (
"0 -110 LINE",
"0 -250 LINE",
"80 -230 LINE",
"80 -110 LINE"
);
},
{
closed = 1;
nodes = (
"100 180 LINE",
"60 180 OFFCURVE",
"20 185 OFFCURVE",
"0 220 CURVE",
"0 90 LINE"
);
}
);
width = 240;
}
);
unicode = "0070,0050";
}
{
glyphname = q.1;
layers = (
{
components = (
{
name = "heh-ar.1";
transform = "{1, 0, 0, -1, 0, 180}";
}
);
layerId = "67aa4fb0-543e-4232-8202-ade6a11e0795";
paths = (
{
closed = 1;
nodes = (
"120 -120 LINE",
"120 -250 LINE",
"200 -230 LINE",
"200 -120 LINE"
);
}
);
width = 240;
}
);
}
{
glyphname = r.1;
layers = (
{
layerId = "67aa4fb0-543e-4232-8202-ade6a11e0795";
paths = (
{
closed = 1;
nodes = (
"80 -230 LINE",
"80 90 LINE SMOOTH",
"80 101 OFFCURVE",
"89 110 OFFCURVE",
"100 110 CURVE SMOOTH",
"107 110 OFFCURVE",
"114 106 OFFCURVE",
"117 100 CURVE",
"177 148 LINE",
"158 167 OFFCURVE",
"131 180 OFFCURVE",
"100 180 CURVE SMOOTH",
"60 180 OFFCURVE",
"20 185 OFFCURVE",
"0 220 CURVE",
"0 -250 LINE"
);
}
);
width = 217;
}
);
}
{
glyphname = "reh-ar.1";
layers = (
{
anchors = (
{
name = top;
position = "{117, 180}";
}
);
layerId = "67aa4fb0-543e-4232-8202-ade6a11e0795";
paths = (
{
closed = 1;
nodes = (
"276 -110 LINE SMOOTH",
"282 -110 OFFCURVE",
"297 -110 OFFCURVE",
"297 -89 CURVE",
"297 50 OFFCURVE",
"228.998 96.339 OFFCURVE",
"61 105 CURVE",
"0.5 0 LINE",
"173 0 LINE SMOOTH",
"195 0 OFFCURVE",
"213 -18 OFFCURVE",
"213 -40 CURVE",
"-22.6 -40 LINE",
"-63 -110 LINE"
);
}
);
width = 312;
}
);
rightKerningGroup = reh;
}
{
glyphname = "reh-ar.fina.1";
kernLeft = reh;
kernRight = reh.fina;
layers = (
{
anchors = (
{
name = top;
pos = (117,180);
},
{
name = top.alt;
pos = (16,83);
}
);
layerId = "67aa4fb0-543e-4232-8202-ade6a11e0795";
shapes = (
{
closed = 1;
nodes = (
(276,-110,ls),
(282,-110,o),
(297,-110,o),
(297,-89,cs),
(297,-53,o),
(293,-24,o),
(283,1,c),
(283,70,l),
(222,70,l),
(184,91,o),
(132,101,o),
(61,105,c),
(1,0,l),
(173,0,ls),
(195,0,o),
(213,-18,o),
(213,-40,c),
(-23,-40,l),
(-63,-110,l)
);
}
);
width = 283;
},
{
anchors = (
{
name = top;
pos = (117,180);
}
);
associatedMasterId = "67aa4fb0-543e-4232-8202-ade6a11e0795";
layerId = "2646083E-0F81-4B36-BE34-D1CB25AB661F";
name = "17 Jun 25 at 19:08";
shapes = (
{
closed = 1;
nodes = (
(276,-110,ls),
(282,-110,o),
(297,-110,o),
(297,-89,cs),
(297,50,o),
(229,96,o),
(61,105,c),
(1,0,l),
(173,0,ls),
(195,0,o),
(213,-18,o),
(213,-40,c),
(-23,-40,l),
(-63,-110,l)
);
},
{
closed = 1;
nodes = (
(283,0,l),
(283,70,l),
(183,70,l),
(223,0,l)
);
}
);
width = 283;
}
);
}
{
glyphname = "reh-ar.fina";
layers = (
{
anchors = (
{
name = top;
position = "{117, 215}";
}
);
layerId = "67aa4fb0-543e-4232-8202-ade6a11e0795";
paths = (
{
closed = 1;
nodes = (
"276 -110 LINE SMOOTH",
"282 -110 OFFCURVE",
"297 -110 OFFCURVE",
"297 -89 CURVE SMOOTH",
"297 50 OFFCURVE",
"228 93 OFFCURVE",
"81 140 CURVE",
"1 0 LINE",
"173 0 LINE SMOOTH",
"195 0 OFFCURVE",
"213 -18 OFFCURVE",
"213 -40 CURVE",
"-23 -40 LINE",
"-63 -110 LINE"
);
},
{
closed = 1;
nodes = (
"283 0 LINE",
"283 70 LINE",
"183 70 LINE",
"223 0 LINE"
);
}
);
width = 283;
}
);
leftKerningGroup = reh.fina;
rightKerningGroup = reh;
}
{
glyphname = s;
layers = (
{
layerId = "67aa4fb0-543e-4232-8202-ade6a11e0795";
paths = (
{
closed = 1;
nodes = (
"9 23 OFFCURVE",
"50 0 OFFCURVE",
"99 0 CURVE SMOOTH",
"157 0 OFFCURVE",
"191 24 OFFCURVE",
"198 71 CURVE",
"52 110 LINE",
"196 110 LINE",
"186 150 OFFCURVE",
"146 180 OFFCURVE",
"99 180 CURVE SMOOTH",
"51 180 OFFCURVE",
"11 150 OFFCURVE",
"1 109 CURVE",
"142 71 LINE",
"0 71 LINE"
);
}
);
width = 238;
}
);
unicode = "0073,0053";
}
{
glyphname = "sad-ar.1";
layers = (
{
anchors = (
{
name = top;
position = "{380, 255}";
}
);
layerId = "67aa4fb0-543e-4232-8202-ade6a11e0795";
paths = (
{
closed = 1;
nodes = (
"112 -250 LINE SMOOTH",
"135 -250 OFFCURVE",
"150 -235 OFFCURVE",
"150 -210 CURVE SMOOTH",
"150 250 LINE",
"70 230 LINE",
"70 -180 LINE",
"-30 -180 LINE SMOOTH",
"-50 -180 OFFCURVE",
"-67 -175 OFFCURVE",
"-78 -160 CURVE",
"-130 -250 LINE"
);
},
{
closed = 1;
nodes = (
"679 0 LINE SMOOTH",
"685 0 OFFCURVE",
"700 0 OFFCURVE",
"700 21 CURVE SMOOTH",
"700 160 OFFCURVE",
"630 180 OFFCURVE",
"586 180 CURVE SMOOTH",
"113 180 LINE",
"113 110 LINE",
"576 110 LINE SMOOTH",
"598 110 OFFCURVE",
"616 92 OFFCURVE",
"616 70 CURVE",
"113 70 LINE",
"113 0 LINE"
);
}
);
width = 740;
}
);
widthMetricsKey = "=sad-ar";
rightKerningGroup = bowel;
}
{
glyphname = "sad-ar.fina.1";
layers = (
{
anchors = (
{
name = top;
position = "{380, 255}";
}
);
layerId = "67aa4fb0-543e-4232-8202-ade6a11e0795";
paths = (
{
closed = 1;
nodes = (
"112 -250 LINE SMOOTH",
"135 -250 OFFCURVE",
"150 -235 OFFCURVE",
"150 -210 CURVE SMOOTH",
"150 250 LINE",
"70 230 LINE",
"70 -180 LINE",
"-30 -180 LINE SMOOTH",
"-50 -180 OFFCURVE",
"-67 -175 OFFCURVE",
"-78 -160 CURVE",
"-130 -250 LINE"
);
},
{
closed = 1;
nodes = (
"740 0 LINE",
"740 70 LINE",
"697 70 LINE",
"682 166 OFFCURVE",
"624 180 OFFCURVE",
"586 180 CURVE SMOOTH",
"113 180 LINE",
"113 110 LINE",
"576 110 LINE SMOOTH",
"598 110 OFFCURVE",
"616 92 OFFCURVE",
"616 70 CURVE",
"113 70 LINE",
"113 0 LINE"
);
}
);
width = 740;
}
);
leftKerningGroup = waw;
widthMetricsKey = "=sad-ar";
rightKerningGroup = bowel;
}
{
glyphname = "sad-ar.fina";
layers = (
{
anchors = (
{
name = top;
position = "{380, 255}";
}
);
layerId = "67aa4fb0-543e-4232-8202-ade6a11e0795";
paths = (
{
closed = 1;
nodes = (
"125 -250 LINE SMOOTH",
"148 -250 OFFCURVE",
"163 -235 OFFCURVE",
"163 -210 CURVE SMOOTH",
"163 146 LINE",
"150 180 LINE",
"70 260 LINE",
"30 190 LINE",
"83 137 LINE",
"83 -180 LINE",
"-17 -180 LINE SMOOTH",
"-37 -180 OFFCURVE",
"-54 -175 OFFCURVE",
"-65 -160 CURVE",
"-117 -250 LINE"
);
},
{
closed = 1;
nodes = (
"740 0 LINE",
"740 70 LINE",
"697 70 LINE",
"682 166 OFFCURVE",
"624 180 OFFCURVE",
"586 180 CURVE SMOOTH",
"113 180 LINE",
"113 110 LINE",
"576 110 LINE SMOOTH",
"598 110 OFFCURVE",
"616 92 OFFCURVE",
"616 70 CURVE",
"113 70 LINE",
"113 0 LINE"
);
}
);
width = 740;
}
);
leftKerningGroup = waw;
widthMetricsKey = "=sad-ar";
rightKerningGroup = bowel;
}
{
glyphname = "sad-ar.init";
layers = (
{
anchors = (
{
name = exit;
position = "{0, 0}";
}
);
components = (
{
name = _sad;
transform = "{1, 0, 0, 1, 13, 0}";
}
);
layerId = "67aa4fb0-543e-4232-8202-ade6a11e0795";
paths = (
{
closed = 1;
nodes = (
"46 70 LINE",
"-20 70 LINE",
"-20 0 LINE",
"46 0 LINE"
);
},
{
closed = 1;
nodes = (
"80 0 LINE",
"80 250 LINE",
"0 230 LINE",
"0 0 LINE"
);
}
);
width = 670;
}
);
}
{
glyphname = "sad-ar.medi";
kernRight = waw;
layers = (
{
anchors = (
{
name = entry;
pos = (670,0);
},
{
name = exit;
},
{
name = top;
pos = (44,300);
}
);
layerId = "67aa4fb0-543e-4232-8202-ade6a11e0795";
shapes = (
{
closed = 1;
nodes = (
(670,0,l),
(670,70,l),
(627,70,l),
(612,166,o),
(554,180,o),
(516,180,cs),
(13,180,l),
(13,110,l),
(506,110,ls),
(528,110,o),
(546,92,o),
(546,70,c),
(-21,70,l),
(-21,0,l)
);
},
{
closed = 1;
nodes = (
(80,40,l),
(80,250,l),
(0,230,l),
(0,40,l)
);
}
);
width = 670;
}
);
metricWidth = "=sad-ar.init";
}
{
glyphname = "seen-ar.fina.3";
kernLeft = bowel;
layers = (
{
anchors = (
{
name = bottom;
pos = (253,-35);
},
{
name = top;
pos = (233,300);
}
);
layerId = "67aa4fb0-543e-4232-8202-ade6a11e0795";
shapes = (
{
closed = 1;
nodes = (
(112,-250,ls),
(135,-250,o),
(150,-235,o),
(150,-210,cs),
(150,0,l),
(430,0,l),
(430,70,l),
(408,70,o),
(390,88,o),
(390,110,cs),
(390,230,l),
(310,210,l),
(310,70,l),
(288,70,o),
(270,88,o),
(270,110,cs),
(270,230,l),
(190,210,l),
(190,70,l),
(168,70,o),
(150,88,o),
(150,110,cs),
(150,230,l),
(70,210,l),
(70,-180,l),
(-30,-180,ls),
(-50,-180,o),
(-67,-175,o),
(-78,-160,c),
(-130,-250,l)
);
}
);
width = 430;
}
);
metricWidth = "=seen-ar";
}
{
glyphname = "seen-ar.fina";
layers = (
{
anchors = (
{
name = top;
position = "{233, 310}";
}
);
layerId = "67aa4fb0-543e-4232-8202-ade6a11e0795";
paths = (
{
closed = 1;
nodes = (
"112 -250 LINE SMOOTH",
"135 -250 OFFCURVE",
"150 -235 OFFCURVE",
"150 -210 CURVE SMOOTH",
"150 0 LINE",
"430 0 LINE",
"430 70 LINE",
"408 70 OFFCURVE",
"390 88 OFFCURVE",
"390 110 CURVE SMOOTH",
"390 270 LINE",
"310 250 LINE",
"310 70 LINE",
"288 70 OFFCURVE",
"270 88 OFFCURVE",
"270 110 CURVE SMOOTH",
"270 240 LINE",
"190 220 LINE",
"190 70 LINE",
"168 70 OFFCURVE",
"150 88 OFFCURVE",
"150 110 CURVE SMOOTH",
"150 210 LINE",
"70 190 LINE",
"70 -180 LINE",
"-30 -180 LINE SMOOTH",
"-50 -180 OFFCURVE",
"-67 -175 OFFCURVE",
"-78 -160 CURVE",
"-130 -250 LINE"
);
}
);
width = 430;
}
);
widthMetricsKey = "=seen-ar";
rightKerningGroup = bowel;
}
{
glyphname = "seen-ar.init.6";
layers = (
{
anchors = (
{
name = exit;
},
{
name = top;
pos = (148,215);
}
);
layerId = "67aa4fb0-543e-4232-8202-ade6a11e0795";
shapes = (
{
closed = 1;
nodes = (
(279,0,ls),
(285,0,o),
(300,0,o),
(300,11,cs),
(300,177,l),
(220,157,l),
(220,70,l),
(-20,70,l),
(-20,0,l)
);
},
{
closed = 1;
nodes = (
(140,40,l),
(40,140,l),
(-17,40,l)
);
},
{
closed = 1;
nodes = (
(250,40,l),
(150,140,l),
(93,40,l)
);
}
);
width = 340;
}
);
}
{
glyphname = "seen-ar.init";
layers = (
{
anchors = (
{
name = bottom;
pos = (160,-35);
},
{
name = exit;
},
{
name = top;
pos = (160,290);
}
);
layerId = "67aa4fb0-543e-4232-8202-ade6a11e0795";
shapes = (
{
closed = 1;
nodes = (
(299,0,ls),
(305,0,o),
(320,0,o),
(320,11,cs),
(320,270,l),
(240,250,l),
(240,70,l),
(218,70,o),
(200,88,o),
(200,110,cs),
(200,240,l),
(120,220,l),
(120,70,l),
(98,70,o),
(80,88,o),
(80,110,cs),
(80,210,l),
(0,190,l),
(0,70,l),
(-20,70,l),
(-20,0,l)
);
}
);
width = 360;
}
);
metricWidth = "=seen-ar.init";
}
{
glyphname = "seven-ar.1";
layers = (
{
guides = (
{
pos = (4,350);
}
);
layerId = "67aa4fb0-543e-4232-8202-ade6a11e0795";
shapes = (
{
closed = 1;
nodes = (
(186,0,l),
(306,327,l),
(240,350,l),
(140,75,l),
(167,75,l),
(66,350,l),
(0,327,l),
(120,0,l)
);
}
);
width = 346;
}
);
}
{
glyphname = "seven-ar.2";
layers = (
{
guides = (
{
pos = (14,350);
}
);
layerId = "67aa4fb0-543e-4232-8202-ade6a11e0795";
shapes = (
{
closed = 1;
nodes = (
(326,350,l),
(248,350,l),
(149,135,l),
(177,135,l),
(77,350,l),
(0,350,l),
(163,0,l)
);
}
);
width = 366;
}
);
}
{
glyphname = "six-ar.osf.1";
layers = (
{
guideLines = (
{
position = "{0, 70}";
},
{
position = "{0, 140}";
},
{
position = "{0, 210}";
},
{
position = "{0, 280}";
},
{
position = "{0, 350}";
},
{
angle = 90;
position = "{140, 450}";
},
{
angle = 90;
position = "{70, 450}";
},
{
angle = 90;
position = "{210, 450}";
}
);
layerId = "67aa4fb0-543e-4232-8202-ade6a11e0795";
paths = (
{
closed = 1;
nodes = (
"210 350 LINE",
"0 350 LINE",
"0 280 LINE",
"140 280 LINE",
"140 -110 LINE",
"210 -110 LINE"
);
}
);
width = 250;
}
);
widthMetricsKey = "=six-ar";
}
{
glyphname = "six-ar.osf";
layers = (
{
guides = (
{
pos = (0,70);
},
{
pos = (0,140);
},
{
pos = (0,210);
},
{
pos = (0,280);
},
{
pos = (0,350);
},
{
angle = 90;
pos = (140,450);
},
{
angle = 90;
pos = (70,450);
},
{
angle = 90;
pos = (210,450);
}
);
layerId = "67aa4fb0-543e-4232-8202-ade6a11e0795";
shapes = (
{
closed = 1;
nodes = (
(210,350,l),
(140,350,l),
(140,259,l),
(70,259,l),
(70,350,l),
(0,350,l),
(0,189,l),
(140,189,l),
(140,-110,l),
(210,-110,l)
);
}
);
width = 250;
}
);
metricWidth = "=two-ar";
}
{
glyphname = t;
layers = (
{
layerId = "67aa4fb0-543e-4232-8202-ade6a11e0795";
paths = (
{
closed = 1;
nodes = (
"80 150 LINE",
"0 150 LINE",
"0 80 LINE",
"0 30 OFFCURVE",
"37 0 OFFCURVE",
"77 0 CURVE SMOOTH",
"107 0 OFFCURVE",
"138 16 OFFCURVE",
"160 50 CURVE",
"151 46 OFFCURVE",
"139 43 OFFCURVE",
"127 43 CURVE SMOOTH",
"103 43 OFFCURVE",
"80 54 OFFCURVE",
"80 80 CURVE"
);
},
{
closed = 1;
nodes = (
"80 260 LINE",
"0 240 LINE",
"0 130 LINE",
"80 130 LINE"
);
},
{
closed = 1;
nodes = (
"160 160 LINE",
"160 179 LINE",
"-20 179 LINE",
"-20 160 LINE"
);
}
);
width = 200;
}
);
unicode = "0074,0054";
}
{
glyphname = "tah-ar.init";
layers = (
{
anchors = (
{
name = exit;
position = "{0, 0}";
},
{
name = top;
position = "{310, 255}";
}
);
layerId = "67aa4fb0-543e-4232-8202-ade6a11e0795";
paths = (
{
closed = 1;
nodes = (
"609 0 LINE SMOOTH",
"615 0 OFFCURVE",
"630 0 OFFCURVE",
"630 21 CURVE SMOOTH",
"630 160 OFFCURVE",
"560 180 OFFCURVE",
"516 180 CURVE SMOOTH",
"13 180 LINE",
"13 110 LINE",
"506 110 LINE SMOOTH",
"528 110 OFFCURVE",
"546 92 OFFCURVE",
"546 70 CURVE",
"-20 70 LINE",
"-20 0 LINE"
);
},
{
closed = 1;
nodes = (
"80 30 LINE",
"80 560 LINE",
"0 540 LINE",
"0 30 LINE"
);
}
);
width = 670;
}
);
}
{
glyphname = "tah-ar.init.short";
layers = (
{
anchors = (
{
name = bottom;
pos = (310,-35);
},
{
name = exit;
},
{
name = top;
pos = (310,255);
}
);
layerId = "67aa4fb0-543e-4232-8202-ade6a11e0795";
shapes = (
{
closed = 1;
nodes = (
(609,0,ls),
(615,0,o),
(630,0,o),
(630,21,cs),
(630,160,o),
(560,180,o),
(516,180,cs),
(80,180,l),
(80,450,l),
(0,430,l),
(0,70,l),
(-20,70,l),
(-20,0,l)
);
},
{
closed = 1;
nodes = (
(80,110,l),
(506,110,ls),
(528,110,o),
(546,92,o),
(546,70,c),
(80,70,l)
);
}
);
width = 670;
},
{
anchors = (
{
name = exit;
},
{
name = top;
pos = (310,255);
}
);
associatedMasterId = "67aa4fb0-543e-4232-8202-ade6a11e0795";
layerId = "32E85543-108E-488A-BD2C-59EA25FEFF1D";
name = "17 Jun 25 at 19:10";
shapes = (
{
closed = 1;
nodes = (
(609,0,ls),
(615,0,o),
(630,0,o),
(630,21,cs),
(630,160,o),
(560,180,o),
(516,180,cs),
(13,180,l),
(13,110,l),
(506,110,ls),
(528,110,o),
(546,92,o),
(546,70,c),
(-20,70,l),
(-20,0,l)
);
},
{
closed = 1;
nodes = (
(80,40,l),
(80,450,l),
(0,430,l),
(0,40,l)
);
}
);
width = 670;
}
);
metricRight = "=tah-ar.init";
metricWidth = "=tah-ar.init";
}
{
glyphname = "tah-ar.medi";
kernRight = waw;
layers = (
{
anchors = (
{
name = entry;
pos = (670,0);
},
{
name = exit;
},
{
name = top;
pos = (310,255);
}
);
layerId = "67aa4fb0-543e-4232-8202-ade6a11e0795";
shapes = (
{
closed = 1;
nodes = (
(670,0,l),
(670,70,l),
(627,70,l),
(612,166,o),
(554,180,o),
(516,180,cs),
(80,180,l),
(80,560,l),
(0,540,l),
(0,70,l),
(-20,70,l),
(-20,0,l)
);
},
{
closed = 1;
nodes = (
(80,110,l),
(506,110,ls),
(528,110,o),
(546,92,o),
(546,70,c),
(80,70,l)
);
}
);
width = 670;
},
{
anchors = (
{
name = entry;
pos = (670,0);
},
{
name = exit;
},
{
name = top;
pos = (310,255);
}
);
associatedMasterId = "67aa4fb0-543e-4232-8202-ade6a11e0795";
layerId = "EF18022B-8519-4878-BEAE-BFE1CE66675F";
name = "17 Jun 25 at 19:09";
shapes = (
{
closed = 1;
nodes = (
(670,0,l),
(670,70,l),
(627,70,l),
(612,166,o),
(554,180,o),
(516,180,cs),
(13,180,l),
(13,110,l),
(506,110,ls),
(528,110,o),
(546,92,o),
(546,70,c),
(-20,70,l),
(-20,0,l)
);
},
{
closed = 1;
nodes = (
(80,30,l),
(80,560,l),
(0,540,l),
(0,30,l)
);
}
);
width = 670;
}
);
metricWidth = "tah-ar.init";
}
{
glyphname = "tah-ar.medi.short";
layers = (
{
anchors = (
{
name = entry;
position = "{670, 0}";
},
{
name = exit;
position = "{0, 0}";
},
{
name = top;
position = "{310, 255}";
}
);
layerId = "67aa4fb0-543e-4232-8202-ade6a11e0795";
paths = (
{
closed = 1;
nodes = (
"670 0 LINE",
"670 70 LINE",
"627 70 LINE",
"612 166 OFFCURVE",
"554 180 OFFCURVE",
"516 180 CURVE SMOOTH",
"13 180 LINE",
"13 110 LINE",
"506 110 LINE SMOOTH",
"528 110 OFFCURVE",
"546 92 OFFCURVE",
"546 70 CURVE",
"-20 70 LINE",
"-20 0 LINE"
);
},
{
closed = 1;
nodes = (
"80 40 LINE",
"80 450 LINE",
"0 430 LINE",
"0 40 LINE"
);
}
);
width = 670;
}
);
leftKerningGroup = waw;
widthMetricsKey = "=tah-ar.medi";
rightMetricsKey = "=tah-ar.medi";
}
{
glyphname = "three-ar.1";
layers = (
{
components = (
{
name = "one-ar";
}
);
guideLines = (
{
position = "{0, 70}";
},
{
position = "{0, 140}";
},
{
position = "{0, 210}";
},
{
position = "{0, 280}";
},
{
position = "{0, 350}";
}
);
layerId = "67aa4fb0-543e-4232-8202-ade6a11e0795";
paths = (
{
closed = 1;
nodes = (
"60 140 LINE",
"310 140 LINE",
"310 210 LINE",
"60 210 LINE"
);
},
{
closed = 1;
nodes = (
"120 170 LINE",
"190 170 LINE",
"190 350 LINE",
"120 350 LINE"
);
},
{
closed = 1;
nodes = (
"240 170 LINE",
"310 170 LINE",
"310 350 LINE",
"240 350 LINE"
);
}
);
width = 350;
}
);
}
{
glyphname = "two-ar.1";
layers = (
{
components = (
{
name = "one-ar";
}
);
guideLines = (
{
position = "{0, 70}";
},
{
position = "{0, 140}";
},
{
position = "{0, 210}";
},
{
position = "{0, 280}";
},
{
position = "{0, 350}";
},
{
angle = 90;
position = "{140, 450}";
},
{
angle = 90;
position = "{70, 450}";
},
{
angle = 90;
position = "{210, 450}";
}
);
layerId = "67aa4fb0-543e-4232-8202-ade6a11e0795";
paths = (
{
closed = 1;
nodes = (
"60 280 LINE",
"210 280 LINE",
"210 350 LINE",
"60 350 LINE"
);
}
);
width = 250;
}
);
widthMetricsKey = "=two-ar";
}
{
glyphname = "two-ar.osf.1";
layers = (
{
guideLines = (
{
position = "{0, 70}";
},
{
position = "{0, 140}";
},
{
position = "{0, 210}";
},
{
position = "{0, 280}";
},
{
position = "{0, 350}";
},
{
angle = 90;
position = "{140, 450}";
},
{
angle = 90;
position = "{70, 450}";
},
{
angle = 90;
position = "{210, 450}";
}
);
layerId = "67aa4fb0-543e-4232-8202-ade6a11e0795";
paths = (
{
closed = 1;
nodes = (
"70 -110 LINE",
"70 280 LINE",
"210 280 LINE",
"210 350 LINE",
"0 350 LINE",
"0 -110 LINE"
);
}
);
width = 250;
}
);
widthMetricsKey = "=two-ar";
}
{
glyphname = v;
layers = (
{
layerId = "67aa4fb0-543e-4232-8202-ade6a11e0795";
paths = (
{
closed = 1;
nodes = (
"73 135 LINE",
"101 135 LINE",
"57 230 LINE",
"-20 230 LINE",
"87 0 LINE",
"194 230 LINE",
"117 230 LINE"
);
}
);
width = 214;
}
);
unicode = "0076,0056";
}
{
glyphname = w;
layers = (
{
layerId = "67aa4fb0-543e-4232-8202-ade6a11e0795";
paths = (
{
closed = 1;
nodes = (
"156 147 LINE",
"224 0 LINE",
"331 230 LINE",
"254 230 LINE",
"209 132 LINE",
"239 132 LINE",
"194 230 LINE",
"117 230 LINE",
"72 132 LINE",
"102 132 LINE",
"57 230 LINE",
"-20 230 LINE",
"87 0 LINE"
);
}
);
width = 351;
}
);
rightMetricsKey = "=v";
unicode = "0077,0057";
}
{
glyphname = "waw-ar.1";
layers = (
{
anchors = (
{
name = top;
position = "{179, 340}";
}
);
layerId = "67aa4fb0-543e-4232-8202-ade6a11e0795";
paths = (
{
closed = 1;
nodes = (
"259 0 LINE SMOOTH",
"265 0 OFFCURVE",
"280 0 OFFCURVE",
"280 11 CURVE SMOOTH",
"280 200 LINE",
"200 130 LINE",
"200 70 LINE",
"100 70 LINE SMOOTH",
"78 70 OFFCURVE",
"62 77 OFFCURVE",
"52 90 CURVE",
"0 0 LINE"
);
},
{
closed = 1;
nodes = (
"235 110 OFFCURVE",
"280 150 OFFCURVE",
"280 200 CURVE SMOOTH",
"280 250 OFFCURVE",
"235 290 OFFCURVE",
"180 290 CURVE SMOOTH",
"125 290 OFFCURVE",
"80 250 OFFCURVE",
"80 200 CURVE SMOOTH",
"80 150 OFFCURVE",
"125 110 OFFCURVE",
"180 110 CURVE SMOOTH"
);
},
{
closed = 1;
nodes = (
"169 180 OFFCURVE",
"160 189 OFFCURVE",
"160 200 CURVE SMOOTH",
"160 211 OFFCURVE",
"169 220 OFFCURVE",
"180 220 CURVE SMOOTH",
"191 220 OFFCURVE",
"200 211 OFFCURVE",
"200 200 CURVE SMOOTH",
"200 189 OFFCURVE",
"191 180 OFFCURVE",
"180 180 CURVE SMOOTH"
);
}
);
width = 320;
}
);
rightKerningGroup = dal;
rightMetricsKey = "=waw-ar";
}
{
glyphname = "waw-ar.fina.1";
kernLeft = waw;
kernRight = waw;
layers = (
{
anchors = (
{
name = bottom;
pos = (90,-145);
},
{
name = top;
pos = (129,230);
}
);
layerId = "67aa4fb0-543e-4232-8202-ade6a11e0795";
shapes = (
{
closed = 1;
nodes = (
(209,-110,ls),
(215,-110,o),
(230,-110,o),
(230,-99,cs),
(230,0,l),
(270,0,l),
(270,70,l),
(230,70,l),
(230,90,ls),
(230,140,o),
(185,180,o),
(130,180,cs),
(75,180,o),
(30,140,o),
(30,90,cs),
(30,40,o),
(75,0,o),
(130,0,cs),
(150,0,l),
(150,-40,l),
(50,-40,ls),
(28,-40,o),
(12,-33,o),
(2,-20,c),
(-50,-110,l)
);
},
{
closed = 1;
nodes = (
(119,70,o),
(110,79,o),
(110,90,cs),
(110,101,o),
(119,110,o),
(130,110,cs),
(141,110,o),
(150,101,o),
(150,90,cs),
(150,79,o),
(141,70,o),
(130,70,cs)
);
}
);
width = 270;
}
);
}
{
glyphname = "waw-ar.fina";
layers = (
{
components = (
{
alignment = -1;
name = "waw-ar";
}
);
layerId = "67aa4fb0-543e-4232-8202-ade6a11e0795";
paths = (
{
closed = 1;
nodes = (
"280 0 LINE",
"280 70 LINE",
"130 70 LINE",
"130 0 LINE"
);
}
);
width = 280;
}
);
leftKerningGroup = waw;
rightKerningGroup = waw;
}
{
glyphname = z;
layers = (
{
layerId = "67aa4fb0-543e-4232-8202-ade6a11e0795";
paths = (
{
closed = 1;
nodes = (
"257 0 LINE",
"205 90 LINE",
"194 75 OFFCURVE",
"177 70 OFFCURVE",
"157 70 CURVE",
"80 70 LINE",
"15 0 LINE"
);
},
{
closed = 1;
nodes = (
"190 160 LINE",
"265 230 LINE",
"44 230 LINE",
"22 160 LINE"
);
},
{
closed = 1;
nodes = (
"22 0 LINE",
"271 230 LINE",
"252 230 LINE",
"0 0 LINE"
);
}
);
width = 311;
}
);
unicode = "007A,005A";
}
